<svg width="25" height="25" viewBox="0 0 25 25" fill="none" xmlns="http://www.w3.org/2000/svg">
<path d="M16.1774 0.519584C16.0419 1.09524 16.1189 1.61483 16.4085 2.07835C17.2362 3.40535 17.6519 4.86412 17.6557 6.45465C17.6557 6.70323 17.6278 6.93219 17.5721 7.14152C17.509 7.38262 17.3995 7.59195 17.2436 7.76951C15.7422 5.72293 14.2964 3.59038 12.9063 1.37186C12.8891 1.3442 12.8658 1.32061 12.8385 1.30319C12.8112 1.28577 12.7808 1.27506 12.7499 1.27201C12.7191 1.26896 12.6888 1.27366 12.6617 1.2857C12.6345 1.29774 12.6115 1.31674 12.5945 1.34102L11.9431 2.29141C10.9298 2.45121 12.0155 -0.826111 10.682 1.34943C10.5372 1.58492 10.2087 2.01013 9.69648 2.62503C9.64063 2.69214 9.60829 2.78098 9.60462 2.87735C9.59348 3.2306 9.49419 3.55487 9.30674 3.85018C9.25292 3.93428 9.22229 4.01932 9.21487 4.1053C9.14434 4.84356 8.94019 5.52855 8.60241 6.16028C8.52817 5.80143 8.55601 5.46407 8.68593 5.14821C8.70483 5.10432 8.71423 5.0587 8.71325 5.01557C8.71228 4.97244 8.70097 4.9332 8.68036 4.9015C8.57086 4.72955 8.4725 4.74637 8.38527 4.95196C8.34258 5.05102 8.3101 5.05009 8.28783 4.94916L8.20431 4.5847L9.37912 0.340158C11.3241 0.0205553 12.8562 -0.0738301 13.9753 0.0570012C14.2073 0.0831675 14.9414 0.237362 16.1774 0.519584Z" fill="#1A65A4"/>
<path d="M9.37912 0.340158L8.20431 4.5847C8.12822 4.85945 8.01872 5.10896 7.87581 5.33324C7.39698 6.07898 7.255 7.02377 6.84577 7.8452C6.80679 7.92183 6.79473 7.91716 6.80958 7.83119C6.86154 7.50785 6.81793 7.35739 6.67873 7.37982C6.66324 7.38218 6.64727 7.38159 6.63219 7.3781C6.6171 7.37461 6.60336 7.36832 6.59213 7.35977C6.5809 7.35122 6.57254 7.34067 6.56774 7.32903C6.56294 7.31738 6.56186 7.30499 6.56459 7.29291L6.86804 6.08459C6.89031 5.98927 6.87918 5.98179 6.83463 6.06216L6.1999 7.18077C6.14945 7.27151 6.08877 7.33952 6.0273 7.37421C5.69138 7.55924 5.45938 7.82745 5.33133 8.17882L4.14817 3.20256C5.6589 1.81949 7.40255 0.865352 9.37912 0.340158Z" fill="#045482"/>
<path d="M16.1774 0.519584C17.8812 1.04478 19.377 1.86902 20.6651 2.9923C20.2753 4.19781 19.9839 5.42482 19.7909 6.67333C19.6462 7.61251 19.3288 8.58534 19.2174 9.5862C19.2048 9.68177 19.162 9.76497 19.0977 9.81889L18.7748 10.0824L17.2436 7.76951C17.3995 7.59195 17.509 7.38262 17.5721 7.14152C17.6278 6.93219 17.6557 6.70323 17.6557 6.45465C17.6519 4.86412 17.2362 3.40535 16.4085 2.07835C16.1189 1.61483 16.0419 1.09524 16.1774 0.519584Z" fill="#045482"/>
<path d="M11.9431 2.29141L8.62468 7.26768C8.43352 6.91256 8.4261 6.54343 8.60241 6.16028C8.94019 5.52855 9.14434 4.84356 9.21487 4.1053C9.22229 4.01932 9.25292 3.93428 9.30674 3.85018C9.49419 3.55487 9.59348 3.2306 9.60462 2.87735C9.60829 2.78098 9.64063 2.69214 9.69648 2.62503C10.2087 2.01013 10.5372 1.58492 10.682 1.34943C12.0155 -0.826111 10.9298 2.45121 11.9431 2.29141Z" fill="#2A95C8"/>
<path d="M17.2436 7.76951L18.7748 10.0824L20.0665 11.9215C20.2001 12.1122 20.1612 12.1561 19.9496 12.0533L18.7052 11.4618L17.0348 10.6908C16.3166 10.2338 15.4341 10.032 15.0611 9.63385C15.0401 9.61191 15.0172 9.59462 14.9947 9.58377C14.9722 9.57293 14.9509 9.56892 14.933 9.57218L14.8578 9.58619C14.8423 9.58974 14.8281 9.59824 14.816 9.6112C14.804 9.62416 14.7943 9.64132 14.7875 9.66168C14.7808 9.68205 14.7771 9.7052 14.7768 9.72978C14.7764 9.75437 14.7794 9.77989 14.7855 9.80487L16.002 14.8372C16.3472 16.1549 16.4224 17.8454 17.2464 18.9388C17.2981 19.0053 17.3211 19.095 17.3105 19.1883C17.2436 19.7882 17.5081 20.1714 18.1039 20.3377L14.3484 20.5256L14.0895 18.0192C14.0854 17.9804 14.0679 17.9444 14.0402 17.9181C14.0125 17.8917 13.9766 17.8768 13.9392 17.8762L11.3473 17.8033C11.2786 17.8017 11.2119 17.8269 11.1615 17.8735C11.1111 17.9201 11.0809 17.9844 11.0773 18.0529C10.9474 20.3125 10.6829 22.5544 10.2839 24.7785C8.93462 24.6047 7.68187 24.1608 6.52562 23.4468C6.64069 23.2188 6.82628 23.1067 7.0824 23.1104C7.12427 23.111 7.16463 23.0994 7.19696 23.0775C7.22929 23.0557 7.2517 23.0248 7.26057 22.9899C7.4573 22.203 7.48421 21.4227 7.3413 20.6489C7.33463 20.6098 7.33973 20.5691 7.35601 20.5319C7.37229 20.4946 7.39907 20.4623 7.43317 20.4387C7.62805 20.3022 7.72827 20.1359 7.73383 19.9396L8.11523 17.851L8.17926 17.1165C9.06268 14.754 9.69741 12.3309 10.0834 9.84692C10.0983 9.75534 10.0649 9.73104 9.98323 9.77403L8.05677 10.7609L6.07463 11.7589C5.66447 11.7907 5.70251 11.5318 6.18877 10.9824L8.62468 7.26768L11.9431 2.29141L12.5945 1.34102C12.6115 1.31674 12.6345 1.29774 12.6617 1.2857C12.6888 1.27366 12.7191 1.26896 12.7499 1.27201C12.7808 1.27506 12.8112 1.28577 12.8385 1.30319C12.8658 1.32061 12.8891 1.3442 12.9063 1.37186C14.2964 3.59038 15.7422 5.72293 17.2436 7.76951ZM12.6084 5.17905C12.4832 5.26876 11.3 16.1745 11.2248 17.251C11.2237 17.27 11.2261 17.2889 11.232 17.3067C11.2379 17.3246 11.2471 17.3409 11.2591 17.3548C11.271 17.3687 11.2855 17.3798 11.3017 17.3876C11.3178 17.3953 11.3352 17.3994 11.3529 17.3996L13.6496 17.4277C13.702 17.4284 13.7538 17.4172 13.8016 17.3948C13.8495 17.3724 13.8924 17.3393 13.9273 17.2977C13.9623 17.2561 13.9887 17.2069 14.0046 17.1535C14.0206 17.1 14.0258 17.0434 14.0199 16.9875L12.7532 5.28558C12.7506 5.26548 12.7442 5.24569 12.7344 5.22809C12.7247 5.21048 12.7119 5.19564 12.6974 5.18498C12.683 5.17431 12.6672 5.16817 12.6516 5.16713C12.636 5.1661 12.6212 5.1702 12.6084 5.17905ZM9.43201 19.9256C9.97209 16.5277 10.3145 13.6205 10.9799 9.72357C11.0133 9.53293 10.9632 9.4292 10.8295 9.41238C10.7933 9.40759 10.7559 9.41996 10.7249 9.44701C10.6939 9.47405 10.6716 9.51377 10.6625 9.55816C10.1976 11.8599 9.58791 14.1588 9.35406 16.4941C9.22322 17.8033 8.56344 18.9304 8.48549 20.3574C8.48307 20.3995 8.49346 20.4409 8.51507 20.4753C8.53669 20.5097 8.56834 20.5353 8.6052 20.548C9.13692 20.7274 9.35128 20.433 9.43201 19.9256ZM15.59 17.1725C15.6429 16.9146 15.7041 16.6595 15.6624 16.396C15.4193 14.897 15.0147 12.8598 14.4486 10.2843C14.34 9.80487 14.315 10.2731 14.3178 10.3235C14.5126 12.671 14.8792 14.955 15.4174 17.1753C15.4805 17.4314 15.538 17.4305 15.59 17.1725Z" fill="#7EF2FE"/>
<path d="M20.6651 2.9923C22.0607 4.22772 23.1474 5.69583 23.925 7.39664C23.6225 7.4957 23.4378 7.66391 23.371 7.90128C22.7344 10.1553 22.0171 12.1729 21.2191 13.9541C21.2009 13.9943 21.1744 14.0297 21.1417 14.0579C21.1089 14.086 21.0707 14.1061 21.0297 14.1167C20.1723 14.3335 19.3511 14.2877 18.566 13.9793C18.5252 13.9632 18.4905 13.9358 18.4674 13.9013C18.4442 13.8669 18.4339 13.8273 18.4379 13.7887L18.7052 11.4618L19.9496 12.0533C20.1612 12.1561 20.2001 12.1122 20.0665 11.9215L18.7748 10.0824L19.0977 9.81889C19.162 9.76497 19.2048 9.68177 19.2174 9.5862C19.3288 8.58534 19.6462 7.61251 19.7909 6.67333C19.9839 5.42482 20.2753 4.19781 20.6651 2.9923Z" fill="#052B64"/>
<path d="M4.14817 3.20256L5.33133 8.17882L5.86862 10.7749C5.87495 10.8058 5.89475 10.8346 5.92523 10.8573C5.9557 10.8799 5.99531 10.8952 6.03844 10.901C6.09783 10.9085 6.14794 10.9356 6.18877 10.9824C5.70251 11.5318 5.66447 11.7907 6.07463 11.7589C6.33631 12.3757 6.43932 13.0215 6.38364 13.6962C6.37928 13.7422 6.36645 13.7865 6.34589 13.8265C6.32535 13.8664 6.29748 13.9012 6.26393 13.9289C5.8779 14.241 5.45196 14.3008 4.98612 14.1083C4.9026 14.0746 4.81445 14.0606 4.72165 14.0662C4.41357 14.0868 4.12868 14.0139 3.86699 13.8476C3.7969 13.8041 3.74074 13.7297 3.70831 13.6373L1.33086 7.07143C1.97301 5.62294 2.91211 4.33332 4.14817 3.20256Z" fill="#052B64"/>
<path d="M8.20431 4.5847L8.28783 4.94916C8.3101 5.05009 8.34258 5.05102 8.38527 4.95196C8.4725 4.74637 8.57086 4.72955 8.68036 4.9015C8.70097 4.9332 8.71228 4.97244 8.71325 5.01557C8.71423 5.0587 8.70483 5.10432 8.68593 5.14821C8.55601 5.46407 8.52817 5.80143 8.60241 6.16028C8.4261 6.54343 8.43352 6.91256 8.62468 7.26768L6.18877 10.9824C6.14794 10.9356 6.09783 10.9085 6.03844 10.901C5.99531 10.8952 5.9557 10.8799 5.92523 10.8573C5.89475 10.8346 5.87495 10.8058 5.86862 10.7749L5.33133 8.17882C5.45938 7.82745 5.69138 7.55924 6.0273 7.37421C6.08877 7.33952 6.14945 7.27151 6.1999 7.18077L6.83463 6.06216C6.87918 5.98179 6.89031 5.98927 6.86804 6.08459L6.56459 7.29291C6.56186 7.30499 6.56294 7.31738 6.56774 7.32903C6.57254 7.34067 6.5809 7.35122 6.59213 7.35977C6.60336 7.36832 6.6171 7.37461 6.63219 7.3781C6.64727 7.38159 6.66324 7.38218 6.67873 7.37982C6.81793 7.35739 6.86154 7.50785 6.80958 7.83119C6.79473 7.91716 6.80679 7.92183 6.84577 7.8452C7.255 7.02377 7.39698 6.07898 7.87581 5.33324C8.01872 5.10896 8.12822 4.85945 8.20431 4.5847Z" fill="#005E9F"/>
<path d="M11.2248 17.251C11.3 16.1745 12.4832 5.26876 12.6084 5.17905C12.6212 5.1702 12.636 5.1661 12.6516 5.16713C12.6672 5.16817 12.683 5.17431 12.6974 5.18498C12.7119 5.19564 12.7247 5.21048 12.7344 5.22809C12.7442 5.24569 12.7506 5.26548 12.7532 5.28558L14.0199 16.9875C14.0258 17.0434 14.0206 17.1 14.0046 17.1535C13.9887 17.2069 13.9623 17.2561 13.9273 17.2977C13.8924 17.3393 13.8495 17.3724 13.8016 17.3948C13.7538 17.4172 13.702 17.4284 13.6496 17.4277L11.3529 17.3996C11.3352 17.3994 11.3178 17.3953 11.3017 17.3876C11.2855 17.3798 11.271 17.3687 11.2591 17.3548C11.2471 17.3409 11.2379 17.3246 11.232 17.3067C11.2261 17.2889 11.2237 17.27 11.2248 17.251Z" fill="white"/>
<path d="M1.33086 7.07143L3.70831 13.6373C3.74074 13.7297 3.7969 13.8041 3.86699 13.8476C4.12868 14.0139 4.41357 14.0868 4.72165 14.0662C4.81445 14.0606 4.9026 14.0746 4.98612 14.1083C5.45196 14.3008 5.8779 14.241 6.26393 13.9289C6.29748 13.9012 6.32535 13.8664 6.34589 13.8265C6.36645 13.7865 6.37928 13.7422 6.38364 13.6962C6.43932 13.0215 6.33631 12.3757 6.07463 11.7589L8.05677 10.7609C8.59128 11.0655 8.65067 11.3973 8.23494 11.7561C8.20336 11.7835 8.17786 11.8177 8.16011 11.8563C8.14236 11.895 8.13276 11.9373 8.13193 11.9804L8.06512 14.9241C8.06249 15.0333 8.02004 15.1391 7.9447 15.2241C7.86936 15.3091 7.76558 15.3684 7.65032 15.3923C7.27171 15.4708 7.036 15.5857 6.94321 15.7371C6.12474 15.7446 5.41113 16.0745 4.80238 16.7268C3.72223 16.2315 2.7191 15.9997 1.79299 16.0315C1.4682 16.0427 1.11464 16.2605 0.73232 16.6847C-0.350618 13.4747 -0.297724 10.1189 1.33086 7.07143Z" fill="#134E7D"/>
<path d="M23.925 7.39664C25.1889 10.3927 25.3383 13.4214 24.3732 16.4829C23.4378 16.1521 22.4764 16.0138 21.4891 16.068C21.2274 16.0829 21.0047 16.1782 20.821 16.3539C20.7875 16.3867 20.7495 16.4125 20.7094 16.4298C20.6692 16.4472 20.6276 16.4557 20.5871 16.4548L19.5598 16.4408C19.4747 16.4409 19.3863 16.4115 19.3065 16.3567C18.8889 16.0745 18.4333 15.8988 17.9396 15.8297L16.6869 15.3166C16.428 14.6438 15.9129 12.4654 16.4419 11.9103C16.4728 11.8793 16.4973 11.8422 16.514 11.8013C16.5307 11.7604 16.5393 11.7165 16.5393 11.672C16.5412 11.2608 16.7064 10.9338 17.0348 10.6908L18.7052 11.4618L18.4379 13.7887C18.4339 13.8273 18.4442 13.8669 18.4674 13.9013C18.4905 13.9358 18.5252 13.9632 18.566 13.9793C19.3511 14.2877 20.1723 14.3335 21.0297 14.1167C21.0707 14.1061 21.1089 14.086 21.1417 14.0579C21.1744 14.0297 21.2009 13.9943 21.2191 13.9541C22.0171 12.1729 22.7344 10.1553 23.371 7.90128C23.4378 7.66391 23.6225 7.4957 23.925 7.39664Z" fill="#104878"/>
<path d="M10.9799 9.72357C10.3145 13.6205 9.97209 16.5277 9.43201 19.9256C9.35128 20.433 9.13692 20.7274 8.6052 20.548C8.56834 20.5353 8.53669 20.5097 8.51507 20.4753C8.49346 20.4409 8.48307 20.3995 8.48549 20.3574C8.56344 18.9304 9.22322 17.8033 9.35406 16.4941C9.58791 14.1588 10.1976 11.8599 10.6625 9.55816C10.6716 9.51377 10.6939 9.47405 10.7249 9.44701C10.7559 9.41996 10.7933 9.40759 10.8295 9.41238C10.9632 9.4292 11.0133 9.53293 10.9799 9.72357Z" fill="#58DEE6"/>
<path d="M17.0348 10.6908C16.7064 10.9338 16.5412 11.2608 16.5393 11.672C16.5393 11.7165 16.5307 11.7604 16.514 11.8013C16.4973 11.8422 16.4728 11.8793 16.4419 11.9103C15.9129 12.4654 16.428 14.6438 16.6869 15.3166L16.002 14.8372L14.7855 9.80487C14.7794 9.77989 14.7764 9.75437 14.7768 9.72978C14.7771 9.7052 14.7808 9.68205 14.7875 9.66168C14.7943 9.64132 14.804 9.62416 14.816 9.6112C14.8281 9.59824 14.8423 9.58974 14.8578 9.58619L14.933 9.57218C14.9509 9.56892 14.9722 9.57293 14.9947 9.58377C15.0172 9.59462 15.0401 9.61191 15.0611 9.63385C15.4341 10.032 16.3166 10.2338 17.0348 10.6908Z" fill="#1CA3D5"/>
<path d="M8.17926 17.1165L6.80401 16.6034C6.7837 16.5961 6.76557 16.5838 6.75124 16.5675C6.73691 16.5513 6.72682 16.5316 6.72186 16.5102C6.7169 16.4889 6.71723 16.4665 6.72282 16.4451C6.72841 16.4237 6.73909 16.4039 6.7539 16.3876C7.17148 15.9166 7.23459 15.6998 6.94321 15.7371C7.036 15.5857 7.27171 15.4708 7.65032 15.3923C7.76558 15.3684 7.86936 15.3091 7.9447 15.2241C8.02004 15.1391 8.06249 15.0333 8.06512 14.9241L8.13193 11.9804C8.13276 11.9373 8.14236 11.895 8.16011 11.8563C8.17786 11.8177 8.20336 11.7835 8.23494 11.7561C8.65067 11.3973 8.59128 11.0655 8.05677 10.7609L9.98323 9.77403C10.0649 9.73104 10.0983 9.75534 10.0834 9.84692C9.69741 12.3309 9.06268 14.754 8.17926 17.1165Z" fill="#2A95C8"/>
<path d="M15.59 17.1725C15.538 17.4305 15.4805 17.4314 15.4174 17.1753C14.8792 14.955 14.5126 12.671 14.3178 10.3235C14.315 10.2731 14.34 9.80487 14.4486 10.2843C15.0147 12.8598 15.4193 14.897 15.6624 16.396C15.7041 16.6595 15.6429 16.9146 15.59 17.1725Z" fill="#3CB4C1"/>
<path d="M16.002 14.8372L16.6869 15.3166L17.9396 15.8297C18.3043 15.9979 19.9078 16.5389 18.7052 17.1613C18.2895 17.408 17.922 17.5492 17.6028 17.5847C17.1796 17.6333 17.0265 17.8631 17.1434 18.2743C17.3216 18.9098 17.6148 19.3565 18.0231 19.6144C18.7943 20.1022 21.1996 19.5415 22.1294 19.3873C22.1842 19.3787 22.2341 19.3632 22.2749 19.3422C22.3156 19.3212 22.3459 19.2953 22.3632 19.2668L22.8393 18.4762C22.8584 18.4438 22.8636 18.4034 22.854 18.3617C22.8444 18.3199 22.8205 18.2792 22.7864 18.2463C22.2983 17.7846 21.7062 17.4847 21.0103 17.3464C20.9633 17.3371 20.9204 17.3179 20.8861 17.2907C20.8518 17.2636 20.8273 17.2295 20.8154 17.1922C20.7412 16.9604 20.9425 16.8959 21.4195 16.9987L23.0703 17.0436C23.1702 17.0454 23.2585 17.0688 23.3237 17.1109L23.9361 17.5006C22.7947 20.1882 20.9472 22.1983 18.3934 23.5309C18.1002 22.8338 18.1122 22.1796 18.4296 21.5685C18.7395 20.9704 18.631 20.5601 18.1039 20.3377C17.5081 20.1714 17.2436 19.7882 17.3105 19.1883C17.3211 19.095 17.2981 19.0053 17.2464 18.9388C16.4224 17.8454 16.3472 16.1549 16.002 14.8372Z" fill="#66CBDC"/>
<path d="M6.94321 15.7371C7.23459 15.6998 7.17148 15.9166 6.7539 16.3876C6.73909 16.4039 6.72841 16.4237 6.72282 16.4451C6.71723 16.4665 6.7169 16.4889 6.72186 16.5102C6.72682 16.5316 6.73691 16.5513 6.75124 16.5675C6.76557 16.5838 6.7837 16.5961 6.80401 16.6034L8.17926 17.1165L8.11523 17.851C6.89402 17.7949 5.78974 17.4202 4.80238 16.7268C5.41113 16.0745 6.12474 15.7446 6.94321 15.7371Z" fill="#66CBDC"/>
<path d="M17.9396 15.8297C18.4333 15.8988 18.8889 16.0745 19.3065 16.3567C19.3863 16.4115 19.4747 16.4409 19.5598 16.4408L20.5871 16.4548C20.6276 16.4557 20.6692 16.4472 20.7094 16.4298C20.7495 16.4125 20.7875 16.3867 20.821 16.3539C21.0047 16.1782 21.2274 16.0829 21.4891 16.068C22.4764 16.0138 23.4378 16.1521 24.3732 16.4829L23.9361 17.5006L23.3237 17.1109C23.2585 17.0688 23.1702 17.0454 23.0703 17.0436L21.4195 16.9987C21.0966 16.9146 20.7662 16.9034 20.4284 16.9651C20.4127 16.9678 20.3978 16.9742 20.3848 16.9838C20.3718 16.9935 20.361 17.0062 20.3531 17.0211C20.3451 17.036 20.3403 17.0527 20.3389 17.0701C20.3375 17.0875 20.3395 17.1053 20.3449 17.1221C20.4191 17.352 20.3792 17.5678 20.2252 17.7697C20.0619 17.9828 19.648 17.9856 18.9836 17.7781C18.6532 17.6753 18.5604 17.4697 18.7052 17.1613C19.9078 16.5389 18.3043 15.9979 17.9396 15.8297Z" fill="#357298"/>
<path d="M4.80238 16.7268C5.78974 17.4202 6.89402 17.7949 8.11523 17.851L7.73383 19.9396C6.52191 20.4872 5.16893 20.4901 3.6749 19.948C3.34826 19.8303 3.04574 19.9527 2.76735 20.3153C1.86722 19.2182 1.18888 18.008 0.73232 16.6847C1.11464 16.2605 1.4682 16.0427 1.79299 16.0315C2.7191 15.9997 3.72223 16.2315 4.80238 16.7268Z" fill="#41A1B7"/>
<path d="M21.4195 16.9987C20.9425 16.8959 20.7412 16.9604 20.8154 17.1922C20.8273 17.2295 20.8518 17.2636 20.8861 17.2907C20.9204 17.3179 20.9633 17.3371 21.0103 17.3464C21.7062 17.4847 22.2983 17.7846 22.7864 18.2463C22.8205 18.2792 22.8444 18.3199 22.854 18.3617C22.8636 18.4034 22.8584 18.4438 22.8393 18.4762L22.3632 19.2668C22.3459 19.2953 22.3156 19.3212 22.2749 19.3422C22.2341 19.3632 22.1842 19.3787 22.1294 19.3873C21.1996 19.5415 18.7943 20.1022 18.0231 19.6144C17.6148 19.3565 17.3216 18.9098 17.1434 18.2743C17.0265 17.8631 17.1796 17.6333 17.6028 17.5847C17.922 17.5492 18.2895 17.408 18.7052 17.1613C18.5604 17.4697 18.6532 17.6753 18.9836 17.7781C19.648 17.9856 20.0619 17.9828 20.2252 17.7697C20.3792 17.5678 20.4191 17.352 20.3449 17.1221C20.3395 17.1053 20.3375 17.0875 20.3389 17.0701C20.3403 17.0527 20.3451 17.036 20.3531 17.0211C20.361 17.0062 20.3718 16.9935 20.3848 16.9838C20.3978 16.9742 20.4127 16.9678 20.4284 16.9651C20.7662 16.9034 21.0966 16.9146 21.4195 16.9987Z" fill="#3CB4C1"/>
<path d="M14.3484 20.5256C14.4263 21.9797 14.6388 23.4197 14.9859 24.8458L13.7471 25H10.9632L10.2839 24.7785C10.6829 22.5544 10.9474 20.3125 11.0773 18.0529C11.0809 17.9844 11.1111 17.9201 11.1615 17.8735C11.2119 17.8269 11.2786 17.8017 11.3473 17.8033L13.9392 17.8762C13.9766 17.8768 14.0125 17.8917 14.0402 17.9181C14.0679 17.9444 14.0854 17.9804 14.0895 18.0192L14.3484 20.5256Z" fill="#DFFEFB"/>
<path d="M7.73383 19.9396C7.72827 20.1359 7.62805 20.3022 7.43317 20.4387C7.39907 20.4623 7.37229 20.4946 7.35601 20.5319C7.33973 20.5691 7.33463 20.6098 7.3413 20.6489C7.48421 21.4227 7.4573 22.203 7.26057 22.9899C7.2517 23.0248 7.22929 23.0557 7.19696 23.0775C7.16463 23.0994 7.12427 23.111 7.0824 23.1104C6.82628 23.1067 6.64069 23.2188 6.52562 23.4468C5.03345 22.6974 3.78069 21.6535 2.76735 20.3153C3.04574 19.9527 3.34826 19.8303 3.6749 19.948C5.16893 20.4901 6.52191 20.4872 7.73383 19.9396Z" fill="#6FD8E2"/>
<path d="M18.1039 20.3377C18.631 20.5601 18.7395 20.9704 18.4296 21.5685C18.1122 22.1796 18.1002 22.8338 18.3934 23.5309C17.3522 24.1047 16.6033 24.4365 16.1468 24.5262C15.5399 24.6458 15.1529 24.7524 14.9859 24.8458C14.6388 23.4197 14.4263 21.9797 14.3484 20.5256L18.1039 20.3377Z" fill="#6EEEF5"/>
</svg>
