<svg width="36" height="25" viewBox="0 0 36 25" fill="none" xmlns="http://www.w3.org/2000/svg">
<path d="M10.0112 5.19102L8.38573 5.18636L6.20022 3.72392C6.18822 3.71589 6.17826 3.70514 6.17119 3.69256C6.16412 3.67997 6.16013 3.66593 6.15956 3.65158C6.159 3.63723 6.16186 3.623 6.16792 3.61007C6.17398 3.59713 6.18306 3.58587 6.1944 3.57721C6.46803 3.36879 7.34828 3.00435 6.84062 2.54908C6.04963 1.8396 5.55594 1.42082 5.35955 1.29274C4.77621 0.91432 4.33608 0.346112 3.72363 0.0608434C3.68637 0.0429898 3.68637 0.0259125 3.72363 0.00961148C3.95999 -0.0963454 5.86605 0.705899 6.24447 0.836308C7.43794 1.24849 8.47305 1.85862 9.51982 2.49086C9.60287 2.54054 9.59977 2.5844 9.5105 2.62244C9.16818 2.76565 7.97121 3.20229 8.64771 3.767C8.93181 4.00337 9.12277 4.30145 9.39057 4.53898C9.60947 4.73148 9.81634 4.94883 10.0112 5.19102Z" fill="#230B0C"/>
<path d="M28.4349 1.03425C28.4034 1.00165 28.3766 0.99699 28.3405 1.02959C27.0636 2.18231 25.7266 3.26012 24.3293 4.26302L22.0646 5.63347C21.7328 5.70683 21.8027 5.34937 21.5989 5.39595C23.4766 4.25021 25.1723 3.15339 26.686 2.10546C27.1083 1.81359 27.5309 1.45497 27.954 1.02959C28.1019 0.880553 28.3277 0.775761 28.4349 1.03425Z" fill="black"/>
<path d="M28.4349 1.03425L28.3766 1.26712L26.4752 5.03266L26.2494 5.28533C26.2359 5.30059 26.2212 5.313 26.2063 5.32167C26.1914 5.33034 26.1767 5.33503 26.1632 5.3354L24.4667 5.41341C24.4493 5.15492 24.7427 4.66007 24.6926 4.54713C24.6899 4.54079 24.6855 4.53533 24.68 4.53119C24.6744 4.52704 24.6677 4.52435 24.6606 4.52332C24.6534 4.5223 24.6459 4.52297 24.6387 4.52529C24.6315 4.52761 24.6248 4.5315 24.6192 4.53665C24.3514 4.77883 24.2304 5.10951 23.9381 5.29581C23.413 5.63115 22.8238 5.85936 22.4675 6.41942L22.0192 5.84772C22.0063 5.83191 21.997 5.81423 21.9921 5.79619C21.9873 5.77815 21.987 5.76028 21.9913 5.74409C22.0022 5.7014 22.0266 5.66452 22.0646 5.63347C22.8843 5.31095 23.746 4.83007 24.3293 4.26302C25.7266 3.26012 27.0636 2.18231 28.3405 1.02959C28.3766 0.99699 28.4034 1.00165 28.4349 1.03425Z" fill="#EC3C3A"/>
<path d="M28.3766 1.26712C28.2369 2.06704 27.8969 2.67833 27.678 3.4305C27.5057 4.022 27.0504 4.4924 26.7756 5.05129C26.6476 5.08079 26.5474 5.07458 26.4752 5.03266L28.3766 1.26712Z" fill="#1A130B"/>
<path d="M19.4693 2.46059H19.4495C19.4495 2.42411 19.4355 2.40315 19.4076 2.39772C19.394 2.39498 19.3787 2.39899 19.3641 2.40912C19.3496 2.41924 19.3366 2.4349 19.3272 2.4536C18.617 3.8718 16.4338 6.97365 14.5184 5.43553C13.7197 4.79436 13.0591 4.06702 12.5367 3.25352C12.5072 3.2085 12.4816 3.19181 12.4598 3.20345C12.4489 3.20931 12.4419 3.22205 12.4402 3.23912C12.4384 3.25618 12.4421 3.2763 12.4505 3.29544C12.8495 4.17958 13.1515 5.11106 13.3564 6.0899C13.2198 6.152 13.0835 6.15394 12.9477 6.09573C12.9321 6.08883 12.9179 6.07784 12.9062 6.06355C12.8945 6.04925 12.8856 6.03201 12.8802 6.01306C12.8196 5.79105 12.7245 5.59544 12.5949 5.42622C12.5274 4.85879 12.3748 4.32008 12.1373 3.81009C11.8264 3.14174 11.6716 2.68298 11.4981 2.06704C11.4872 2.02978 11.5008 2.01619 11.5388 2.02628C12.3026 2.23005 12.8965 3.09633 13.4577 3.63776C14.5231 4.66473 15.3591 6.16675 16.9764 4.59137C17.7332 3.8555 18.4435 2.70627 19.4122 1.71307C19.4425 1.68202 19.458 1.68784 19.4588 1.73054L19.4693 2.46059Z" fill="black"/>
<path d="M32.4857 5.60902C32.8567 5.32647 32.9425 4.98648 32.743 4.58904C32.7354 4.57334 32.724 4.55937 32.7097 4.54811C32.6955 4.53685 32.6786 4.52857 32.6603 4.52384C32.2004 4.4074 32.049 4.09303 31.744 3.79844C31.6322 3.68977 31.5383 3.56402 31.4622 3.42119L32.4624 2.75867C32.4723 2.75216 32.4836 2.74826 32.4954 2.74728C32.5073 2.7463 32.5194 2.74826 32.5307 2.75301C32.542 2.75777 32.5523 2.76518 32.5606 2.77465C32.569 2.78412 32.5752 2.7954 32.5788 2.80757L32.9572 4.11515C33.0069 4.2867 33.1175 4.33444 33.2891 4.25836C33.4071 4.20636 33.5258 4.09885 33.6454 3.93584C34.2772 3.07033 34.7892 2.44895 35.1812 2.07169C35.2968 1.96069 35.4311 1.95953 35.584 2.0682C35.59 2.07242 35.5951 2.07791 35.5987 2.08429C35.6024 2.09068 35.6046 2.09781 35.6053 2.10521C35.606 2.11261 35.605 2.1201 35.6026 2.12718C35.6001 2.13425 35.5962 2.14074 35.591 2.14621C34.5547 3.28263 33.6628 4.64959 32.8594 5.93388C32.8553 5.94055 32.8499 5.94635 32.8435 5.95092C32.8372 5.9555 32.83 5.95875 32.8225 5.96049C32.815 5.96223 32.8073 5.96242 32.7998 5.96105C32.7924 5.95968 32.7853 5.95677 32.7791 5.95251C32.6487 5.86479 32.5509 5.7503 32.4857 5.60902Z" fill="#810D2F"/>
<path d="M19.4495 2.46059C19.2562 3.37345 19.1883 4.29524 19.2457 5.22595C18.8545 5.44951 18.4342 5.50695 17.9847 5.39827C17.9661 5.39362 17.9288 5.39439 17.8729 5.4006L17.5609 5.43553C17.5476 5.43684 17.5346 5.44112 17.5232 5.44801C17.5117 5.4549 17.5022 5.46417 17.4954 5.47501C17.4886 5.48585 17.4848 5.49791 17.4842 5.51012C17.4836 5.52233 17.4864 5.5343 17.4922 5.54498L17.6575 5.8547C17.6645 5.8681 17.668 5.88299 17.6678 5.89807C17.6677 5.91316 17.6638 5.92796 17.6565 5.94119C17.6493 5.95442 17.6389 5.96566 17.6263 5.97393C17.6137 5.9822 17.5992 5.98724 17.5842 5.9886C16.2836 6.11086 15.2438 6.1784 13.3564 6.0899C13.1515 5.11106 12.8495 4.17958 12.4505 3.29544C12.4421 3.2763 12.4384 3.25618 12.4402 3.23912C12.4419 3.22205 12.4489 3.20931 12.4598 3.20345C12.4816 3.19181 12.5072 3.2085 12.5367 3.25352C13.0591 4.06702 13.7197 4.79436 14.5184 5.43553C16.4338 6.97365 18.617 3.8718 19.3272 2.4536C19.3366 2.4349 19.3496 2.41924 19.3641 2.40912C19.3787 2.39899 19.394 2.39498 19.4076 2.39772C19.4355 2.40315 19.4495 2.42411 19.4495 2.46059Z" fill="#F93A38"/>
<path d="M19.4495 2.46059H19.4693L19.8232 4.91041L19.2457 5.22595C19.1883 4.29524 19.2562 3.37345 19.4495 2.46059Z" fill="#080203"/>
<path d="M31.4622 3.42119C31.5383 3.56402 31.6322 3.68977 31.744 3.79844C32.049 4.09303 32.2004 4.4074 32.6603 4.52384C32.6786 4.52857 32.6955 4.53685 32.7097 4.54811C32.724 4.55937 32.7354 4.57334 32.743 4.58904C32.9425 4.98648 32.8567 5.32647 32.4857 5.60902L32.2144 5.16889C32.2056 5.15429 32.1924 5.14317 32.1772 5.13777C32.1621 5.13237 32.1463 5.13309 32.1329 5.13979L30.7729 5.80813C30.7799 5.69014 30.7228 5.65831 30.6017 5.71265C30.2912 5.85237 29.9202 5.96493 29.4886 6.05032C29.3892 6.06972 29.3826 6.1062 29.4688 6.15977C29.5208 6.19237 29.541 6.24244 29.5294 6.30997C29.526 6.32987 29.5305 6.35031 29.5421 6.36686C29.5536 6.38342 29.5712 6.39477 29.5911 6.39846C29.7339 6.42408 29.8352 6.46172 29.895 6.5114L29.0275 7.19255C28.9142 7.25776 28.83 7.22244 28.7749 7.0866C28.7681 7.07003 28.7574 7.05564 28.7439 7.04498C28.7303 7.03431 28.7145 7.02777 28.698 7.02605C28.4244 6.99927 28.2183 7.01091 27.9714 6.85605C27.7681 6.72953 27.5554 6.62124 27.3334 6.5312L28.3452 5.4169C28.4744 5.2993 28.6165 5.31211 28.7586 5.20732C29.6318 4.56925 30.533 3.97387 31.4622 3.42119Z" fill="#55081D"/>
<path d="M21.5989 5.39595C21.8027 5.34937 21.7328 5.70683 22.0646 5.63347C22.0266 5.66452 22.0022 5.7014 21.9913 5.74409C21.987 5.76028 21.9873 5.77815 21.9921 5.79619C21.997 5.81423 22.0063 5.83191 22.0192 5.84772L22.4675 6.41942L22.8098 6.79318C22.8148 6.79862 22.821 6.80292 22.8278 6.80579C22.8347 6.80865 22.8421 6.81002 22.8496 6.8098C22.857 6.80958 22.8644 6.80777 22.8712 6.80451C22.878 6.80124 22.8841 6.79659 22.889 6.79085C23.3548 6.25602 23.8807 5.79687 24.4667 5.41341L26.1632 5.3354C26.1767 5.33503 26.1914 5.33034 26.2063 5.32167C26.2212 5.313 26.2359 5.30059 26.2494 5.28533L26.4752 5.03266C26.5474 5.07458 26.6476 5.08079 26.7756 5.05129L26.5358 5.34937C26.5109 5.3812 26.5172 5.3975 26.5544 5.39827L28.3452 5.4169L27.3334 6.5312L26.5521 7.26358C26.4698 7.06564 26.3246 6.9492 26.1166 6.91427C26.1063 6.91267 26.0967 6.90572 26.0897 6.89464C26.0827 6.88356 26.0786 6.86907 26.0782 6.85372C26.0774 6.82733 26.0592 6.80715 26.0235 6.79318L26.913 5.86635C26.941 5.83763 26.9352 5.82327 26.8956 5.82327L24.9942 5.81977C24.9765 5.81978 24.9586 5.82358 24.9416 5.83098C24.9247 5.83837 24.9089 5.8492 24.8952 5.86285L23.1568 7.56864C23.1467 7.57857 23.1347 7.58635 23.1215 7.59147C23.1083 7.5966 23.0943 7.59896 23.0803 7.59841C23.0662 7.59787 23.0526 7.59442 23.0401 7.58829C23.0276 7.58217 23.0166 7.57349 23.0078 7.56282L21.5814 5.87333C21.5693 5.85891 21.5547 5.84706 21.5385 5.83847C21.5223 5.82988 21.5048 5.82471 21.4871 5.82327C20.9981 5.78989 20.5079 5.79843 20.0165 5.84888C19.9813 5.85268 19.9472 5.87095 19.921 5.90011L19.382 6.50209C19.3706 6.51454 19.364 6.53035 19.3631 6.5466C19.3622 6.56286 19.3673 6.57847 19.3773 6.59058L21.3043 8.91232L21.486 9.16265C21.4954 9.17585 21.499 9.19261 21.4963 9.20977C21.4935 9.22692 21.4844 9.2433 21.4708 9.2558L21.0272 9.66915C20.7384 9.57522 20.447 9.55233 20.1528 9.60045C20.2218 9.55388 20.2657 9.49255 20.2843 9.41648C20.2879 9.401 20.2871 9.38385 20.2818 9.36644C20.2766 9.34903 20.267 9.33186 20.2541 9.31635L18.6181 7.34741C18.6134 7.34172 18.6076 7.33703 18.6011 7.33362C18.5945 7.33022 18.5875 7.32817 18.5802 7.32763C18.573 7.32708 18.5658 7.32804 18.5591 7.33044C18.5524 7.33285 18.5463 7.33664 18.5413 7.34159C17.5826 8.30025 16.5949 9.22514 15.578 10.1163C15.6005 9.98586 15.5601 9.91794 15.4569 9.9125C15.2054 9.89931 15.0016 9.84924 14.8456 9.7623L18.1186 6.80016C18.1396 6.78147 18.154 6.75728 18.1592 6.73231C18.1644 6.70733 18.1599 6.68337 18.1466 6.6651L17.9475 6.39613C17.9385 6.38372 17.9241 6.37455 17.906 6.36978C17.888 6.36501 17.8672 6.36486 17.8462 6.36935C16.6271 6.63599 14.9783 6.52305 13.3657 6.50558C12.3399 6.4951 11.3805 7.58727 10.7459 8.34061C10.7389 8.28705 10.7226 8.27541 10.697 8.30568C10.6894 8.31435 10.6807 8.32127 10.6714 8.32592C10.6621 8.33056 10.6525 8.3328 10.6434 8.33246C10.5542 8.32703 10.5243 8.3018 10.5538 8.25678C10.5657 8.23805 10.575 8.21959 10.5804 8.20394C10.5859 8.18829 10.5871 8.17623 10.584 8.16945C10.5771 8.1516 10.5615 8.13918 10.5375 8.13219C10.9768 7.557 11.4593 7.02139 11.9848 6.52537C12.6624 5.88731 12.4854 5.57642 11.6005 5.57526C9.40454 5.5737 7.20856 5.57487 5.01257 5.57875C4.97143 5.57875 4.96522 5.59272 4.99394 5.62067L5.85557 6.47764C5.65142 6.5933 5.43174 6.64686 5.19654 6.63832C4.96367 6.63017 4.78785 6.70352 4.57012 6.74428L3.09604 5.25506C3.058 5.21702 3.06615 5.19762 3.12049 5.19684L8.38573 5.18636L10.0112 5.19102C10.6725 5.13358 11.3296 5.13785 11.9824 5.20383C12.2246 5.22944 12.376 5.32375 12.5949 5.42622C12.7245 5.59544 12.8196 5.79105 12.8802 6.01306C12.8856 6.03201 12.8945 6.04925 12.9062 6.06355C12.9179 6.07784 12.9321 6.08883 12.9477 6.09573C13.0835 6.15394 13.2198 6.152 13.3564 6.0899C15.2438 6.1784 16.2836 6.11086 17.5842 5.9886C17.5992 5.98724 17.6137 5.9822 17.6263 5.97393C17.6389 5.96566 17.6493 5.95442 17.6565 5.94119C17.6638 5.92796 17.6677 5.91316 17.6678 5.89807C17.668 5.88299 17.6645 5.8681 17.6575 5.8547L17.4922 5.54498C17.4864 5.5343 17.4836 5.52233 17.4842 5.51012C17.4848 5.49791 17.4886 5.48585 17.4954 5.47501C17.5022 5.46417 17.5117 5.4549 17.5232 5.44801C17.5346 5.44112 17.5476 5.43684 17.5609 5.43553L17.8729 5.4006C17.9288 5.39439 17.9661 5.39362 17.9847 5.39827C18.4342 5.50695 18.8545 5.44951 19.2457 5.22595L19.8232 4.91041C20.2921 4.69073 20.7524 4.45475 21.2042 4.20248C21.2973 4.15008 21.4603 4.16987 21.3055 4.3224C21.0183 4.60651 20.7559 4.91274 20.5184 5.24109C20.5145 5.24652 20.5119 5.25282 20.5109 5.25946C20.5099 5.26611 20.5105 5.27292 20.5127 5.27937C20.5148 5.28581 20.5184 5.2917 20.5233 5.29658C20.5281 5.30145 20.534 5.30518 20.5405 5.30745C20.889 5.42622 21.2418 5.45572 21.5989 5.39595Z" fill="#932E27"/>
<path d="M22.0646 5.63347C22.8843 5.31095 23.746 4.83007 24.3293 4.26302L22.0646 5.63347Z" fill="#822A22"/>
<path d="M24.4667 5.41341C23.8807 5.79687 23.3548 6.25602 22.889 6.79085C22.8841 6.79659 22.878 6.80124 22.8712 6.80451C22.8644 6.80777 22.857 6.80958 22.8496 6.8098C22.8421 6.81002 22.8347 6.80865 22.8278 6.80579C22.821 6.80292 22.8148 6.79862 22.8098 6.79318L22.4675 6.41942C22.8238 5.85936 23.413 5.63115 23.9381 5.29581C24.2304 5.10951 24.3514 4.77883 24.6192 4.53665C24.6248 4.5315 24.6315 4.52761 24.6387 4.52529C24.6459 4.52297 24.6534 4.5223 24.6606 4.52332C24.6677 4.52435 24.6744 4.52704 24.68 4.53119C24.6855 4.53533 24.6899 4.54079 24.6926 4.54713C24.7427 4.66007 24.4493 5.15492 24.4667 5.41341Z" fill="#FB964B"/>
<path d="M10.5375 8.13219C10.2557 8.46675 10.0116 8.82732 9.80508 9.21388L8.02128 9.11608C8.19749 8.71243 8.39427 8.3379 8.61161 7.99247C9.13092 7.1681 7.18876 7.40912 6.87089 7.41145C6.8328 7.41142 6.79689 7.39722 6.77076 7.37187L5.85557 6.47764L4.99394 5.62067C4.96522 5.59272 4.97143 5.57875 5.01257 5.57875C7.20856 5.57487 9.40454 5.5737 11.6005 5.57526C12.4854 5.57642 12.6624 5.88731 11.9848 6.52537C11.4593 7.02139 10.9768 7.557 10.5375 8.13219Z" fill="#FDFC80"/>
<path d="M30.7729 5.80813C30.5447 6.12173 30.252 6.35615 29.895 6.5114C29.8352 6.46172 29.7339 6.42408 29.5911 6.39846C29.5712 6.39477 29.5536 6.38342 29.5421 6.36686C29.5305 6.35031 29.526 6.32987 29.5294 6.30997C29.541 6.24244 29.5208 6.19237 29.4688 6.15977C29.3826 6.1062 29.3892 6.06972 29.4886 6.05032C29.9202 5.96493 30.2912 5.85237 30.6017 5.71265C30.7228 5.65831 30.7799 5.69014 30.7729 5.80813Z" fill="#86191C"/>
<path d="M26.0235 6.79318C25.3753 7.43668 24.7252 8.07863 24.0732 8.71903C24.0421 8.7493 24.0526 8.80403 24.1046 8.88321C23.1708 8.93832 22.2374 8.94802 21.3043 8.91232L19.3773 6.59058C19.3673 6.57847 19.3622 6.56286 19.3631 6.5466C19.364 6.53035 19.3706 6.51454 19.382 6.50209L19.921 5.90011C19.9472 5.87095 19.9813 5.85268 20.0165 5.84888C20.5079 5.79843 20.9981 5.78989 21.4871 5.82327C21.5048 5.82471 21.5223 5.82988 21.5385 5.83847C21.5547 5.84706 21.5693 5.85891 21.5814 5.87333L23.0078 7.56282C23.0166 7.57349 23.0276 7.58217 23.0401 7.58829C23.0526 7.59442 23.0662 7.59787 23.0803 7.59841C23.0943 7.59896 23.1083 7.5966 23.1215 7.59147C23.1347 7.58635 23.1467 7.57857 23.1568 7.56864L24.8952 5.86285C24.9089 5.8492 24.9247 5.83837 24.9416 5.83098C24.9586 5.82358 24.9765 5.81978 24.9942 5.81977L26.8956 5.82327C26.9352 5.82327 26.941 5.83763 26.913 5.86635L26.0235 6.79318Z" fill="#FEFC7A"/>
<path d="M14.8456 9.7623L14.487 10.0569C14.4607 10.0787 14.4231 10.0911 14.381 10.0918L12.0395 10.1186C12.3597 9.81702 13.7022 8.66431 12.8569 8.5013C11.8765 8.31345 10.9772 8.5207 10.159 9.12306C10.1148 9.15567 10.1094 9.15062 10.1427 9.10793L10.7459 8.34061C11.3805 7.58727 12.3399 6.4951 13.3657 6.50558C14.9783 6.52305 16.6271 6.63599 17.8462 6.36935C17.8672 6.36486 17.888 6.36501 17.906 6.36978C17.9241 6.37455 17.9385 6.38372 17.9475 6.39613L18.1466 6.6651C18.1599 6.68337 18.1644 6.70733 18.1592 6.73231C18.154 6.75728 18.1396 6.78147 18.1186 6.80016L14.8456 9.7623Z" fill="#FEFC74"/>
<path d="M5.85557 6.47764L6.77076 7.37187C6.79689 7.39722 6.8328 7.41142 6.87089 7.41145C7.18876 7.40912 9.13092 7.1681 8.61161 7.99247C8.39427 8.3379 8.19749 8.71243 8.02128 9.11608L7.95142 9.21388L7.38554 9.10443C7.37053 9.10159 7.3566 9.09465 7.34529 9.08438C7.33399 9.0741 7.32575 9.06089 7.3215 9.04622L7.2528 8.80636L7.44143 8.44657C7.44612 8.43782 7.44855 8.428 7.44847 8.41807C7.44839 8.40815 7.44581 8.39846 7.44099 8.38999C7.43616 8.38151 7.42926 8.37454 7.42096 8.36976C7.41266 8.36498 7.40326 8.36256 7.39369 8.36274L6.25844 8.37205C6.22044 8.37202 6.18443 8.35737 6.15831 8.3313L4.57012 6.74428C4.78785 6.70352 4.96367 6.63017 5.19654 6.63832C5.43174 6.64686 5.65142 6.5933 5.85557 6.47764Z" fill="#822A22"/>
<path d="M27.3334 6.5312C27.5554 6.62124 27.7681 6.72953 27.9714 6.85605C28.2183 7.01091 28.4244 6.99927 28.698 7.02605C28.7145 7.02777 28.7303 7.03431 28.7439 7.04498C28.7574 7.05564 28.7681 7.07003 28.7749 7.0866C28.83 7.22244 28.9142 7.25776 29.0275 7.19255C29.0081 7.5015 29.1374 7.69284 29.4153 7.76658C29.4211 7.76803 29.4265 7.77094 29.4309 7.775C29.4354 7.77907 29.4387 7.78416 29.4406 7.78979C29.4424 7.79542 29.4428 7.80139 29.4416 7.80712C29.4405 7.81284 29.4378 7.81813 29.4339 7.82247C29.1894 8.08872 28.9196 8.32004 28.6246 8.51643C27.2099 9.45724 28.8435 10.2898 29.605 10.5983C30.4387 10.9348 31.2549 11.3004 32.0851 11.6462C32.1201 11.661 32.1181 11.6711 32.0793 11.6765L29.6237 12.0398C29.7611 11.7382 30.3223 11.7103 30.625 11.6218L30.9813 11.6276C30.9963 11.628 31.0105 11.6255 31.0228 11.6204C31.035 11.6153 31.0448 11.6078 31.0512 11.5985C31.0605 11.5845 31.0636 11.5698 31.0605 11.5542C31.0581 11.5411 31.0487 11.5282 31.0334 11.5176C31.0181 11.5069 30.9978 11.499 30.9755 11.4949C30.4244 11.3932 29.8888 11.2302 29.3687 11.0058C28.5195 10.4858 27.6396 10.0122 26.7291 9.58532C26.684 9.56436 26.6107 9.47393 26.509 9.31402C27.1533 8.73029 27.7882 8.32082 28.4139 8.08562C28.6398 8.00101 28.8001 7.92222 28.8948 7.84925C28.9289 7.82364 28.9247 7.80617 28.882 7.79686L27.8573 7.57912C27.4615 7.41689 27.0539 7.36837 26.6348 7.43358L26.4601 7.43358L26.5521 7.26358L27.3334 6.5312Z" fill="#080203"/>
<path d="M26.0235 6.79318C26.0592 6.80715 26.0774 6.82733 26.0782 6.85372C26.0786 6.86907 26.0827 6.88356 26.0897 6.89464C26.0967 6.90572 26.1063 6.91267 26.1166 6.91427C26.3246 6.9492 26.4698 7.06564 26.5521 7.26358L26.4601 7.43358C26.2296 7.45803 25.0489 8.74698 24.7927 9.00546C24.7692 9.02883 24.7555 9.06033 24.7547 9.09334C24.7538 9.12635 24.7658 9.1583 24.7881 9.18245L25.2957 9.73319L25.1164 10.0289L24.1046 8.88321C24.0526 8.80403 24.0421 8.7493 24.0732 8.71903C24.7252 8.07863 25.3753 7.43668 26.0235 6.79318Z" fill="#822A22"/>
<path d="M20.1528 9.60045L17.2488 12.2389C17.2432 12.244 17.2366 12.2479 17.2295 12.2503C17.2224 12.2527 17.2149 12.2537 17.2076 12.253C17.2003 12.2523 17.1933 12.2501 17.1872 12.2465C17.181 12.2428 17.1758 12.2379 17.172 12.2319L16.485 11.2038C16.4742 11.1875 16.4605 11.174 16.4452 11.1643C16.4298 11.1546 16.4132 11.149 16.3965 11.1479L14.7362 11.0396C14.6166 11.0318 14.6007 10.9888 14.6884 10.9104L15.578 10.1163C16.5949 9.22514 17.5826 8.30025 18.5413 7.34159C18.5463 7.33664 18.5524 7.33285 18.5591 7.33044C18.5658 7.32804 18.573 7.32708 18.5802 7.32763C18.5875 7.32817 18.5945 7.33022 18.6011 7.33362C18.6076 7.33703 18.6134 7.34172 18.6181 7.34741L20.2541 9.31635C20.267 9.33186 20.2766 9.34903 20.2818 9.36644C20.2871 9.38385 20.2879 9.401 20.2843 9.41648C20.2657 9.49255 20.2218 9.55388 20.1528 9.60045Z" fill="#EF3735"/>
<path d="M27.8573 7.57912C27.4436 7.58067 27.0361 7.53216 26.6348 7.43358C27.0539 7.36837 27.4615 7.41689 27.8573 7.57912Z" fill="#822A22"/>
<path d="M26.4601 7.43358L26.6348 7.43358C27.0361 7.53216 27.4436 7.58067 27.8573 7.57912L28.882 7.79686C28.9247 7.80617 28.9289 7.82364 28.8948 7.84925C28.8001 7.92222 28.6398 8.00101 28.4139 8.08562C27.7882 8.32082 27.1533 8.73029 26.509 9.31402L26.4426 10.6891C26.4341 10.8661 26.3704 10.891 26.2517 10.7636L25.2957 9.73319L24.7881 9.18245C24.7658 9.1583 24.7538 9.12635 24.7547 9.09334C24.7555 9.06033 24.7692 9.02883 24.7927 9.00546C25.0489 8.74698 26.2296 7.45803 26.4601 7.43358Z" fill="#FC3433"/>
<path d="M10.5375 8.13219C10.5615 8.13918 10.5771 8.1516 10.584 8.16945C10.5871 8.17623 10.5859 8.18829 10.5804 8.20394C10.575 8.21959 10.5657 8.23805 10.5538 8.25678C10.5243 8.3018 10.5542 8.32703 10.6434 8.33246C10.6525 8.3328 10.6621 8.33056 10.6714 8.32592C10.6807 8.32127 10.6894 8.31435 10.697 8.30568C10.7226 8.27541 10.7389 8.28705 10.7459 8.34061L10.1427 9.10793C10.1094 9.15062 10.1148 9.15567 10.159 9.12306C10.9772 8.5207 11.8765 8.31345 12.8569 8.5013C13.7022 8.66431 12.3597 9.81702 12.0395 10.1186C11.9758 9.80111 11.7566 9.67264 11.3816 9.73319L11.6494 9.4945C11.6758 9.47121 11.6723 9.45918 11.639 9.4584C11.4441 9.45452 11.2745 9.51235 11.1301 9.63189C11.0991 9.65751 11.0653 9.67381 11.0288 9.68079C10.7936 9.72349 10.5732 9.81043 10.3675 9.94161C10.3294 9.84846 10.2654 9.82362 10.1754 9.86709C10.1596 9.87463 10.1424 9.87826 10.1253 9.87765C10.1082 9.87704 10.0918 9.87221 10.0775 9.8636C9.97508 9.80305 9.86369 9.7852 9.74337 9.81004C9.72931 9.81287 9.71425 9.81072 9.70013 9.80387C9.68601 9.79702 9.67349 9.78578 9.6642 9.77161C9.63159 9.72194 9.59433 9.74949 9.55242 9.85428L9.80508 9.21388C10.0116 8.82732 10.2557 8.46675 10.5375 8.13219Z" fill="#6F261C"/>
<path d="M7.2528 8.80636L7.3215 9.04622C7.32575 9.06089 7.33399 9.0741 7.34529 9.08438C7.3566 9.09465 7.37053 9.10159 7.38554 9.10443L7.95142 9.21388C7.80161 9.63073 7.70807 10.0619 7.67081 10.5075C7.66962 10.5245 7.6626 10.5404 7.65116 10.5521C7.63971 10.5638 7.62468 10.5703 7.6091 10.5704L7.01295 10.5774C6.96334 10.5777 6.91607 10.5882 6.87584 10.6078C6.8356 10.6274 6.80379 10.6554 6.78357 10.6891L6.34111 11.4297C6.33801 11.4346 6.33641 11.4403 6.33648 11.4462C6.33654 11.452 6.33827 11.4578 6.34147 11.4629C6.34468 11.468 6.34926 11.4723 6.35472 11.4752C6.36019 11.4782 6.36634 11.4797 6.37255 11.4797L7.77211 11.5182C8.01895 12.1811 8.34498 12.8017 8.75017 13.38C8.75432 13.3858 8.75715 13.3924 8.75846 13.3994C8.75977 13.4064 8.75952 13.4135 8.75773 13.4204C8.75594 13.4272 8.75266 13.4335 8.74813 13.4388C8.7436 13.4441 8.73793 13.4482 8.73154 13.451C8.00498 13.7824 7.32616 14.1927 6.69508 14.6817L6.59261 14.4803C6.58456 14.4645 6.57352 14.4512 6.56075 14.442C6.54798 14.4327 6.53401 14.4278 6.52042 14.4279C6.35275 14.431 6.29298 14.3425 6.34111 14.1624C6.67877 13.8806 7.0374 13.652 7.41698 13.4766C7.42961 13.4707 7.44084 13.4622 7.45 13.4515C7.45917 13.4409 7.46608 13.4283 7.47032 13.4146C7.47456 13.4009 7.47604 13.3863 7.47468 13.3718C7.47331 13.3572 7.46913 13.343 7.46239 13.3299L7.09329 12.6138C7.06701 12.5633 7.02974 12.521 6.98558 12.4914C6.94141 12.4618 6.89206 12.4462 6.84295 12.4462L4.95319 12.4438C4.94572 12.4438 4.93839 12.4417 4.93193 12.438C4.92547 12.4342 4.92009 12.4289 4.91633 12.4224C4.91257 12.4159 4.91056 12.4086 4.91049 12.4011C4.91042 12.3937 4.9123 12.3863 4.91593 12.3798L6.11872 10.2618C6.13847 10.2276 6.16682 10.2005 6.20022 10.1838C6.36867 10.1 6.53362 10.0654 6.69508 10.0802C6.71262 10.0822 6.73037 10.0778 6.74526 10.0678C6.76014 10.0578 6.77122 10.0428 6.77658 10.0254C6.93416 9.50924 7.0929 9.10288 7.2528 8.80636Z" fill="#4E1E11"/>
<path d="M24.1046 8.88321L25.1164 10.0289C25.1459 10.0522 25.1692 10.0825 25.1863 10.1198C25.1933 10.1351 25.1948 10.1525 25.1906 10.1693C25.1864 10.1862 25.1767 10.2015 25.163 10.2129L23.6796 11.4541C23.6676 11.4642 23.6522 11.4692 23.6365 11.4681C23.6209 11.467 23.6063 11.4599 23.5958 11.4483L22.5711 10.348C22.5657 10.342 22.5592 10.3371 22.5519 10.3336C22.5447 10.3301 22.5368 10.3281 22.5289 10.3277C22.521 10.3272 22.5131 10.3284 22.5058 10.3311C22.4984 10.3338 22.4918 10.3379 22.4861 10.3433L21.8644 10.9558L19.9956 10.8801C19.9637 10.8785 19.9583 10.8646 19.9793 10.8382C20.0095 10.8001 20.0158 10.7617 19.9979 10.7229L21.0272 9.66915L21.4708 9.2558C21.4844 9.2433 21.4935 9.22692 21.4963 9.20977C21.499 9.19261 21.4954 9.17585 21.486 9.16265L21.3043 8.91232C22.2374 8.94802 23.1708 8.93832 24.1046 8.88321Z" fill="#FFF85F"/>
<path d="M8.02128 9.11608L9.80508 9.21388L9.55242 9.85428C9.45772 10.0553 9.40377 10.2758 9.39057 10.5156C9.39026 10.5232 9.3915 10.5307 9.39423 10.5377C9.39695 10.5448 9.4011 10.5512 9.40643 10.5567C9.41176 10.5621 9.41816 10.5664 9.42524 10.5694C9.43232 10.5723 9.43993 10.5739 9.44762 10.5739L11.5493 10.5843C11.5904 10.5843 11.6275 10.5972 11.6529 10.6204L12.5192 11.4238C12.551 11.4533 12.5452 11.4681 12.5017 11.4681L9.42201 11.4739C9.37699 11.5321 9.31799 11.555 9.24503 11.5426C8.85613 11.4751 8.40203 11.5123 8.00265 11.5135C7.99102 11.5135 7.97636 11.5173 7.95968 11.5247C7.94301 11.5322 7.9247 11.543 7.90601 11.5566C7.87341 11.5799 7.84896 11.5601 7.83266 11.4972C7.82645 11.4747 7.81519 11.472 7.79889 11.489L7.77211 11.5182L6.37255 11.4797C6.36634 11.4797 6.36019 11.4782 6.35472 11.4752C6.34926 11.4723 6.34468 11.468 6.34147 11.4629C6.33827 11.4578 6.33654 11.452 6.33648 11.4462C6.33641 11.4403 6.33801 11.4346 6.34111 11.4297L6.78357 10.6891C6.80379 10.6554 6.8356 10.6274 6.87584 10.6078C6.91607 10.5882 6.96334 10.5777 7.01295 10.5774L7.6091 10.5704C7.62468 10.5703 7.63971 10.5638 7.65116 10.5521C7.6626 10.5404 7.66962 10.5245 7.67081 10.5075C7.70807 10.0619 7.80161 9.63073 7.95142 9.21388L8.02128 9.11608Z" fill="#FEF45A"/>
<path d="M26.509 9.31402C26.6107 9.47393 26.684 9.56436 26.7291 9.58532C27.6396 10.0122 28.5195 10.4858 29.3687 11.0058C29.3151 11.2674 29.3528 11.5085 29.4816 11.7289C29.4896 11.7427 29.5025 11.7531 29.5179 11.758C29.5333 11.7629 29.5503 11.7621 29.5655 11.7557C29.9039 11.6051 30.2571 11.5605 30.625 11.6218C30.3223 11.7103 29.7611 11.7382 29.6237 12.0398C29.6019 12.2696 29.652 12.4919 29.7739 12.707L29.4537 12.8816L28.9402 11.2795C28.927 11.238 28.9075 11.2006 28.8831 11.1695C28.8586 11.1384 28.8297 11.1144 28.7981 11.099L27.4475 10.4376C27.3582 10.3942 27.3237 10.4217 27.3439 10.5203C27.4424 10.9915 27.2829 11.302 26.8653 11.4518C26.8309 11.4645 26.792 11.4628 26.757 11.4471C26.2563 11.2275 25.8364 10.9069 25.4972 10.4854C25.4792 10.4628 25.4532 10.4481 25.4248 10.4442C25.3964 10.4403 25.3677 10.4475 25.3446 10.4644C24.8246 10.8486 24.3328 11.2628 23.8694 11.7068C23.858 11.7177 23.8512 11.7326 23.8505 11.7483C23.8499 11.764 23.8554 11.7792 23.8659 11.7906L24.8626 12.8548L23.6097 12.884C23.574 12.8847 23.5705 12.8968 23.5993 12.92C23.6839 12.9891 23.7142 13.0734 23.6901 13.1727L23.0613 12.5207C23.0504 12.5095 23.0352 12.5033 23.019 12.5035C23.0029 12.5038 22.9871 12.5103 22.9752 12.5218L22.2439 13.2309C22.4357 12.9647 22.4163 12.8572 22.1857 12.9084C22.1698 12.9118 22.1531 12.9104 22.1376 12.9042C22.1221 12.898 22.1085 12.8873 22.0984 12.8735C22.0573 12.8168 22.0037 12.7691 21.9377 12.7303C21.9315 12.7264 21.9261 12.7214 21.9219 12.7155C21.9176 12.7096 21.9146 12.703 21.9131 12.6961C21.9116 12.6892 21.9115 12.6821 21.9129 12.6754C21.9144 12.6686 21.9173 12.6623 21.9214 12.6569C22.0192 12.5335 22.2882 12.3879 22.2102 12.2447C21.9703 12.2284 20.9212 12.2808 20.8782 12.013C20.8753 11.995 20.8769 11.9764 20.883 11.9585C20.8891 11.9407 20.8994 11.9243 20.9131 11.9105L21.8644 10.9558L22.4861 10.3433C22.4918 10.3379 22.4984 10.3338 22.5058 10.3311C22.5131 10.3284 22.521 10.3272 22.5289 10.3277C22.5368 10.3281 22.5447 10.3301 22.5519 10.3336C22.5592 10.3371 22.5657 10.342 22.5711 10.348L23.5958 11.4483C23.6063 11.4599 23.6209 11.467 23.6365 11.4681C23.6522 11.4692 23.6676 11.4642 23.6796 11.4541L25.163 10.2129C25.1767 10.2015 25.1864 10.1862 25.1906 10.1693C25.1948 10.1525 25.1933 10.1351 25.1863 10.1198C25.1692 10.0825 25.1459 10.0522 25.1164 10.0289L25.2957 9.73319L26.2517 10.7636C26.3704 10.891 26.4341 10.8661 26.4426 10.6891L26.509 9.31402ZM22.4093 11.7242C22.3022 11.5531 22.0227 11.6695 22.0553 11.7801C22.0597 11.7955 22.0703 11.8094 22.0857 11.82C22.1011 11.8306 22.1205 11.8374 22.1415 11.8395C22.2339 11.8504 22.3158 11.8387 22.3872 11.8046C22.3942 11.8013 22.4005 11.7965 22.4056 11.7905C22.4106 11.7845 22.4143 11.7774 22.4164 11.7698C22.4185 11.7622 22.4189 11.7542 22.4177 11.7463C22.4165 11.7385 22.4136 11.731 22.4093 11.7242Z" fill="#531F12"/>
<path d="M11.3816 9.73319L10.9322 10.0592C10.9231 10.0658 10.9088 10.0716 10.8903 10.0762C10.8718 10.0808 10.8495 10.0842 10.8251 10.086L10.2196 10.1279C10.1777 10.131 10.1711 10.1194 10.1998 10.093L10.3675 9.94161C10.5732 9.81043 10.7936 9.72349 11.0288 9.68079C11.0653 9.67381 11.0991 9.65751 11.1301 9.63189C11.2745 9.51235 11.4441 9.45452 11.639 9.4584C11.6723 9.45918 11.6758 9.47121 11.6494 9.4945L11.3816 9.73319Z" fill="#FFF85F"/>
<path d="M21.0272 9.66915L19.9979 10.7229L17.7332 12.9026C17.4693 12.9554 17.2399 12.8859 17.0451 12.6942L16.3069 11.5519C16.2965 11.5359 16.2827 11.5227 16.2669 11.5135C16.251 11.5044 16.2335 11.4996 16.2161 11.4995L14.1819 11.5053C14.1423 11.5061 14.1346 11.5232 14.1586 11.5566L15.1483 12.9212L15.4732 13.4452C15.4819 13.4596 15.4851 13.4766 15.4823 13.4931C15.4796 13.5096 15.4709 13.5244 15.4581 13.5348C15.3649 13.6101 15.2683 13.6288 15.1681 13.5907C13.5815 12.9868 11.9991 12.7691 10.421 12.9375C10.4023 12.9397 10.3834 12.9383 10.3656 12.9333C10.3478 12.9283 10.3314 12.9198 10.3174 12.9084C9.86175 12.5304 9.56328 12.0522 9.42201 11.4739L12.5017 11.4681C12.5452 11.4681 12.551 11.4533 12.5192 11.4238L11.6529 10.6204C11.6275 10.5972 11.5904 10.5843 11.5493 10.5843L9.44762 10.5739C9.43993 10.5739 9.43232 10.5723 9.42524 10.5694C9.41816 10.5664 9.41176 10.5621 9.40643 10.5567C9.4011 10.5512 9.39695 10.5448 9.39423 10.5377C9.3915 10.5307 9.39026 10.5232 9.39057 10.5156C9.40377 10.2758 9.45772 10.0553 9.55242 9.85428C9.59433 9.74949 9.63159 9.72194 9.6642 9.77161C9.67349 9.78578 9.68601 9.79702 9.70013 9.80387C9.71425 9.81072 9.72931 9.81287 9.74337 9.81004C9.86369 9.7852 9.97508 9.80305 10.0775 9.8636C10.0918 9.87221 10.1082 9.87704 10.1253 9.87765C10.1424 9.87826 10.1596 9.87463 10.1754 9.86709C10.2654 9.82362 10.3294 9.84846 10.3675 9.94161L10.1998 10.093C10.1711 10.1194 10.1777 10.131 10.2196 10.1279L10.8251 10.086C10.8495 10.0842 10.8718 10.0808 10.8903 10.0762C10.9088 10.0716 10.9231 10.0658 10.9322 10.0592L11.3816 9.73319C11.7566 9.67264 11.9758 9.80111 12.0395 10.1186L14.381 10.0918C14.4231 10.0911 14.4607 10.0787 14.487 10.0569L14.8456 9.7623C15.0016 9.84924 15.2054 9.89931 15.4569 9.9125C15.5601 9.91794 15.6005 9.98586 15.578 10.1163L14.6884 10.9104C14.6007 10.9888 14.6166 11.0318 14.7362 11.0396L16.3965 11.1479C16.4132 11.149 16.4298 11.1546 16.4452 11.1643C16.4605 11.174 16.4742 11.1875 16.485 11.2038L17.172 12.2319C17.1758 12.2379 17.181 12.2428 17.1872 12.2465C17.1933 12.2501 17.2003 12.2523 17.2076 12.253C17.2149 12.2537 17.2224 12.2527 17.2295 12.2503C17.2366 12.2479 17.2432 12.244 17.2488 12.2389L20.1528 9.60045C20.447 9.55233 20.7384 9.57522 21.0272 9.66915ZM10.8053 12.4368C10.6539 12.3887 10.5025 12.3941 10.3512 12.4531C10.3108 12.4687 10.3108 12.4842 10.3512 12.4997C10.4932 12.5548 10.645 12.5525 10.8064 12.4927C10.86 12.4733 10.8596 12.4547 10.8053 12.4368Z" fill="#531F12"/>
<path d="M29.4537 12.8816L29.4979 13.0889C28.2109 13.1533 26.9266 13.1735 25.6451 13.1494C25.496 13.1471 25.3602 13.1855 25.2375 13.2647L24.8626 12.8548L23.8659 11.7906C23.8554 11.7792 23.8499 11.764 23.8505 11.7483C23.8512 11.7326 23.858 11.7177 23.8694 11.7068C24.3328 11.2628 24.8246 10.8486 25.3446 10.4644C25.3677 10.4475 25.3964 10.4403 25.4248 10.4442C25.4532 10.4481 25.4792 10.4628 25.4972 10.4854C25.8364 10.9069 26.2563 11.2275 26.757 11.4471C26.792 11.4628 26.8309 11.4645 26.8653 11.4518C27.2829 11.302 27.4424 10.9915 27.3439 10.5203C27.3237 10.4217 27.3582 10.3942 27.4475 10.4376L28.7981 11.099C28.8297 11.1144 28.8586 11.1384 28.8831 11.1695C28.9075 11.2006 28.927 11.238 28.9402 11.2795L29.4537 12.8816Z" fill="#FFE953"/>
<path d="M19.9979 10.7229C20.0158 10.7617 20.0095 10.8001 19.9793 10.8382C19.9583 10.8646 19.9637 10.8785 19.9956 10.8801L21.8644 10.9558L20.9131 11.9105C20.8994 11.9243 20.8891 11.9407 20.883 11.9585C20.8769 11.9764 20.8753 11.995 20.8782 12.013C20.9212 12.2808 21.9703 12.2284 22.2102 12.2447L21.1448 13.3089C21.1323 13.3218 21.1169 13.3321 21.0995 13.3391C21.0821 13.3461 21.063 13.3497 21.0435 13.3497C20.1042 13.3474 19.1696 13.3466 18.2397 13.3474C17.9381 13.3474 17.774 13.1832 17.7332 12.9026L19.9979 10.7229Z" fill="#FFE953"/>
<path d="M29.3687 11.0058C29.8888 11.2302 30.4244 11.3932 30.9755 11.4949C30.9978 11.499 31.0181 11.5069 31.0334 11.5176C31.0487 11.5282 31.0581 11.5411 31.0605 11.5542C31.0636 11.5698 31.0605 11.5845 31.0512 11.5985C31.0448 11.6078 31.035 11.6153 31.0228 11.6204C31.0105 11.6255 30.9963 11.628 30.9813 11.6276L30.625 11.6218C30.2571 11.5605 29.9039 11.6051 29.5655 11.7557C29.5503 11.7621 29.5333 11.7629 29.5179 11.758C29.5025 11.7531 29.4896 11.7427 29.4816 11.7289C29.3528 11.5085 29.3151 11.2674 29.3687 11.0058Z" fill="#F83031"/>
<path d="M9.42201 11.4739C9.56328 12.0522 9.86175 12.5304 10.3174 12.9084C10.3314 12.9198 10.3478 12.9283 10.3656 12.9333C10.3834 12.9383 10.4023 12.9397 10.421 12.9375C11.9991 12.7691 13.5815 12.9868 15.1681 13.5907C15.2683 13.6288 15.3649 13.6101 15.4581 13.5348C15.4709 13.5244 15.4796 13.5096 15.4823 13.4931C15.4851 13.4766 15.4819 13.4596 15.4732 13.4452L15.1483 12.9212C15.5854 12.7722 16.0294 12.7345 16.4804 12.8083C16.5091 12.8129 16.5425 12.83 16.5805 12.8595C16.6597 12.92 16.7517 12.9138 16.8565 12.8409L15.5442 14.1519C15.4573 14.2389 15.4759 14.2827 15.6001 14.2835L18.3119 14.2986C18.3462 14.2994 18.3814 14.3157 18.4097 14.3441L20.0317 15.9963C19.1716 16.1205 18.308 16.1752 17.441 16.1605C17.1813 16.157 16.9962 16.3013 16.8204 16.462C15.389 15.5531 13.8551 14.8789 12.2188 14.4395C12.2088 14.4368 12.1984 14.4355 12.1884 14.4356C12.1785 14.4357 12.169 14.4373 12.1606 14.4402C12.1523 14.4431 12.1452 14.4474 12.1398 14.4527C12.1344 14.4579 12.1308 14.4642 12.1291 14.471C12.1094 14.5595 13.3133 15.2895 13.4635 15.3792C13.4705 15.3834 13.4767 15.3888 13.4817 15.3952C13.4867 15.4016 13.4904 15.4088 13.4925 15.4164C13.4947 15.424 13.4953 15.4318 13.4943 15.4394C13.4933 15.447 13.4908 15.4542 13.4868 15.4607L13.0094 16.2361C13.0011 16.2498 12.9877 16.2597 12.9716 16.2642C12.9556 16.2687 12.938 16.2674 12.9221 16.2606C11.8082 15.7661 10.7676 15.1428 9.80043 14.3906C9.77064 14.3675 9.73338 14.357 9.6968 14.3615C8.55572 14.5036 7.60289 15.0019 6.83829 15.8566C6.82775 15.8684 6.81314 15.8758 6.79739 15.8773C6.78163 15.8788 6.76589 15.8743 6.75329 15.8647L6.08611 15.3547C6.0777 15.3484 6.07074 15.3403 6.06572 15.3311C6.06071 15.3218 6.05777 15.3116 6.0571 15.3012C6.05644 15.2908 6.05807 15.2804 6.06187 15.2707C6.06567 15.261 6.07157 15.2524 6.07913 15.2453L6.69508 14.6817C7.32616 14.1927 8.00498 13.7824 8.73154 13.451C8.73793 13.4482 8.7436 13.4441 8.74813 13.4388C8.75266 13.4335 8.75594 13.4272 8.75773 13.4204C8.75952 13.4135 8.75977 13.4064 8.75846 13.3994C8.75715 13.3924 8.75432 13.3858 8.75017 13.38C8.34498 12.8017 8.01895 12.1811 7.77211 11.5182L7.79889 11.489C7.81519 11.472 7.82645 11.4747 7.83266 11.4972C7.84896 11.5601 7.87341 11.5799 7.90601 11.5566C7.9247 11.543 7.94301 11.5322 7.95968 11.5247C7.97636 11.5173 7.99102 11.5135 8.00265 11.5135C8.40203 11.5123 8.85613 11.4751 9.24503 11.5426C9.31799 11.555 9.37699 11.5321 9.42201 11.4739Z" fill="#FFD04E"/>
<path d="M17.0451 12.6942L16.8565 12.8409C16.7517 12.9138 16.6597 12.92 16.5805 12.8595C16.5425 12.83 16.5091 12.8129 16.4804 12.8083C16.0294 12.7345 15.5854 12.7722 15.1483 12.9212L14.1586 11.5566C14.1346 11.5232 14.1423 11.5061 14.1819 11.5053L16.2161 11.4995C16.2335 11.4996 16.251 11.5044 16.2669 11.5135C16.2827 11.5227 16.2965 11.5359 16.3069 11.5519L17.0451 12.6942Z" fill="#FFE953"/>
<path d="M22.0553 11.7801C22.0227 11.6695 22.3022 11.5531 22.4093 11.7242C22.4136 11.731 22.4165 11.7385 22.4177 11.7463C22.4189 11.7542 22.4185 11.7622 22.4164 11.7698C22.4143 11.7774 22.4106 11.7845 22.4056 11.7905C22.4005 11.7965 22.3942 11.8013 22.3872 11.8046C22.3158 11.8387 22.2339 11.8504 22.1415 11.8395C22.1205 11.8374 22.1011 11.8306 22.0857 11.82C22.0703 11.8094 22.0597 11.7955 22.0553 11.7801Z" fill="#F93A38"/>
<path d="M22.2102 12.2447C22.2882 12.3879 22.0192 12.5335 21.9214 12.6569C21.9173 12.6623 21.9144 12.6686 21.9129 12.6754C21.9115 12.6821 21.9116 12.6892 21.9131 12.6961C21.9146 12.703 21.9176 12.7096 21.9219 12.7155C21.9261 12.7214 21.9315 12.7264 21.9377 12.7303C22.0037 12.7691 22.0573 12.8168 22.0984 12.8735C22.1085 12.8873 22.1221 12.898 22.1376 12.9042C22.1531 12.9104 22.1698 12.9118 22.1857 12.9084C22.4163 12.8572 22.4357 12.9647 22.2439 13.2309L21.1786 14.2765C21.1539 14.3004 21.1171 14.3138 21.0761 14.3138L18.915 14.3115C18.8708 14.3107 18.863 14.327 18.8918 14.3604C20.0608 15.7118 21.4289 16.8117 22.9961 17.6602C23.3586 17.8977 23.7495 18.0502 24.1686 18.1178C24.282 18.2761 24.4427 18.3743 24.6507 18.4123C25.0598 18.6281 25.6319 18.8917 26.367 19.2029C26.4601 19.2414 26.4252 19.3159 26.3355 19.3147C25.4141 19.2992 24.4954 19.3097 23.5795 19.3462C23.387 19.3423 23.2201 19.39 23.0788 19.4894L23.0474 19.3788C23.0427 19.3621 23.0343 19.3474 23.0236 19.3369C23.0128 19.3264 23.0003 19.3206 22.988 19.3205L21.8318 19.3101L21.1914 19.3194L19.7068 19.2903C19.5601 19.2658 18.8824 19.0062 18.9791 19.3683C18.8665 19.3318 18.7726 19.3376 18.6973 19.3857C17.321 17.9753 15.727 16.8769 13.9153 16.0906C13.8995 16.0839 13.8821 16.0824 13.8657 16.0864C13.8492 16.0904 13.8348 16.0996 13.8245 16.1127C13.6514 16.3324 13.5202 16.575 13.4309 16.8405C13.4195 16.8753 13.4199 16.914 13.4321 16.9511L13.6708 17.6706C13.6956 17.7452 13.6715 17.7669 13.5986 17.7358C12.6073 17.3206 11.6355 16.8459 10.683 16.3118L10.2976 16.0615C10.1781 15.9846 10.1323 16.0161 10.1602 16.1558L10.329 16.986L9.80625 16.9045C9.78537 16.9014 9.76629 16.8945 9.75182 16.8846C9.73735 16.8747 9.72826 16.8625 9.72591 16.8498C9.69913 16.71 10.0671 16.5785 10.0484 16.2373C10.0462 16.2044 10.0587 16.1686 10.0834 16.1372C10.2732 15.895 9.44413 15.4421 9.27763 15.3477C9.2455 15.3291 9.2075 15.3237 9.17167 15.3326C8.26657 15.567 7.53148 16.0561 6.96637 16.7997C6.95822 16.8105 6.95524 16.8245 6.95807 16.8386C6.96091 16.8528 6.96933 16.866 6.98151 16.8754C7.03352 16.9157 7.03662 16.9701 6.99082 17.0384C6.81462 17.3 6.6811 17.2961 6.59028 17.0267L4.86703 15.7529C4.84726 15.7382 4.83444 15.7158 4.83138 15.6907C4.82833 15.6656 4.83528 15.6398 4.85073 15.619C5.29241 15.0221 5.7892 14.5366 6.34111 14.1624C6.29298 14.3425 6.35275 14.431 6.52042 14.4279C6.53401 14.4278 6.54798 14.4327 6.56075 14.442C6.57352 14.4512 6.58456 14.4645 6.59261 14.4803L6.69508 14.6817L6.07913 15.2453C6.07157 15.2524 6.06567 15.261 6.06187 15.2707C6.05807 15.2804 6.05644 15.2908 6.0571 15.3012C6.05777 15.3116 6.06071 15.3218 6.06572 15.3311C6.07074 15.3403 6.0777 15.3484 6.08611 15.3547L6.75329 15.8647C6.76589 15.8743 6.78163 15.8788 6.79739 15.8773C6.81314 15.8758 6.82775 15.8684 6.83829 15.8566C7.60289 15.0019 8.55572 14.5036 9.6968 14.3615C9.73338 14.357 9.77064 14.3675 9.80043 14.3906C10.7676 15.1428 11.8082 15.7661 12.9221 16.2606C12.938 16.2674 12.9556 16.2687 12.9716 16.2642C12.9877 16.2597 13.0011 16.2498 13.0094 16.2361L13.4868 15.4607C13.4908 15.4542 13.4933 15.447 13.4943 15.4394C13.4953 15.4318 13.4947 15.424 13.4925 15.4164C13.4904 15.4088 13.4867 15.4016 13.4817 15.3952C13.4767 15.3888 13.4705 15.3834 13.4635 15.3792C13.3133 15.2895 12.1094 14.5595 12.1291 14.471C12.1308 14.4642 12.1344 14.4579 12.1398 14.4527C12.1452 14.4474 12.1523 14.4431 12.1606 14.4402C12.169 14.4373 12.1785 14.4357 12.1884 14.4356C12.1984 14.4355 12.2088 14.4368 12.2188 14.4395C13.8551 14.8789 15.389 15.5531 16.8204 16.462C17.4584 16.889 18.0887 17.3275 18.7113 17.7778C19.3249 18.2214 19.8558 18.3471 20.6674 18.3518C21.5407 18.3564 22.4143 18.3568 23.2884 18.353C23.4809 18.3514 23.4906 18.3083 23.3175 18.2237C22.1539 17.6524 21.0586 16.9099 20.0317 15.9963L18.4097 14.3441C18.3814 14.3157 18.3462 14.2994 18.3119 14.2986L15.6001 14.2835C15.4759 14.2827 15.4573 14.2389 15.5442 14.1519L16.8565 12.8409L17.0451 12.6942C17.2399 12.8859 17.4693 12.9554 17.7332 12.9026C17.774 13.1832 17.9381 13.3474 18.2397 13.3474C19.1696 13.3466 20.1042 13.3474 21.0435 13.3497C21.063 13.3497 21.0821 13.3461 21.0995 13.3391C21.1169 13.3321 21.1323 13.3218 21.1448 13.3089L22.2102 12.2447ZM17.4479 13.2298C17.4107 13.2197 17.3847 13.2282 17.3699 13.2554C17.3663 13.2618 17.3645 13.2691 17.3646 13.2768C17.3648 13.2844 17.3669 13.2922 17.3707 13.2996C17.3746 13.307 17.3802 13.3139 17.3871 13.3197C17.394 13.3255 17.402 13.3302 17.4107 13.3334C17.5015 13.366 17.5399 13.3567 17.526 13.3054C17.521 13.2877 17.5112 13.2714 17.4975 13.2582C17.4839 13.2449 17.4668 13.2351 17.4479 13.2298Z" fill="#301609"/>
<path d="M10.8053 12.4368C10.8596 12.4547 10.86 12.4733 10.8064 12.4927C10.645 12.5525 10.4932 12.5548 10.3512 12.4997C10.3108 12.4842 10.3108 12.4687 10.3512 12.4531C10.5025 12.3941 10.6539 12.3887 10.8053 12.4368Z" fill="#C92728"/>
<path d="M23.6901 13.1727C25.3256 14.9037 26.8335 16.4248 28.2136 17.7358C28.2656 17.7847 28.273 17.8274 28.2358 17.8639L27.9237 17.6997C27.6047 17.6105 27.4083 17.4164 27.3345 17.1176C27.3247 17.0782 27.3047 17.0444 27.2775 17.0209C27.0462 16.8261 26.9177 16.8828 26.8921 17.1909C26.8773 17.3648 26.7904 17.416 26.6313 17.3446C26.5047 17.288 26.379 17.2643 26.254 17.2736C26.2343 17.2751 26.2151 17.2729 26.1976 17.2673C26.1801 17.2617 26.1648 17.2527 26.1527 17.241C26.0712 17.1634 26.011 17.0663 25.9722 16.9499C25.966 16.931 25.9566 16.9141 25.9447 16.9003C25.9328 16.8866 25.9188 16.8765 25.9035 16.8707C25.7475 16.8117 25.6501 16.8785 25.6113 17.071C25.6098 17.0788 25.6069 17.0862 25.6026 17.0929C25.5984 17.0995 25.593 17.1052 25.5867 17.1097C25.5804 17.1141 25.5734 17.1172 25.566 17.1188C25.5586 17.1203 25.5511 17.1203 25.5438 17.1187C25.4374 17.0931 25.3609 17.0295 25.3144 16.9278C25.3063 16.9094 25.2955 16.8931 25.2827 16.8799C25.2699 16.8667 25.2553 16.8568 25.2399 16.8509C24.8859 16.712 24.7438 16.8319 24.8137 17.2107C24.8177 17.2315 24.8181 17.2519 24.8149 17.2706C24.8117 17.2893 24.8049 17.3058 24.7951 17.319C24.7547 17.3749 24.7004 17.4118 24.6321 17.4296C24.6179 17.4335 24.6051 17.4403 24.5951 17.4493C24.5851 17.4583 24.5782 17.4692 24.575 17.4808L24.5645 17.5251C24.5598 17.543 24.5513 17.5595 24.5396 17.5736C24.5279 17.5877 24.5134 17.5989 24.497 17.6066L24.1372 17.7708C24.1189 17.7792 24.0996 17.7834 24.0813 17.7828C24.0631 17.7822 24.0466 17.7768 24.0336 17.7673C24.0017 17.7455 23.9792 17.7172 23.966 17.6823C23.9606 17.6683 23.9585 17.6514 23.9601 17.6325C23.9618 17.6136 23.9669 17.5933 23.9754 17.5728C24.0545 17.3819 23.9843 17.3046 23.7646 17.3411C23.7481 17.3437 23.7319 17.3504 23.7168 17.3608C23.7018 17.3713 23.6883 17.3852 23.6773 17.4017C23.5469 17.5965 23.3672 17.6481 23.1382 17.5565C23.1253 17.5516 23.1109 17.5523 23.0981 17.5584C23.0852 17.5645 23.075 17.5755 23.0695 17.5891C23.0532 17.6264 23.0287 17.6501 22.9961 17.6602C21.4289 16.8117 20.0608 15.7118 18.8918 14.3604C18.863 14.327 18.8708 14.3107 18.915 14.3115L21.0761 14.3138C21.1171 14.3138 21.1539 14.3004 21.1786 14.2765L22.2439 13.2309L22.9752 12.5218C22.9871 12.5103 23.0029 12.5038 23.019 12.5035C23.0352 12.5033 23.0504 12.5095 23.0613 12.5207L23.6901 13.1727Z" fill="#F73434"/>
<path d="M29.7739 12.707C30.2264 13.973 30.7252 15.2441 31.2701 16.5203C31.2885 16.563 31.3153 16.6017 31.3486 16.6339C31.382 16.666 31.4214 16.6912 31.4645 16.7077C31.9442 16.894 32.4077 17.2456 32.8035 17.4448C33.3593 17.725 33.914 18.0071 34.4674 18.2912C34.5303 18.3238 34.5268 18.3409 34.4569 18.3425L31.9035 18.4123L31.8453 17.9221C32.0292 17.8872 32.6079 17.9128 32.6627 17.843C32.6666 17.8379 32.6689 17.8319 32.6695 17.8256C32.67 17.8192 32.6686 17.8127 32.6656 17.8067C32.6625 17.8007 32.6578 17.7954 32.652 17.7913C32.6462 17.7873 32.6394 17.7846 32.6324 17.7836C32.2419 17.7199 31.8918 17.5752 31.5821 17.3493C31.5464 17.3229 31.5363 17.3295 31.5519 17.3691L31.7626 17.9175C31.8216 18.1853 31.7246 18.3114 31.4715 18.2959C30.9557 16.5296 30.1581 14.7888 29.4979 13.0889L29.4537 12.8816L29.7739 12.707Z" fill="black"/>
<path d="M24.8626 12.8548L25.2375 13.2647C27.1017 15.1661 29.0904 17.0279 30.7834 18.9805C31.2041 19.4649 31.5092 20.0133 31.6986 20.6258C31.7366 20.7484 31.7541 20.7453 31.751 20.6165C31.7339 19.8534 31.6407 19.0799 31.4715 18.2959C31.7246 18.3114 31.8216 18.1853 31.7626 17.9175L31.8453 17.9221L31.9035 18.4123C31.8709 18.7011 31.992 18.9293 32.0036 19.1494C32.0211 19.4789 32.0304 19.7537 32.0735 20.1146C32.1562 20.8144 32.0397 21.6947 32.0071 22.1942C31.9683 22.7888 31.8755 23.376 31.7288 23.9559C31.7238 23.9764 31.7142 23.9947 31.7017 24.0081C31.6891 24.0216 31.6741 24.0294 31.659 24.0304C31.6147 24.0327 31.5716 23.9815 31.5647 23.9396C31.3038 22.3793 30.9953 20.9087 30.0021 19.6896C29.6163 19.2161 29.2022 18.7694 28.7597 18.3495C28.6316 18.1422 28.457 17.9804 28.2358 17.8639C28.273 17.8274 28.2656 17.7847 28.2136 17.7358C26.8335 16.4248 25.3256 14.9037 23.6901 13.1727C23.7142 13.0734 23.6839 12.9891 23.5993 12.92C23.5705 12.8968 23.574 12.8847 23.6097 12.884L24.8626 12.8548Z" fill="#301609"/>
<path d="M29.4979 13.0889C30.1581 14.7888 30.9557 16.5296 31.4715 18.2959C31.6407 19.0799 31.7339 19.8534 31.751 20.6165C31.7541 20.7453 31.7366 20.7484 31.6986 20.6258C31.5092 20.0133 31.2041 19.4649 30.7834 18.9805C29.0904 17.0279 27.1017 15.1661 25.2375 13.2647C25.3602 13.1855 25.496 13.1471 25.6451 13.1494C26.9266 13.1735 28.2109 13.1533 29.4979 13.0889Z" fill="#FFC54D"/>
<path d="M17.526 13.3054C17.5399 13.3567 17.5015 13.366 17.4107 13.3334C17.402 13.3302 17.394 13.3255 17.3871 13.3197C17.3802 13.3139 17.3746 13.307 17.3707 13.2996C17.3669 13.2922 17.3648 13.2844 17.3646 13.2768C17.3645 13.2691 17.3663 13.2618 17.3699 13.2554C17.3847 13.2282 17.4107 13.2197 17.4479 13.2298C17.4668 13.2351 17.4839 13.2449 17.4975 13.2582C17.5112 13.2714 17.521 13.2877 17.526 13.3054Z" fill="#FFC54D"/>
<path d="M10.329 16.986C10.3477 17.111 10.3977 17.2193 10.4792 17.3108C10.5514 17.5344 10.539 17.7774 10.442 18.0397C10.4254 18.0853 10.426 18.1353 10.4438 18.1804C10.4617 18.2254 10.4954 18.2624 10.5386 18.2843C10.5774 18.3037 10.5945 18.3619 10.5899 18.4589C10.5884 18.4927 10.5722 18.5275 10.5445 18.5567C10.3954 18.7143 10.3403 18.8983 10.3791 19.1086C10.3867 19.1474 10.3843 19.1857 10.3721 19.2192L10.0484 20.1088C10.0345 20.1476 10.0166 20.1829 9.99487 20.2148C9.67661 20.6743 9.4387 21.1315 9.28112 21.5864C9.19379 21.697 8.37758 22.7077 8.3834 22.7449C8.38806 22.7806 8.41018 22.7818 8.44977 22.7484C9.05291 22.2384 9.7818 21.5631 10.6364 20.7224C11.5314 19.8422 12.6337 19.437 13.9432 19.5068C14.0084 19.5099 14.1237 19.4839 14.289 19.4288C14.3038 19.4237 14.3202 19.4237 14.336 19.4289C14.3519 19.4342 14.3664 19.4443 14.3775 19.4579L14.487 19.5895C14.5747 19.6935 14.7164 19.7735 14.912 19.8294C14.957 19.8426 15.0028 19.8441 15.0494 19.834L15.1658 19.8724L15.0738 19.9551C14.8821 19.7952 14.8045 19.8243 14.8409 20.0424C12.6124 18.8397 10.3058 21.1265 8.9714 22.6099C8.72223 22.8854 8.44356 23.1264 8.13539 23.3329C8.12996 23.3363 8.12377 23.3384 8.11738 23.3389C8.11099 23.3394 8.1046 23.3383 8.09881 23.3358C8.09302 23.3332 8.08801 23.3293 8.08422 23.3243C8.08044 23.3193 8.07802 23.3135 8.07717 23.3073C7.98402 22.6751 8.88524 21.3221 9.27297 20.7748C9.6281 20.273 10.414 18.4333 10.0659 17.6963C9.68748 16.8928 8.92716 17.1735 8.43696 17.6613C7.99838 18.0999 7.51634 18.4861 6.99082 18.8199C7.10726 18.5532 7.5241 18.396 7.55437 18.2982C7.55634 18.2919 7.55665 18.2851 7.55528 18.2784C7.55392 18.2716 7.55092 18.265 7.54645 18.2589C7.54198 18.2528 7.53615 18.2473 7.52931 18.2429C7.52246 18.2384 7.51475 18.2351 7.50664 18.233L7.24349 18.1643C7.19614 18.1519 7.15927 18.1472 7.13288 18.1504C6.90699 18.1736 6.69042 18.1496 6.48316 18.0782C6.46143 18.0704 6.42456 18.0692 6.37255 18.0747L5.94406 18.1224C5.92957 18.124 5.91456 18.1184 5.9019 18.1068C5.88923 18.0953 5.87979 18.0784 5.87537 18.0595C5.84975 17.9524 5.78338 17.8841 5.67626 17.8546L6.59028 17.0267C6.6811 17.2961 6.81462 17.3 6.99082 17.0384C7.03662 16.9701 7.03352 16.9157 6.98151 16.8754C6.96933 16.866 6.96091 16.8528 6.95807 16.8386C6.95524 16.8245 6.95822 16.8105 6.96637 16.7997C7.53148 16.0561 8.26657 15.567 9.17167 15.3326C9.2075 15.3237 9.2455 15.3291 9.27763 15.3477C9.44413 15.4421 10.2732 15.895 10.0834 16.1372C10.0587 16.1686 10.0462 16.2044 10.0484 16.2373C10.0671 16.5785 9.69913 16.71 9.72591 16.8498C9.72826 16.8625 9.73735 16.8747 9.75182 16.8846C9.76629 16.8945 9.78537 16.9014 9.80625 16.9045L10.329 16.986Z" fill="#080203"/>
<path d="M20.0317 15.9963C21.0586 16.9099 22.1539 17.6524 23.3175 18.2237C23.4906 18.3083 23.4809 18.3514 23.2884 18.353C22.4143 18.3568 21.5407 18.3564 20.6674 18.3518C19.8558 18.3471 19.3249 18.2214 18.7113 17.7778C18.0887 17.3275 17.4584 16.889 16.8204 16.462C16.9962 16.3013 17.1813 16.157 17.441 16.1605C18.308 16.1752 19.1716 16.1205 20.0317 15.9963Z" fill="#FFAF4C"/>
<path d="M10.683 16.3118C10.527 16.3243 10.4924 16.372 10.5794 16.455C10.5966 16.4712 10.6107 16.4882 10.6204 16.5046C10.6301 16.521 10.6352 16.5364 10.6353 16.5494L10.6295 17.1304C10.6295 17.175 10.6387 17.2122 10.6551 17.234C10.7754 17.3947 10.853 17.5736 10.8879 17.7708C10.894 17.8063 10.8874 17.8447 10.8693 17.8802C10.6846 18.2357 10.7688 18.3665 11.122 18.2726C11.2912 18.2284 11.3781 18.2936 11.3828 18.4682C11.3929 18.8338 11.2194 18.9705 10.8623 18.8781L10.6411 18.1783C10.6306 18.1445 10.6331 18.1057 10.6481 18.0688C10.7645 17.777 10.7082 17.5243 10.4792 17.3108C10.3977 17.2193 10.3477 17.111 10.329 16.986L10.1602 16.1558C10.1323 16.0161 10.1781 15.9846 10.2976 16.0615L10.683 16.3118Z" fill="#C92728"/>
<path d="M18.6973 19.3857L18.4796 19.7514L18.2397 19.8096C18.2245 19.8136 18.2082 19.8123 18.1935 19.8057C18.1787 19.7992 18.1663 19.7879 18.1582 19.7735C18.114 19.6958 18.0491 19.6458 17.9638 19.6233C17.9466 19.6185 17.9283 19.6178 17.91 19.6213C17.8917 19.6247 17.8739 19.6321 17.8578 19.6431C17.4934 19.8957 17.8823 20.4046 17.9358 20.7119L17.3606 22.3805C17.2186 22.1282 17.1111 22.1169 17.0381 22.3467C17.0341 22.3592 17.0344 22.3746 17.0389 22.3915C17.0433 22.4083 17.0519 22.4262 17.0637 22.4434L17.1173 22.5225C17.1255 22.5345 17.128 22.5503 17.1241 22.567C17.1203 22.5837 17.1104 22.6002 17.0963 22.6133C16.9085 22.7888 16.8747 23.0088 16.995 23.2735L16.7272 24.325C16.7163 24.3669 16.7059 24.3661 16.6958 24.3226L16.1217 21.8472C16.0736 21.5064 15.9669 21.1862 15.8015 20.8866C15.5462 20.3976 15.4507 19.881 15.5151 19.3368C15.5213 19.2864 15.5093 19.2794 15.479 19.3159L15.0494 19.834C15.0028 19.8441 14.957 19.8426 14.912 19.8294C14.7164 19.7735 14.5747 19.6935 14.487 19.5895L14.3775 19.4579C14.3664 19.4443 14.3519 19.4342 14.336 19.4289C14.3202 19.4237 14.3038 19.4237 14.289 19.4288C14.1237 19.4839 14.0084 19.5099 13.9432 19.5068C12.6337 19.437 11.5314 19.8422 10.6364 20.7224C9.7818 21.5631 9.05291 22.2384 8.44977 22.7484C8.41018 22.7818 8.38806 22.7806 8.3834 22.7449C8.37758 22.7077 9.19379 21.697 9.28112 21.5864C9.65915 21.2534 10.003 20.8948 10.3127 20.5105C10.3927 20.4112 10.4567 20.2936 10.5049 20.1577C10.6749 19.6733 11.0067 19.4766 10.8623 18.8781C11.2194 18.9705 11.3929 18.8338 11.3828 18.4682C11.3781 18.2936 11.2912 18.2284 11.122 18.2726C10.7688 18.3665 10.6846 18.2357 10.8693 17.8802C10.8874 17.8447 10.894 17.8063 10.8879 17.7708C10.853 17.5736 10.7754 17.3947 10.6551 17.234C10.6387 17.2122 10.6295 17.175 10.6295 17.1304L10.6353 16.5494C10.6352 16.5364 10.6301 16.521 10.6204 16.5046C10.6107 16.4882 10.5966 16.4712 10.5794 16.455C10.4924 16.372 10.527 16.3243 10.683 16.3118C11.6355 16.8459 12.6073 17.3206 13.5986 17.7358C13.6715 17.7669 13.6956 17.7452 13.6708 17.6706L13.4321 16.9511C13.4199 16.914 13.4195 16.8753 13.4309 16.8405C13.5202 16.575 13.6514 16.3324 13.8245 16.1127C13.8348 16.0996 13.8492 16.0904 13.8657 16.0864C13.8821 16.0824 13.8995 16.0839 13.9153 16.0906C15.727 16.8769 17.321 17.9753 18.6973 19.3857ZM16.7697 21.961C16.8322 21.9782 16.9006 21.9642 16.9597 21.9221C17.0189 21.88 17.064 21.8131 17.0852 21.7363C17.0957 21.6983 17.1 21.6589 17.0978 21.6205C17.0956 21.5821 17.087 21.5454 17.0726 21.5125C17.0581 21.4796 17.038 21.4511 17.0134 21.4287C16.9888 21.4062 16.9602 21.3903 16.9292 21.3818C16.8667 21.3645 16.7984 21.3785 16.7392 21.4207C16.68 21.4628 16.6349 21.5296 16.6137 21.6064C16.6033 21.6445 16.599 21.6838 16.6011 21.7222C16.6033 21.7606 16.6119 21.7973 16.6264 21.8303C16.6408 21.8632 16.661 21.8917 16.6856 21.9141C16.7101 21.9365 16.7387 21.9525 16.7697 21.961Z" fill="#F83031"/>
<path d="M27.9237 17.6997C27.2344 17.5484 26.5424 17.508 25.8476 17.5787C25.7304 17.5903 25.6501 17.5833 25.6066 17.5577C25.5747 17.539 25.5376 17.5309 25.5006 17.5344C25.4636 17.538 25.4286 17.553 25.4005 17.5775C25.2476 17.7118 25.104 17.7541 24.9697 17.7044C24.9551 17.6988 24.939 17.6983 24.9242 17.7029C24.9094 17.7076 24.8967 17.7171 24.8882 17.73L24.7019 18.0071C24.6934 18.0203 24.6799 18.03 24.6636 18.0344C24.6473 18.0389 24.6292 18.0379 24.6123 18.0316C24.4493 17.9703 24.3014 17.999 24.1686 18.1178C23.7495 18.0502 23.3586 17.8977 22.9961 17.6602C23.0287 17.6501 23.0532 17.6264 23.0695 17.5891C23.075 17.5755 23.0852 17.5645 23.0981 17.5584C23.1109 17.5523 23.1253 17.5516 23.1382 17.5565C23.3672 17.6481 23.5469 17.5965 23.6773 17.4017C23.6883 17.3852 23.7018 17.3713 23.7168 17.3608C23.7319 17.3504 23.7481 17.3437 23.7646 17.3411C23.9843 17.3046 24.0545 17.3819 23.9754 17.5728C23.9669 17.5933 23.9618 17.6136 23.9601 17.6325C23.9585 17.6514 23.9606 17.6683 23.966 17.6823C23.9792 17.7172 24.0017 17.7455 24.0336 17.7673C24.0466 17.7768 24.0631 17.7822 24.0813 17.7828C24.0996 17.7834 24.1189 17.7792 24.1372 17.7708L24.497 17.6066C24.5134 17.5989 24.5279 17.5877 24.5396 17.5736C24.5513 17.5595 24.5598 17.543 24.5645 17.5251L24.575 17.4808C24.5782 17.4692 24.5851 17.4583 24.5951 17.4493C24.6051 17.4403 24.6179 17.4335 24.6321 17.4296C24.7004 17.4118 24.7547 17.3749 24.7951 17.319C24.8049 17.3058 24.8117 17.2893 24.8149 17.2706C24.8181 17.2519 24.8177 17.2315 24.8137 17.2107C24.7438 16.8319 24.8859 16.712 25.2399 16.8509C25.2553 16.8568 25.2699 16.8667 25.2827 16.8799C25.2955 16.8931 25.3063 16.9094 25.3144 16.9278C25.3609 17.0295 25.4374 17.0931 25.5438 17.1187C25.5511 17.1203 25.5586 17.1203 25.566 17.1188C25.5734 17.1172 25.5804 17.1141 25.5867 17.1097C25.593 17.1052 25.5984 17.0995 25.6026 17.0929C25.6069 17.0862 25.6098 17.0788 25.6113 17.071C25.6501 16.8785 25.7475 16.8117 25.9035 16.8707C25.9188 16.8765 25.9328 16.8866 25.9447 16.9003C25.9566 16.9141 25.966 16.931 25.9722 16.9499C26.011 17.0663 26.0712 17.1634 26.1527 17.241C26.1648 17.2527 26.1801 17.2617 26.1976 17.2673C26.2151 17.2729 26.2343 17.2751 26.254 17.2736C26.379 17.2643 26.5047 17.288 26.6313 17.3446C26.7904 17.416 26.8773 17.3648 26.8921 17.1909C26.9177 16.8828 27.0462 16.8261 27.2775 17.0209C27.3047 17.0444 27.3247 17.0782 27.3345 17.1176C27.4083 17.4164 27.6047 17.6105 27.9237 17.6997Z" fill="#B32326"/>
<path d="M10.4792 17.3108C10.7082 17.5243 10.7645 17.777 10.6481 18.0688C10.6331 18.1057 10.6306 18.1445 10.6411 18.1783L10.8623 18.8781C11.0067 19.4766 10.6749 19.6733 10.5049 20.1577C10.4567 20.2936 10.3927 20.4112 10.3127 20.5105C10.003 20.8948 9.65915 21.2534 9.28112 21.5864C9.4387 21.1315 9.67661 20.6743 9.99487 20.2148C10.0166 20.1829 10.0345 20.1476 10.0484 20.1088L10.3721 19.2192C10.3843 19.1857 10.3867 19.1474 10.3791 19.1086C10.3403 18.8983 10.3954 18.7143 10.5445 18.5567C10.5722 18.5275 10.5884 18.4927 10.5899 18.4589C10.5945 18.3619 10.5774 18.3037 10.5386 18.2843C10.4954 18.2624 10.4617 18.2254 10.4438 18.1804C10.426 18.1353 10.4254 18.0853 10.442 18.0397C10.539 17.7774 10.5514 17.5344 10.4792 17.3108Z" fill="#86191C"/>
<path d="M31.8453 17.9221L31.7626 17.9175L31.5519 17.3691C31.5363 17.3295 31.5464 17.3229 31.5821 17.3493C31.8918 17.5752 32.2419 17.7199 32.6324 17.7836C32.6394 17.7846 32.6462 17.7873 32.652 17.7913C32.6578 17.7954 32.6625 17.8007 32.6656 17.8067C32.6686 17.8127 32.67 17.8192 32.6695 17.8256C32.6689 17.8319 32.6666 17.8379 32.6627 17.843C32.6079 17.9128 32.0292 17.8872 31.8453 17.9221Z" fill="#F93A38"/>
<path d="M27.9237 17.6997L28.2358 17.8639C28.457 17.9804 28.6316 18.1422 28.7597 18.3495C27.1028 17.9489 26.1026 17.6834 24.6507 18.4123C24.4427 18.3743 24.282 18.2761 24.1686 18.1178C24.3014 17.999 24.4493 17.9703 24.6123 18.0316C24.6292 18.0379 24.6473 18.0389 24.6636 18.0344C24.6799 18.03 24.6934 18.0203 24.7019 18.0071L24.8882 17.73C24.8967 17.7171 24.9094 17.7076 24.9242 17.7029C24.939 17.6983 24.9551 17.6988 24.9697 17.7044C25.104 17.7541 25.2476 17.7118 25.4005 17.5775C25.4286 17.553 25.4636 17.538 25.5006 17.5344C25.5376 17.5309 25.5747 17.539 25.6066 17.5577C25.6501 17.5833 25.7304 17.5903 25.8476 17.5787C26.5424 17.508 27.2344 17.5484 27.9237 17.6997Z" fill="#080203"/>
<path d="M5.67626 17.8546C5.78338 17.8841 5.84975 17.9524 5.87537 18.0595C5.87979 18.0784 5.88923 18.0953 5.9019 18.1068C5.91456 18.1184 5.92957 18.124 5.94406 18.1224L6.37255 18.0747C6.42456 18.0692 6.46143 18.0704 6.48316 18.0782C6.69042 18.1496 6.90699 18.1736 7.13288 18.1504C7.15927 18.1472 7.19614 18.1519 7.24349 18.1643L7.50664 18.233C7.51475 18.2351 7.52246 18.2384 7.52931 18.2429C7.53615 18.2473 7.54198 18.2528 7.54645 18.2589C7.55092 18.265 7.55392 18.2716 7.55528 18.2784C7.55665 18.2851 7.55634 18.2919 7.55437 18.2982C7.5241 18.396 7.10726 18.5532 6.99082 18.8199C6.15714 19.4079 5.42592 20.1461 4.57943 20.691C4.21033 20.9285 3.70616 21.1835 3.46397 21.5538C3.41818 21.6236 3.28699 21.6803 3.07042 21.7238C3.09138 21.3232 2.93768 20.9122 2.96912 20.5059C2.97216 20.4678 2.96449 20.4298 2.947 20.3964C2.83522 20.1829 2.75449 19.9555 2.70481 19.7141C2.64582 19.4284 2.48203 19.3326 2.21345 19.4265C2.20657 19.4289 2.19929 19.4298 2.19204 19.4293C2.18478 19.4289 2.17769 19.4269 2.17119 19.4237C2.16469 19.4204 2.15889 19.4159 2.15416 19.4104C2.14942 19.4049 2.14582 19.3985 2.14359 19.3916C2.11564 19.3038 2.07179 19.2472 2.01202 19.2216C2.0974 18.9444 2.27361 18.7787 2.54064 18.7244C2.55781 18.7207 2.5757 18.7227 2.59164 18.7301C2.60758 18.7374 2.62073 18.7497 2.62913 18.7651L3.07741 19.5837C3.16978 19.7529 3.30678 19.8131 3.48843 19.7642C4.10321 19.5988 5.18141 18.3297 5.67626 17.8546Z" fill="#230B0C"/>
<path d="M19.7068 19.2903C19.8035 19.7874 19.9304 19.834 19.6649 20.337C19.5508 20.0025 19.349 19.749 19.0594 19.5767C19.0456 19.5686 19.0343 19.5562 19.0265 19.5409C19.0187 19.5255 19.0148 19.5077 19.0152 19.4894C19.0152 19.4451 19.0031 19.4048 18.9791 19.3683C18.8824 19.0062 19.5601 19.2658 19.7068 19.2903Z" fill="#C92728"/>
<path d="M2.01202 19.2216C2.07179 19.2472 2.11564 19.3038 2.14359 19.3916C2.14582 19.3985 2.14942 19.4049 2.15416 19.4104C2.15889 19.4159 2.16469 19.4204 2.17119 19.4237C2.17769 19.4269 2.18478 19.4289 2.19204 19.4293C2.19929 19.4298 2.20657 19.4289 2.21345 19.4265C2.48203 19.3326 2.64582 19.4284 2.70481 19.7141C2.75449 19.9555 2.83522 20.1829 2.947 20.3964C2.96449 20.4298 2.97216 20.4678 2.96912 20.5059C2.93768 20.9122 3.09138 21.3232 3.07042 21.7238L2.21345 22.2023C2.20147 22.209 2.18799 22.2123 2.17431 22.2121C2.16062 22.2118 2.14721 22.208 2.13537 22.201C2.12352 22.1939 2.11366 22.1839 2.10674 22.1719C2.09981 22.1599 2.09606 22.1463 2.09585 22.1325C2.08188 21.6636 2.12069 21.1979 2.21229 20.7352C2.23208 20.6351 2.19133 20.5326 2.07256 20.6153C2.06215 20.6227 2.04859 20.6265 2.03339 20.6263C2.01818 20.6261 2.00192 20.6219 1.9864 20.6141L1.93167 20.5862C1.92114 20.581 1.90567 20.5806 1.8871 20.5849C1.86854 20.5893 1.84764 20.5982 1.82688 20.6107L1.601 20.748C1.5687 20.7676 1.5451 20.7966 1.53463 20.8295C1.49814 20.9468 1.41858 21.0465 1.29593 21.1288C1.2936 20.7709 1.16203 20.5086 0.901215 20.3417L2.01202 19.2216Z" fill="#421411"/>
<path d="M15.8015 20.8866L15.6653 20.8284C15.4984 20.5202 15.4165 20.1926 15.4196 19.8457C15.4197 19.8282 15.4138 19.8113 15.4032 19.7987C15.3925 19.7861 15.378 19.7787 15.3626 19.7781C15.2896 19.7742 15.224 19.8057 15.1658 19.8724L15.0494 19.834L15.479 19.3159C15.5093 19.2794 15.5213 19.2864 15.5151 19.3368C15.4507 19.881 15.5462 20.3976 15.8015 20.8866Z" fill="#932E27"/>
<path d="M19.7068 19.2903L21.1914 19.3194C21.3532 19.607 21.6292 19.8352 21.4964 20.2206C21.4896 20.2396 21.4867 20.2592 21.4882 20.2777C21.4896 20.2961 21.4952 20.3129 21.5046 20.3265L21.5966 20.4616C21.6182 20.4937 21.627 20.5302 21.621 20.5629C21.5442 20.9728 21.7794 21.9357 22.3918 21.7401C22.4811 21.7121 22.4873 21.6702 22.4105 21.6143C22.2451 21.4948 22.1213 21.3384 22.039 21.1451C22.0246 21.1117 22.0209 21.0727 22.0285 21.0333C22.0728 20.7946 22.2451 19.6163 22.0076 19.5243C21.9931 19.5188 21.9808 19.5089 21.9724 19.4959C21.964 19.4829 21.96 19.4675 21.961 19.4521C21.9672 19.3644 21.9241 19.317 21.8318 19.3101L22.988 19.3205C23.0003 19.3206 23.0128 19.3264 23.0236 19.3369C23.0343 19.3474 23.0427 19.3621 23.0474 19.3788L23.0788 19.4894L23.8659 23.5344C23.9102 23.7618 23.8426 23.8018 23.6633 23.6543C23.3955 23.4342 23.2372 23.1559 22.896 22.9603C22.2929 22.6157 21.8504 22.3129 21.5686 22.0521C20.9437 21.4762 20.3092 20.9045 19.6649 20.337C19.9304 19.834 19.8035 19.7874 19.7068 19.2903ZM22.3313 21.0368C22.79 21.3454 22.5874 20.6095 22.3208 20.8284C22.3051 20.8414 22.2927 20.8579 22.2845 20.8765C22.2763 20.8952 22.2725 20.9154 22.2736 20.9357C22.2746 20.956 22.2803 20.9757 22.2903 20.9932C22.3004 21.0108 22.3144 21.0257 22.3313 21.0368Z" fill="#F73434"/>
<path d="M21.1914 19.3194L21.8318 19.3101C21.9241 19.317 21.9672 19.3644 21.961 19.4521C21.96 19.4675 21.964 19.4829 21.9724 19.4959C21.9808 19.5089 21.9931 19.5188 22.0076 19.5243C22.2451 19.6163 22.0728 20.7946 22.0285 21.0333C22.0209 21.0727 22.0246 21.1117 22.039 21.1451C22.1213 21.3384 22.2451 21.4948 22.4105 21.6143C22.4873 21.6702 22.4811 21.7121 22.3918 21.7401C21.7794 21.9357 21.5442 20.9728 21.621 20.5629C21.627 20.5302 21.6182 20.4937 21.5966 20.4616L21.5046 20.3265C21.4952 20.3129 21.4896 20.2961 21.4882 20.2777C21.4867 20.2592 21.4896 20.2396 21.4964 20.2206C21.6292 19.8352 21.3532 19.607 21.1914 19.3194Z" fill="#FE7402"/>
<path d="M18.9791 19.3683C19.0031 19.4048 19.0152 19.4451 19.0152 19.4894C19.0148 19.5077 19.0187 19.5255 19.0265 19.5409C19.0343 19.5562 19.0456 19.5686 19.0594 19.5767C19.349 19.749 19.5508 20.0025 19.6649 20.337C20.3092 20.9045 20.9437 21.4762 21.5686 22.0521C21.8504 22.3129 22.2929 22.6157 22.896 22.9603C23.2372 23.1559 23.3955 23.4342 23.6633 23.6543C23.8426 23.8018 23.9102 23.7618 23.8659 23.5344L23.0788 19.4894C23.2201 19.39 23.387 19.3423 23.5795 19.3462C23.3594 20.1344 23.4642 21.0217 23.7087 21.7948C23.9354 22.5144 24.0134 23.2549 23.9428 24.0164C23.9421 24.0216 23.9401 24.0266 23.937 24.0308C23.9339 24.0351 23.9297 24.0384 23.9249 24.0405C23.92 24.0426 23.9148 24.0434 23.9095 24.0429C23.9043 24.0423 23.8993 24.0404 23.895 24.0374C23.4456 23.7199 22.9895 23.4117 22.5269 23.1129C21.7235 22.5924 21.047 21.775 20.3717 21.2697C19.9882 20.984 19.6793 20.6871 19.4448 20.3789C19.2352 20.1042 18.9802 19.9085 18.6624 20.1042C18.4342 20.2439 17.9975 21.0729 17.9277 21.3663C17.6474 22.5315 17.2787 23.6904 16.8215 24.8431C16.7377 25.0527 16.655 25.0523 16.5735 24.8419C16.4827 24.6032 16.3406 24.4169 16.2964 24.1363C16.2044 23.5646 16.1555 22.937 16.0111 22.4224C15.8388 21.8076 15.5958 21.2196 15.2822 20.6584L15.0738 19.9551L15.1658 19.8724C15.224 19.8057 15.2896 19.7742 15.3626 19.7781C15.378 19.7787 15.3925 19.7861 15.4032 19.7987C15.4138 19.8113 15.4197 19.8282 15.4196 19.8457C15.4165 20.1926 15.4984 20.5202 15.6653 20.8284C15.7096 21.2173 15.8617 21.5569 16.1217 21.8472L16.6958 24.3226C16.7059 24.3661 16.7163 24.3669 16.7272 24.325L16.995 23.2735C17.0462 23.1455 17.1212 23.0325 17.2197 22.9347C17.2424 22.9121 17.2592 22.8774 17.2675 22.8357L17.3606 22.3805L17.9358 20.7119C18.0049 20.535 18.1 20.377 18.2211 20.2381C18.3596 20.0785 18.4027 19.9342 18.4796 19.7514L18.6973 19.3857C18.7726 19.3376 18.8665 19.3318 18.9791 19.3683Z" fill="black"/>
<path d="M18.4796 19.7514C18.4027 19.9342 18.3596 20.0785 18.2211 20.2381C18.1 20.377 18.0049 20.535 17.9358 20.7119C17.8823 20.4046 17.4934 19.8957 17.8578 19.6431C17.8739 19.6321 17.8917 19.6247 17.91 19.6213C17.9283 19.6178 17.9466 19.6185 17.9638 19.6233C18.0491 19.6458 18.114 19.6958 18.1582 19.7735C18.1663 19.7879 18.1787 19.7992 18.1935 19.8057C18.2082 19.8123 18.2245 19.8136 18.2397 19.8096L18.4796 19.7514Z" fill="#B32326"/>
<path d="M15.0738 19.9551L15.2822 20.6584C15.1914 20.4115 15.0443 20.2062 14.8409 20.0424C14.8045 19.8243 14.8821 19.7952 15.0738 19.9551Z" fill="#9C6D64" fill-opacity="0.953"/>
<path d="M1.29593 21.1288C0.934206 21.513 0.505721 21.7878 0.0104792 21.9532L0 21.6073L0.901215 20.3417C1.16203 20.5086 1.2936 20.7709 1.29593 21.1288Z" fill="#7A2217" fill-opacity="0.984"/>
<path d="M22.3313 21.0368C22.3144 21.0257 22.3004 21.0108 22.2903 20.9932C22.2803 20.9757 22.2746 20.956 22.2736 20.9357C22.2725 20.9154 22.2763 20.8952 22.2845 20.8765C22.2927 20.8579 22.3051 20.8414 22.3208 20.8284C22.5874 20.6095 22.79 21.3454 22.3313 21.0368Z" fill="#C92728"/>
<path d="M15.6653 20.8284L15.8015 20.8866C15.9669 21.1862 16.0736 21.5064 16.1217 21.8472C15.8617 21.5569 15.7096 21.2173 15.6653 20.8284Z" fill="#531F12"/>
<path d="M16.6137 21.6064C16.5697 21.7664 16.6395 21.9251 16.7697 21.961C16.8999 21.9969 17.0411 21.8963 17.0852 21.7363C17.1293 21.5764 17.0594 21.4176 16.9292 21.3818C16.799 21.3459 16.6578 21.4465 16.6137 21.6064Z" fill="#C92728"/>
<path d="M17.3606 22.3805L17.2675 22.8357C17.2592 22.8774 17.2424 22.9121 17.2197 22.9347C17.1212 23.0325 17.0462 23.1455 16.995 23.2735C16.8747 23.0088 16.9085 22.7888 17.0963 22.6133C17.1104 22.6002 17.1203 22.5837 17.1241 22.567C17.128 22.5503 17.1255 22.5345 17.1173 22.5225L17.0637 22.4434C17.0519 22.4262 17.0433 22.4083 17.0389 22.3915C17.0344 22.3746 17.0341 22.3592 17.0381 22.3467C17.1111 22.1169 17.2186 22.1282 17.3606 22.3805Z" fill="#932E27"/>
</svg>
