<svg width="25" height="25" viewBox="0 0 25 25" fill="none" xmlns="http://www.w3.org/2000/svg">
<path d="M16.3322 0.582892C15.7091 2.11879 16.9359 2.31815 16.9693 3.50306C16.973 3.60227 16.9961 3.68932 17.0388 3.76419C17.3671 4.32202 17.6072 4.91073 17.7593 5.53033C17.7797 5.60895 17.7695 5.61176 17.7287 5.53876C17.6156 5.34221 17.4635 5.17186 17.2725 5.02773C17.1964 4.96783 17.1733 4.98467 17.2029 5.07827C17.3587 5.56496 17.3773 5.71471 17.2586 5.52752C17.2119 5.45151 17.1399 5.39477 17.0555 5.36748C16.6827 5.24393 16.1124 4.26118 16.3211 5.20462L15.2556 2.82356C15.2394 2.78682 15.2122 2.75618 15.1777 2.73602C15.1432 2.71585 15.1033 2.70718 15.0637 2.71125L13.8397 2.81794L12.8076 1.30732C12.7972 1.29182 12.7831 1.27904 12.7668 1.27012C12.7505 1.26119 12.7323 1.25638 12.714 1.2561C12.6956 1.25582 12.6775 1.26009 12.6614 1.26853C12.6452 1.27697 12.6314 1.28932 12.6213 1.30451L11.8702 2.39677C11.5271 2.1216 11.4019 1.67328 11.4946 1.0518C11.5521 0.656832 11.4297 0.510823 11.1274 0.613778C11.0916 0.625235 11.0564 0.647415 11.0243 0.678866C10.9922 0.710317 10.9638 0.75033 10.941 0.796289C10.8075 1.06584 10.5914 1.25116 10.2929 1.35224C10.0425 1.43461 9.79028 1.81273 9.5362 2.48662L8.58482 4.99684C8.55329 5.08295 8.54216 5.07827 8.55144 4.9828C8.56627 4.82556 8.52084 4.68891 8.41513 4.57285C8.58946 3.9832 8.74802 3.38981 8.89082 2.79267C9.04104 2.16933 9.44997 1.23431 9.44719 0.302106C10.9605 0.0437835 12.4849 -0.0488757 14.0205 0.0241285C14.1021 0.0297442 14.1874 0.0587587 14.2764 0.111172C14.8189 0.442499 15.5922 0.139251 16.3322 0.582892Z" fill="#A71D9E"/>
<path d="M9.44719 0.302106C9.44997 1.23431 9.04104 2.16933 8.89082 2.79267C8.74802 3.38981 8.58946 3.9832 8.41513 4.57285L8.26491 4.79467L7.46652 5.98801C7.41089 6.0685 7.39049 6.06102 7.40532 5.96555C7.47209 5.51629 7.92553 4.90418 7.89214 4.63463C7.87916 4.52418 7.84207 4.5195 7.78087 4.62059C6.98341 5.93654 6.46228 7.35544 6.21748 8.8773C6.21156 8.91611 6.19386 8.95295 6.16635 8.98369C6.13885 9.01442 6.10262 9.03786 6.0617 9.05138C5.86697 9.12064 5.71675 9.24232 5.61104 9.4164L4.10886 3.27562C5.58137 1.8118 7.36081 0.820623 9.44719 0.302106Z" fill="#8C0E85"/>
<path d="M11.8702 2.39677L7.3024 9.27601C6.9389 9.06074 6.89254 8.82207 7.1633 8.56001C7.23934 8.487 7.28849 8.41306 7.31074 8.33819C7.57502 7.4481 7.24954 6.85283 7.6696 5.90658C7.70298 5.83358 7.7614 5.76432 7.84485 5.6988C8.11562 5.48166 8.25564 5.18029 8.26491 4.79467L8.41513 4.57285C8.52084 4.68891 8.56627 4.82556 8.55144 4.9828C8.54216 5.07827 8.55329 5.08295 8.58482 4.99684L9.5362 2.48662C9.79028 1.81273 10.0425 1.43461 10.2929 1.35224C10.5914 1.25116 10.8075 1.06584 10.941 0.796289C10.9638 0.75033 10.9922 0.710317 11.0243 0.678866C11.0564 0.647415 11.0916 0.625235 11.1274 0.613778C11.4297 0.510823 11.5521 0.656832 11.4946 1.0518C11.4019 1.67328 11.5271 2.1216 11.8702 2.39677Z" fill="#DC37D0"/>
<path d="M16.3322 0.582892C18.018 1.0621 19.5054 1.90071 20.7943 3.09873C19.8957 4.94349 19.9319 6.58889 19.3978 8.48981C19.229 9.09631 19.0844 9.70936 18.9638 10.329L16.7384 7.02973C16.8478 6.83505 16.8969 6.63101 16.8858 6.41761C16.8822 6.33772 16.8449 6.24957 16.7801 6.16772C16.5557 5.88131 16.4027 5.56028 16.3211 5.20462C16.1124 4.26118 16.6827 5.24393 17.0555 5.36748C17.1399 5.39477 17.2119 5.45151 17.2586 5.52752C17.3773 5.71471 17.3587 5.56496 17.2029 5.07827C17.1733 4.98467 17.1964 4.96783 17.2725 5.02773C17.4635 5.17186 17.6156 5.34221 17.7287 5.53876C17.7695 5.61176 17.7797 5.60895 17.7593 5.53033C17.6072 4.91073 17.3671 4.32202 17.0388 3.76419C16.9961 3.68932 16.973 3.60227 16.9693 3.50306C16.9359 2.31815 15.7091 2.11879 16.3322 0.582892Z" fill="#8C0E85"/>
<path d="M13.8397 2.81794L16.7384 7.02973L18.9638 10.329L20.0348 11.8705C20.056 11.9011 20.0723 11.9316 20.0821 11.9588C20.0919 11.986 20.0948 12.0088 20.0905 12.0249C20.0515 12.1709 18.8526 11.5195 18.7079 11.4521L16.5186 10.402L14.894 9.57645C14.7883 9.52217 14.7484 9.5568 14.7744 9.68034C15.2584 12.0427 15.8472 14.3919 16.5409 16.7281C16.8385 17.197 16.7022 18.2303 16.9192 18.9772C16.9331 19.0239 16.9386 19.0711 16.9352 19.1156C16.9319 19.1601 16.9198 19.201 16.8997 19.2355C16.399 20.0778 15.9956 18.0843 15.9483 17.9186C15.9349 17.8717 15.9118 17.83 15.8817 17.7987C15.8516 17.7673 15.8158 17.7475 15.7786 17.7417C15.6117 17.7136 15.5097 17.811 15.4726 18.0337C15.3168 18.9154 15.417 19.7465 15.7731 20.5271L14.4294 20.645C14.1884 19.8251 14.0724 18.9706 14.0817 18.0814C14.0824 18.0439 14.0683 18.0076 14.0423 17.9803C14.0163 17.953 13.9805 17.9369 13.9426 17.9354L11.5475 17.8512C11.4267 17.8464 11.3088 17.8888 11.2185 17.9694C11.1283 18.0501 11.0727 18.1627 11.0634 18.2836C10.8817 20.7002 10.5952 22.8688 10.2038 24.7894C8.83889 24.5667 7.61303 24.1183 6.52627 23.4444C6.75252 23.1562 7.05759 22.9793 7.44149 22.9138C7.45901 22.911 7.4758 22.9048 7.49085 22.8954C7.50591 22.886 7.5189 22.8738 7.52905 22.8593C7.5392 22.8449 7.54629 22.8286 7.54989 22.8114C7.55348 22.7942 7.55351 22.7765 7.54998 22.7593C7.35154 21.829 7.39049 20.937 7.66682 20.0834L8.11469 17.7698L8.18424 17.0678C9.07071 14.7092 9.70775 12.2608 10.0954 9.72246C10.0991 9.69064 10.087 9.68221 10.0592 9.69719L6.99361 11.2527L5.95043 11.7862C5.79835 11.6028 5.84935 11.38 6.10343 11.118L7.3024 9.27601L11.8702 2.39677L12.6213 1.30451C12.6314 1.28932 12.6452 1.27697 12.6614 1.26853C12.6775 1.26009 12.6956 1.25582 12.714 1.2561C12.7323 1.25638 12.7505 1.26119 12.7668 1.27012C12.7831 1.27904 12.7972 1.29182 12.8076 1.30732L13.8397 2.81794ZM12.6213 5.13162C12.5267 5.1597 11.3333 15.5431 11.2276 17.2419C11.2264 17.2607 11.229 17.2795 11.235 17.2972C11.2411 17.3149 11.2505 17.3311 11.2628 17.3448C11.275 17.3585 11.2898 17.3694 11.3063 17.3768C11.3227 17.3842 11.3404 17.388 11.3583 17.3879L13.6811 17.4132C13.7257 17.4137 13.7699 17.4041 13.8107 17.3851C13.8515 17.3661 13.8881 17.3381 13.918 17.3028C13.9479 17.2676 13.9706 17.2259 13.9844 17.1806C13.9982 17.1353 14.0029 17.0873 13.9983 17.0397L12.7576 5.28324C12.7552 5.26062 12.7496 5.23842 12.7412 5.21813C12.7328 5.19783 12.7218 5.17991 12.7089 5.16556C12.696 5.15121 12.6815 5.14075 12.6664 5.1349C12.6513 5.12905 12.6359 5.12793 12.6213 5.13162ZM8.72947 20.5215C9.49726 20.8556 9.7977 17.1015 9.81161 16.7196C9.8283 16.2507 10.0508 15.9643 10.0981 15.56C10.2799 14.0437 10.5803 12.1148 10.9994 9.773C11.0421 9.53901 10.9809 9.41172 10.8158 9.39113C10.7799 9.38604 10.7428 9.39776 10.7123 9.42388C10.6818 9.45 10.6601 9.48852 10.6517 9.53152C10.3606 10.9935 10.0555 12.4545 9.7365 13.9146C9.46388 15.1697 9.27471 16.8797 8.863 18.3398C8.67384 19.0108 8.60429 19.5836 8.557 20.2323C8.55213 20.2926 8.56615 20.353 8.5971 20.4049C8.62804 20.4568 8.67434 20.4976 8.72947 20.5215ZM15.6785 16.992C15.7267 16.8822 15.7337 16.7049 15.698 16.4978C15.3085 14.171 14.8931 12.1166 14.4517 10.3346C14.3108 9.77113 14.2598 9.74399 14.2987 10.2531C14.4804 12.5818 14.8662 14.8711 15.4559 17.1212C15.4967 17.2821 15.545 17.2999 15.6006 17.1745L15.6785 16.992Z" fill="#FFB1FA"/>
<path d="M16.3211 5.20462C16.4027 5.56028 16.5557 5.88131 16.7801 6.16772C16.8449 6.24957 16.8822 6.33772 16.8858 6.41761C16.8969 6.63101 16.8478 6.83505 16.7384 7.02973L13.8397 2.81794L15.0637 2.71125C15.1033 2.70718 15.1432 2.71585 15.1777 2.73602C15.2122 2.75618 15.2394 2.78682 15.2556 2.82356L16.3211 5.20462Z" fill="#EC38E2"/>
<path d="M20.7943 3.09873C22.1444 4.30985 23.1533 5.70161 23.8209 7.27401L21.2644 13.8163C21.2315 13.9001 21.1781 13.9719 21.1111 14.0226C21.0441 14.0732 20.9666 14.1001 20.8889 14.0999L18.872 14.0915C18.8304 14.0914 18.7889 14.0795 18.7518 14.0568C18.7147 14.0341 18.6833 14.0016 18.6606 13.9623C18.4566 13.6029 18.3796 13.2108 18.4297 12.7858L18.7079 11.4521C18.8526 11.5195 20.0515 12.1709 20.0905 12.0249C20.0948 12.0088 20.0919 11.986 20.0821 11.9588C20.0723 11.9316 20.056 11.9011 20.0348 11.8705L18.9638 10.329C19.0844 9.70936 19.229 9.09631 19.3978 8.48981C19.9319 6.58889 19.8957 4.94349 20.7943 3.09873Z" fill="#5D0157"/>
<path d="M4.10886 3.27562L5.61104 9.4164C5.61661 10.036 5.78074 10.6032 6.10343 11.118C5.84935 11.38 5.79835 11.6028 5.95043 11.7862C6.89254 13.4373 6.37605 14.1036 4.40095 13.7854C3.92433 13.7087 3.61369 13.4541 3.46904 13.0217L1.68866 7.6643C1.6635 7.59165 1.66546 7.49651 1.69423 7.39475C1.78139 7.08214 1.65714 6.96047 1.32146 7.02973C1.95943 5.60334 2.88856 4.35197 4.10886 3.27562Z" fill="#580152"/>
<path d="M8.26491 4.79467C8.25564 5.18029 8.11562 5.48166 7.84485 5.6988C7.7614 5.76432 7.70298 5.83358 7.6696 5.90658C7.24954 6.85283 7.57502 7.4481 7.31074 8.33819C7.28849 8.41306 7.23934 8.487 7.1633 8.56001C6.89254 8.82207 6.9389 9.06074 7.3024 9.27601L6.10343 11.118C5.78074 10.6032 5.61661 10.036 5.61104 9.4164C5.71675 9.24232 5.86697 9.12064 6.0617 9.05138C6.10262 9.03786 6.13885 9.01442 6.16635 8.98369C6.19386 8.95295 6.21156 8.91611 6.21748 8.8773C6.46228 7.35544 6.98341 5.93654 7.78087 4.62059C7.84207 4.5195 7.87916 4.52418 7.89214 4.63463C7.92553 4.90418 7.47209 5.51629 7.40532 5.96555C7.39049 6.06102 7.41089 6.0685 7.46652 5.98801L8.26491 4.79467Z" fill="#A7099D"/>
<path d="M11.2276 17.2419C11.3333 15.5431 12.5267 5.1597 12.6213 5.13162C12.6359 5.12793 12.6513 5.12905 12.6664 5.1349C12.6815 5.14075 12.696 5.15121 12.7089 5.16556C12.7218 5.17991 12.7328 5.19783 12.7412 5.21813C12.7496 5.23842 12.7552 5.26062 12.7576 5.28324L13.9983 17.0397C14.0029 17.0873 13.9982 17.1353 13.9844 17.1806C13.9706 17.2259 13.9479 17.2676 13.918 17.3028C13.8881 17.3381 13.8515 17.3661 13.8107 17.3851C13.7699 17.4041 13.7257 17.4137 13.6811 17.4132L11.3583 17.3879C11.3404 17.388 11.3227 17.3842 11.3063 17.3768C11.2898 17.3694 11.275 17.3585 11.2628 17.3448C11.2505 17.3311 11.2411 17.3149 11.235 17.2972C11.229 17.2795 11.2264 17.2607 11.2276 17.2419Z" fill="white"/>
<path d="M5.95043 11.7862L6.99361 11.2527C7.54998 11.833 7.73265 12.5556 7.54163 13.4204C7.52023 13.5143 7.53115 13.6075 7.57223 13.6815C7.69463 13.9024 7.76603 13.8903 7.78643 13.645C7.79571 13.5421 7.82723 13.5318 7.88102 13.6141C7.93851 13.7059 7.97374 13.8079 7.98673 13.9202C7.99569 13.9963 7.97201 14.0859 7.91996 14.1729L7.01309 15.6526C6.42705 15.7519 5.83637 15.969 5.24106 16.3041C4.26927 15.6115 3.19178 15.2567 2.00857 15.2399C1.66363 15.2362 1.33074 15.1894 1.0099 15.0995C0.911541 15.0725 0.818249 15.0755 0.748406 15.1079C0.616732 15.1697 0.506387 15.2614 0.417368 15.3831C-0.355981 12.4704 -0.0546157 9.68596 1.32146 7.02973C1.65714 6.96047 1.78139 7.08214 1.69423 7.39475C1.66546 7.49651 1.6635 7.59165 1.68866 7.6643L3.46904 13.0217C3.61369 13.4541 3.92433 13.7087 4.40095 13.7854C6.37605 14.1036 6.89254 13.4373 5.95043 11.7862Z" fill="#80147A"/>
<path d="M23.8209 7.27401C25.0987 10.0032 25.3379 12.7802 24.5386 15.6049C24.0731 15.5637 23.6113 15.4917 23.1533 15.3887C22.5329 15.2511 22.0517 15.4477 21.4563 15.5291C21.2183 15.5621 20.9943 15.6635 20.811 15.8211C19.5897 16.8685 19.0918 16.1721 18.0681 15.4729C18.0322 15.4479 18.0032 15.415 17.9837 15.3771C17.9642 15.3393 17.955 15.2979 17.9568 15.2567C17.9828 14.3994 18.1404 13.5758 18.4297 12.7858C18.3796 13.2108 18.4566 13.6029 18.6606 13.9623C18.6833 14.0016 18.7147 14.0341 18.7518 14.0568C18.7889 14.0795 18.8304 14.0914 18.872 14.0915L20.8889 14.0999C20.9666 14.1001 21.0441 14.0732 21.1111 14.0226C21.1781 13.9719 21.2315 13.9001 21.2644 13.8163L23.8209 7.27401Z" fill="#791173"/>
<path d="M8.72947 20.5215C8.67434 20.4976 8.62804 20.4568 8.5971 20.4049C8.56615 20.353 8.55213 20.2926 8.557 20.2323C8.60429 19.5836 8.67384 19.0108 8.863 18.3398C9.27471 16.8797 9.46388 15.1697 9.7365 13.9146C10.0555 12.4545 10.3606 10.9935 10.6517 9.53152C10.6601 9.48852 10.6818 9.45 10.7123 9.42388C10.7428 9.39776 10.7799 9.38604 10.8158 9.39113C10.9809 9.41172 11.0421 9.53901 10.9994 9.773C10.5803 12.1148 10.2799 14.0437 10.0981 15.56C10.0508 15.9643 9.8283 16.2507 9.81161 16.7196C9.7977 17.1015 9.49726 20.8556 8.72947 20.5215Z" fill="#F86FF0"/>
<path d="M16.5186 10.402C16.7022 10.9336 16.6401 11.4334 16.3322 11.9014C16.3033 11.9456 16.2818 11.9907 16.2694 12.0338C16.2569 12.0768 16.2537 12.1169 16.2599 12.1513L16.5297 13.7012C16.5501 13.8135 16.5501 13.9043 16.5297 13.9736C16.2961 14.8065 16.5779 15.3662 17.3754 15.6526C17.164 15.6863 17.0935 15.7949 17.164 15.9784C17.176 16.0113 17.1999 16.0427 17.2338 16.0701C17.2677 16.0975 17.3105 16.1199 17.3587 16.1356C17.5553 16.1992 17.6397 16.3153 17.6119 16.4838C17.6052 16.5234 17.5855 16.561 17.555 16.5923C17.5245 16.6237 17.4844 16.6473 17.4394 16.6607C17.1408 16.7486 16.8413 16.7711 16.5409 16.7281C15.8472 14.3919 15.2584 12.0427 14.7744 9.68034C14.7484 9.5568 14.7883 9.52217 14.894 9.57645L16.5186 10.402Z" fill="#EC38E2"/>
<path d="M8.18424 17.0678C7.71132 17.051 7.44427 16.8011 7.01309 16.6887C5.91705 16.4023 7.83372 15.8071 7.01309 15.6526L7.91996 14.1729C7.97201 14.0859 7.99569 13.9963 7.98673 13.9202C7.97374 13.8079 7.93851 13.7059 7.88102 13.6141C7.82723 13.5318 7.79571 13.5421 7.78643 13.645C7.76603 13.8903 7.69463 13.9024 7.57223 13.6815C7.53115 13.6075 7.52023 13.5143 7.54163 13.4204C7.73265 12.5556 7.54998 11.833 6.99361 11.2527L10.0592 9.69719C10.087 9.68221 10.0991 9.69064 10.0954 9.72246C9.70775 12.2608 9.07071 14.7092 8.18424 17.0678Z" fill="#DC37D0"/>
<path d="M15.6785 16.992L15.6006 17.1745C15.545 17.2999 15.4967 17.2821 15.4559 17.1212C14.8662 14.8711 14.4804 12.5818 14.2987 10.2531C14.2598 9.74399 14.3108 9.77113 14.4517 10.3346C14.8931 12.1166 15.3085 14.171 15.698 16.4978C15.7337 16.7049 15.7267 16.8822 15.6785 16.992Z" fill="#F74FEB"/>
<path d="M16.5186 10.402L18.7079 11.4521L18.4297 12.7858C18.1404 13.5758 17.9828 14.3994 17.9568 15.2567C17.955 15.2979 17.9642 15.3393 17.9837 15.3771C18.0032 15.415 18.0322 15.4479 18.0681 15.4729C19.0918 16.1721 19.5897 16.8685 20.811 15.8211C20.9943 15.6635 21.2183 15.5621 21.4563 15.5291C22.0517 15.4477 22.5329 15.2511 23.1533 15.3887C23.6113 15.4917 24.0731 15.5637 24.5386 15.6049C24.4681 16.2676 24.2697 16.8731 23.9433 17.4216C23.0253 17.0659 22.0878 16.8975 21.1309 16.9162C20.5133 16.6485 20.2323 16.8469 20.288 17.5114C20.2918 17.5519 20.2822 17.5923 20.2608 17.6252C20.2394 17.6581 20.2076 17.6815 20.1711 17.6912C19.5517 17.8578 18.9972 17.7417 18.5076 17.343C18.9694 17.0641 19.14 16.7627 19.0195 16.4388C19.0027 16.3962 18.9776 16.3573 18.9456 16.3245C18.9136 16.2917 18.8753 16.2656 18.8331 16.2479L17.3754 15.6526C16.5779 15.3662 16.2961 14.8065 16.5297 13.9736C16.5501 13.9043 16.5501 13.8135 16.5297 13.7012L16.2599 12.1513C16.2537 12.1169 16.2569 12.0768 16.2694 12.0338C16.2818 11.9907 16.3033 11.9456 16.3322 11.9014C16.6401 11.4334 16.7022 10.9336 16.5186 10.402Z" fill="#A02C98"/>
<path d="M5.24106 16.3041C3.80007 16.7421 6.69874 17.5929 7.01309 17.6406C7.37287 17.8952 7.40996 18.1395 7.12436 18.3735C5.96434 19.3281 4.61515 18.556 3.31325 18.3819C2.832 18.3173 2.48149 18.0983 2.06699 17.8793C2.03061 17.8605 1.99982 17.8317 1.97781 17.7956C1.9558 17.7596 1.94337 17.7177 1.94181 17.6743C1.92141 16.8956 1.54308 16.6569 0.806824 16.9583L0.417368 15.3831C0.506387 15.2614 0.616732 15.1697 0.748406 15.1079C0.818249 15.0755 0.911541 15.0725 1.0099 15.0995C1.33074 15.1894 1.66363 15.2362 2.00857 15.2399C3.19178 15.2567 4.26927 15.6115 5.24106 16.3041Z" fill="#A4409D"/>
<path d="M7.01309 15.6526C7.83372 15.8071 5.91705 16.4023 7.01309 16.6887C7.44427 16.8011 7.71132 17.051 8.18424 17.0678L8.11469 17.7698L7.65847 17.8119C7.62295 17.8153 7.58433 17.8079 7.54569 17.7904C7.50706 17.7728 7.46947 17.7456 7.43592 17.7108C7.32465 17.5947 7.1837 17.5714 7.01309 17.6406C6.69874 17.5929 3.80007 16.7421 5.24106 16.3041C5.83637 15.969 6.42705 15.7519 7.01309 15.6526Z" fill="#F86FF0"/>
<path d="M17.3754 15.6526L18.8331 16.2479C18.8753 16.2656 18.9136 16.2917 18.9456 16.3245C18.9776 16.3573 19.0027 16.3962 19.0195 16.4388C19.14 16.7627 18.9694 17.0641 18.5076 17.343C18.2517 17.2288 18.0403 17.2859 17.8733 17.5143C17.8504 17.5454 17.8191 17.5703 17.7822 17.587C17.7454 17.6036 17.7041 17.6114 17.6619 17.6097C17.5655 17.606 17.4793 17.6256 17.4032 17.6687C17.3682 17.6878 17.338 17.7183 17.3151 17.7575C17.2923 17.7967 17.2777 17.8434 17.2725 17.8933C17.0305 20.1115 20.747 20.4569 20.747 18.9182C20.7469 18.8737 20.7572 18.8306 20.7767 18.7931C20.7962 18.7557 20.8243 18.7253 20.8582 18.7048C21.435 18.3585 22.0489 18.3145 22.6998 18.5728C22.7176 18.5796 22.7363 18.5836 22.7548 18.5845C22.7732 18.5854 22.7908 18.5833 22.8064 18.5782C22.8221 18.5731 22.8353 18.5652 22.8452 18.5551C22.8552 18.5449 22.8616 18.5328 22.864 18.5195L22.8834 18.4043C22.8887 18.3701 22.8791 18.3308 22.856 18.291C22.8328 18.2512 22.7969 18.2126 22.7527 18.1797C22.3057 17.854 21.6427 17.5302 20.7637 17.2082C20.7426 17.2004 20.7253 17.1849 20.7154 17.165C20.7056 17.145 20.7039 17.1223 20.7108 17.1015C20.7702 16.9162 20.9102 16.8544 21.1309 16.9162C22.0878 16.8975 23.0253 17.0659 23.9433 17.4216C22.9048 19.9767 21.206 21.9179 18.847 23.2451C18.8006 22.9549 18.6467 22.7659 18.3852 22.6779C18.3415 22.6625 18.3031 22.6382 18.2742 22.6075C18.2453 22.5768 18.2269 22.541 18.2211 22.5038C18.107 21.7485 18.8692 21.0213 18.4353 20.4794C18.41 20.4476 18.3761 20.4212 18.3359 20.4018C18.2956 20.3825 18.2499 20.3706 18.2016 20.367C17.4375 20.3015 16.628 20.3549 15.7731 20.5271C15.417 19.7465 15.3168 18.9154 15.4726 18.0337C15.5097 17.811 15.6117 17.7136 15.7786 17.7417C15.8158 17.7475 15.8516 17.7673 15.8817 17.7987C15.9118 17.83 15.9349 17.8717 15.9483 17.9186C15.9956 18.0843 16.399 20.0778 16.8997 19.2355C16.9198 19.201 16.9319 19.1601 16.9352 19.1156C16.9386 19.0711 16.9331 19.0239 16.9192 18.9772C16.7022 18.2303 16.8385 17.197 16.5409 16.7281C16.8413 16.7711 17.1408 16.7486 17.4394 16.6607C17.4844 16.6473 17.5245 16.6237 17.555 16.5923C17.5855 16.561 17.6052 16.5234 17.6119 16.4838C17.6397 16.3153 17.5553 16.1992 17.3587 16.1356C17.3105 16.1199 17.2677 16.0975 17.2338 16.0701C17.1999 16.0427 17.176 16.0113 17.164 15.9784C17.0935 15.7949 17.164 15.6863 17.3754 15.6526Z" fill="#F481EE"/>
<path d="M7.01309 17.6406C7.1837 17.5714 7.32465 17.5947 7.43592 17.7108C7.46947 17.7456 7.50706 17.7728 7.54569 17.7904C7.58433 17.8079 7.62295 17.8153 7.65847 17.8119L8.11469 17.7698L7.66682 20.0834C6.26292 20.441 4.81266 20.3839 3.31603 19.9122C3.27004 19.8973 3.22334 19.8917 3.17948 19.8955C3.13562 19.8994 3.09575 19.9128 3.06289 19.9346C2.93121 20.0189 2.83014 20.1396 2.75967 20.2968C1.96407 19.3085 1.31312 18.1956 0.806824 16.9583C1.54308 16.6569 1.92141 16.8956 1.94181 17.6743C1.94337 17.7177 1.9558 17.7596 1.97781 17.7956C1.99982 17.8317 2.03061 17.8605 2.06699 17.8793C2.48149 18.0983 2.832 18.3173 3.31325 18.3819C4.61515 18.556 5.96434 19.3281 7.12436 18.3735C7.40996 18.1395 7.37287 17.8952 7.01309 17.6406Z" fill="#E864E0"/>
<path d="M21.1309 16.9162C20.9102 16.8544 20.7702 16.9162 20.7108 17.1015C20.7039 17.1223 20.7056 17.145 20.7154 17.165C20.7253 17.1849 20.7426 17.2004 20.7637 17.2082C21.6427 17.5302 22.3057 17.854 22.7527 18.1797C22.7969 18.2126 22.8328 18.2512 22.856 18.291C22.8791 18.3308 22.8887 18.3701 22.8834 18.4043L22.864 18.5195C22.8616 18.5328 22.8552 18.5449 22.8452 18.5551C22.8353 18.5652 22.8221 18.5731 22.8064 18.5782C22.7908 18.5833 22.7732 18.5854 22.7548 18.5845C22.7363 18.5836 22.7176 18.5796 22.6998 18.5728C22.0489 18.3145 21.435 18.3585 20.8582 18.7048C20.8243 18.7253 20.7962 18.7557 20.7767 18.7931C20.7572 18.8306 20.7469 18.8737 20.747 18.9182C20.747 20.4569 17.0305 20.1115 17.2725 17.8933C17.2777 17.8434 17.2923 17.7967 17.3151 17.7575C17.338 17.7183 17.3682 17.6878 17.4032 17.6687C17.4793 17.6256 17.5655 17.606 17.6619 17.6097C17.7041 17.6114 17.7454 17.6036 17.7822 17.587C17.8191 17.5703 17.8504 17.5454 17.8733 17.5143C18.0403 17.2859 18.2517 17.2288 18.5076 17.343C18.9972 17.7417 19.5517 17.8578 20.1711 17.6912C20.2076 17.6815 20.2394 17.6581 20.2608 17.6252C20.2822 17.5923 20.2918 17.5519 20.288 17.5114C20.2323 16.8469 20.5133 16.6485 21.1309 16.9162Z" fill="#DB59D3"/>
<path d="M14.4294 20.645C14.3145 22.1014 14.5352 23.4828 15.0915 24.7894L13.8119 25H10.9605L10.2038 24.7894C10.5952 22.8688 10.8817 20.7002 11.0634 18.2836C11.0727 18.1627 11.1283 18.0501 11.2185 17.9694C11.3088 17.8888 11.4267 17.8464 11.5475 17.8512L13.9426 17.9354C13.9805 17.9369 14.0163 17.953 14.0423 17.9803C14.0683 18.0076 14.0824 18.0439 14.0817 18.0814C14.0724 18.9706 14.1884 19.8251 14.4294 20.645Z" fill="#FFEAFD"/>
<path d="M7.66682 20.0834C7.39049 20.937 7.35154 21.829 7.54998 22.7593C7.55351 22.7765 7.55348 22.7942 7.54989 22.8114C7.54629 22.8286 7.5392 22.8449 7.52905 22.8593C7.5189 22.8738 7.50591 22.886 7.49085 22.8954C7.4758 22.9048 7.45901 22.911 7.44149 22.9138C7.05759 22.9793 6.75252 23.1562 6.52627 23.4444C5.0352 22.6863 3.77967 21.6371 2.75967 20.2968C2.83014 20.1396 2.93121 20.0189 3.06289 19.9346C3.09575 19.9128 3.13562 19.8994 3.17948 19.8955C3.22334 19.8917 3.27004 19.8973 3.31603 19.9122C4.81266 20.3839 6.26292 20.441 7.66682 20.0834Z" fill="#FD8FF7"/>
<path d="M18.847 23.2451C18.0161 23.7842 17.1297 24.2016 16.1876 24.4974C15.8398 24.6069 15.4615 24.503 15.0915 24.7894C14.5352 23.4828 14.3145 22.1014 14.4294 20.645L15.7731 20.5271C16.628 20.3549 17.4375 20.3015 18.2016 20.367C18.2499 20.3706 18.2956 20.3825 18.3359 20.4018C18.3761 20.4212 18.41 20.4476 18.4353 20.4794C18.8692 21.0213 18.107 21.7485 18.2211 22.5038C18.2269 22.541 18.2453 22.5768 18.2742 22.6075C18.3031 22.6382 18.3415 22.6625 18.3852 22.6779C18.6467 22.7659 18.8006 22.9549 18.847 23.2451Z" fill="#FFA6F9"/>
</svg>
