<svg width="25" height="25" viewBox="0 0 25 25" fill="none" xmlns="http://www.w3.org/2000/svg">
<path d="M15.7104 0.367766C15.9479 1.76634 16.2762 3.14337 16.6954 4.49888C16.2725 4.1132 16.1992 4.24987 16.4756 4.9089L16.3698 5.16447C16.3629 5.18086 16.3515 5.19475 16.3368 5.20494C16.322 5.21514 16.3043 5.22133 16.2851 5.22298C16.266 5.22464 16.2459 5.22172 16.2268 5.21446C16.2076 5.2072 16.1899 5.19583 16.1751 5.18132L15.8718 4.88644C15.8422 4.85821 15.8189 4.82201 15.8035 4.78033C15.7881 4.73865 15.7811 4.69246 15.7828 4.64492C15.8301 3.56089 15.243 2.29431 13.9131 2.95428L12.8224 1.23555C12.809 1.21482 12.7908 1.19771 12.7693 1.18575C12.7478 1.1738 12.7238 1.1674 12.6995 1.16712C12.6752 1.16684 12.6513 1.1727 12.63 1.18416C12.6087 1.19562 12.5907 1.21232 12.5776 1.23274L8.34856 7.6583C8.09073 7.27262 8.10372 6.93468 8.38751 6.64448C8.4555 6.57585 8.49618 6.49372 8.50158 6.41419L8.58505 5.12515C8.58646 5.1094 8.58417 5.09341 8.57841 5.07872C8.57265 5.06403 8.5636 5.05113 8.55215 5.04126C8.54069 5.03139 8.52721 5.02488 8.51299 5.02235C8.49878 5.01983 8.48431 5.02138 8.47098 5.02685C8.42461 5.04745 8.39493 5.08115 8.38195 5.12796C8.34856 5.24404 8.29384 5.25621 8.21779 5.16447C8.09723 5.01843 8.0017 5.054 7.93122 5.27118C8.01283 4.41744 8.23727 3.61331 8.60453 2.85879C9.03021 1.98258 8.96344 1.3198 8.97735 0.426742C10.337 0.0560368 11.7151 -0.0731483 13.1118 0.0391866C13.8102 0.095354 14.8312 0.0139112 15.7104 0.367766Z" fill="#27AD4C"/>
<path d="M8.97735 0.426742C8.96344 1.3198 9.03021 1.98258 8.60453 2.85879C8.23727 3.61331 8.01283 4.41744 7.93122 5.27118L7.51666 6.36926C7.48698 6.44602 7.43597 6.52091 7.36363 6.59393C7.21154 6.74932 7.18371 6.92063 7.28017 7.10786C7.29948 7.14359 7.30775 7.18373 7.30373 7.22223C7.29972 7.26072 7.28364 7.29549 7.25791 7.3213C6.7571 7.83616 6.49371 8.45775 6.46774 9.18606C6.46604 9.2275 6.47435 9.27004 6.49212 9.31075C6.50989 9.35147 6.53669 9.3894 6.57069 9.42196L6.94629 9.77581C6.73299 10.2645 6.41395 10.7344 5.98919 11.1856L4.1835 3.21546C5.5227 1.89927 7.12065 0.969694 8.97735 0.426742Z" fill="#147E29"/>
<path d="M15.7104 0.367766C16.2576 0.384616 16.7482 0.568097 17.1823 0.918207C17.518 1.20841 17.6274 1.51077 17.5106 1.82531C17.0292 3.12559 17.6302 3.51595 17.48 4.69266C17.471 4.77071 17.4936 4.86003 17.544 4.94541L18.5011 6.54338C18.5567 6.63886 18.6133 6.70907 18.6708 6.754C19.1623 7.12845 19.3079 7.61711 19.1076 8.21998C18.9499 7.63958 18.6263 7.11441 18.1366 6.64448C17.9548 6.47223 17.825 6.26535 17.7471 6.02383C17.556 5.42471 17.3937 5.21782 17.2602 5.40318C17.2527 5.41406 17.2427 5.42301 17.2311 5.42913C17.2195 5.43525 17.2067 5.43831 17.194 5.43803C17.1813 5.43775 17.1692 5.43412 17.1588 5.42751C17.1485 5.4209 17.1402 5.41154 17.135 5.40037L16.6954 4.49888C16.2762 3.14337 15.9479 1.76634 15.7104 0.367766Z" fill="#1B9137"/>
<path d="M17.1823 0.918207C18.2284 1.25147 19.179 1.76634 20.0341 2.46281C19.7466 2.83726 19.7206 3.21826 19.9562 3.60582C20.0071 3.68852 20.0351 3.77698 20.0369 3.86138C20.0508 5.38633 20.0536 7.43082 19.1994 8.4306L19.1076 8.21998C19.3079 7.61711 19.1623 7.12845 18.6708 6.754C18.6133 6.70907 18.5567 6.63886 18.5011 6.54338L17.544 4.94541C17.4936 4.86003 17.471 4.77071 17.48 4.69266C17.6302 3.51595 17.0292 3.12559 17.5106 1.82531C17.6274 1.51077 17.518 1.20841 17.1823 0.918207Z" fill="#147E29"/>
<path d="M13.9131 2.95428L17.2991 7.86893L18.7598 10.0454L20.0007 12.0169C20.0508 12.0955 20.0341 12.1133 19.9506 12.0703L17.8778 11.0283L14.8062 9.53991C14.7264 9.50247 14.6968 9.52774 14.7172 9.61574C15.1735 11.5891 15.6594 13.5606 16.1751 15.5302C16.3383 16.1574 16.4848 16.6105 16.6147 16.8894C16.6218 16.9052 16.6323 16.9193 16.6456 16.9308C16.6588 16.9424 16.6746 16.9511 16.6919 16.9566C16.7092 16.9621 16.7278 16.9642 16.7465 16.9628C16.7653 16.9614 16.7838 16.9565 16.8011 16.9484L17.6608 16.544C17.8723 16.4448 17.8649 16.3661 17.6386 16.3081C16.8948 16.1209 16.9708 15.9954 17.8667 15.9318C18.4139 15.9617 18.8349 16.1995 19.1299 16.6451C18.9982 16.9521 18.8015 17.1309 18.54 17.1815C17.7907 17.3257 17.2064 17.6187 16.7872 18.0605L17.4549 19.7764C17.6478 20.2707 17.9938 20.398 18.4927 20.1584C18.9731 19.9281 19.4656 19.8972 19.9701 20.0657C20.0539 20.0946 20.1448 20.0895 20.2233 20.0516C20.9383 19.6922 22.0958 19.4759 22.6494 18.9985C23.2652 18.4668 23.102 18.0746 22.1597 17.8218C21.7294 17.5035 21.3167 17.306 20.9216 17.2292C20.8671 17.2178 20.8178 17.1989 20.7808 17.1752C20.7437 17.1514 20.721 17.1241 20.7158 17.0972C20.7065 17.0467 20.7306 16.9933 20.7881 16.9372C21.4364 16.9624 21.9566 17.0972 22.7663 17.1983C23.3042 17.2676 23.5722 17.6505 23.5704 18.347C23.1178 19.2082 22.5882 19.9702 21.9817 20.633C20.5757 20.7846 19.2124 21.0917 17.8917 21.5541C17.8755 21.5598 17.8607 21.5688 17.8481 21.5808C17.8356 21.5928 17.8256 21.6074 17.8188 21.6237C17.812 21.64 17.8086 21.6577 17.8087 21.6757C17.8088 21.6937 17.8124 21.7116 17.8194 21.7282C18.0958 22.3573 18.0123 22.8488 17.569 23.2026C17.5388 23.226 17.5178 23.2594 17.5097 23.2969C17.5015 23.3345 17.5068 23.3737 17.5245 23.4077C17.6024 23.5612 17.6469 23.7138 17.658 23.8654C16.764 24.3503 15.8134 24.6546 14.8062 24.7781L14.4278 21.8911C14.5558 21.0121 14.183 20.3465 14.1913 19.5096C14.1969 18.9966 14.1579 18.4799 14.0745 17.9594C14.0684 17.9216 14.0484 17.8873 14.0182 17.863C13.988 17.8387 13.9496 17.826 13.9103 17.8274L11.2811 17.9369C11.2416 17.9392 11.2042 17.9548 11.1757 17.9811C11.1472 18.0073 11.1293 18.0424 11.1253 18.0802L10.6328 23.1521L10.3434 24.8596C9.05989 24.6686 7.85795 24.2436 6.73762 23.5846C7.01029 23.0547 7.09375 22.4921 6.98803 21.8967C6.98041 21.8551 6.96132 21.8163 6.93286 21.7846C6.90439 21.7529 6.86765 21.7295 6.82666 21.717C5.7731 21.3931 4.701 21.234 3.61035 21.2396C3.25051 20.9625 2.94446 20.6012 2.6922 20.1556C2.8341 19.9281 3.01495 19.8494 3.28204 19.9449C4.48027 20.3624 5.82689 20.4149 7.3219 20.1022C7.40815 20.0844 7.48734 20.0449 7.55069 19.9878C7.61404 19.9308 7.65908 19.8586 7.68081 19.7792L8.08702 18.3133C8.20202 17.8976 8.04065 17.6617 7.60291 17.6056C6.72649 17.4904 5.60524 17.3949 4.88463 16.6619C5.27971 16.1471 5.88532 15.8644 6.70145 15.8138C6.63839 16.1752 6.71166 16.4803 6.92125 16.7293C7.26069 17.1309 7.78654 17.013 8.26787 16.9989C8.3093 16.9973 8.34932 16.9833 8.38296 16.9588C8.4166 16.9344 8.44237 16.9005 8.45707 16.8613C8.82711 15.9009 9.00796 14.6596 9.19159 13.9294C9.51247 12.6544 9.82594 11.3026 10.132 9.87411C10.1747 9.67565 10.1051 9.62416 9.92332 9.71965L7.43319 11.0171L5.69427 11.7894L5.98919 11.1856C6.41395 10.7344 6.73299 10.2645 6.94629 9.77581L8.34856 7.6583L12.5776 1.23274C12.5907 1.21232 12.6087 1.19562 12.63 1.18416C12.6513 1.1727 12.6752 1.16684 12.6995 1.16712C12.7238 1.1674 12.7478 1.1738 12.7693 1.18575C12.7908 1.19771 12.809 1.21482 12.8224 1.23555L13.9131 2.95428ZM13.4624 17.3809C14.2581 17.2208 14.0327 17.6056 13.9437 16.7462C13.5412 12.9212 13.1359 9.09712 12.7279 5.27399C12.7167 5.16166 12.6741 5.142 12.5999 5.21502C12.5535 5.25995 12.5275 5.30863 12.522 5.36105C12.0898 9.32835 11.6493 13.3022 11.2004 17.2826C11.1964 17.3208 11.2072 17.3591 11.2305 17.3895C11.2539 17.4198 11.2879 17.4399 11.3256 17.4455C12.0453 17.5466 12.7575 17.525 13.4624 17.3809ZM10.8081 9.436C10.3546 9.80109 9.31957 15.9683 9.30288 16.8585C9.30197 16.9124 9.31032 16.9632 9.32701 17.0053C9.3437 17.0474 9.36809 17.0792 9.39748 17.0972C9.45312 17.1309 9.5134 17.1309 9.57832 17.0972C9.61035 17.0805 9.63984 17.0518 9.66447 17.0133C9.6891 16.9748 9.70818 16.9276 9.72022 16.8754C10.2878 14.4546 10.6847 11.9954 10.911 9.49778C10.9203 9.39481 10.886 9.37422 10.8081 9.436ZM15.6492 17.1281C15.6826 17.1375 15.7318 17.1225 15.7967 17.0832C15.8303 17.0633 15.8558 17.0315 15.869 16.9932C15.8821 16.9548 15.8822 16.9122 15.869 16.8726C15.154 14.8028 15.0483 12.4466 14.4556 10.2897C14.4515 10.2745 14.4454 10.2598 14.4376 10.2468C14.4298 10.2337 14.4205 10.2225 14.4103 10.2138C14.4002 10.2051 14.3893 10.1991 14.3784 10.1962C14.3675 10.1934 14.3569 10.1936 14.3471 10.1971C14.0995 10.2926 15.0789 15.9261 15.2347 16.6844C15.2563 16.7899 15.3065 16.8872 15.3797 16.9656C15.4529 17.0439 15.5462 17.1002 15.6492 17.1281ZM15.9831 19.3046C16.0026 18.7429 16.4088 17.2798 15.3933 17.8218C15.3625 17.8374 15.3387 17.8657 15.326 17.9016C15.3133 17.9374 15.3125 17.9788 15.3237 18.0184L15.716 19.4282C15.7232 19.4542 15.7354 19.4773 15.7508 19.4944C15.7663 19.5115 15.7842 19.5217 15.8023 19.5237C15.8301 19.5274 15.8561 19.5246 15.8802 19.5152C15.9084 19.5052 15.9335 19.4795 15.952 19.4417C15.9705 19.4039 15.9814 19.3559 15.9831 19.3046ZM8.70469 20.0039C9.12203 19.7512 9.45312 19.2485 9.69796 18.4958C9.81481 18.1382 9.70074 17.8864 9.35574 17.7404C9.34461 17.7366 9.23146 17.7778 9.0163 17.8639C8.98249 17.8775 8.95211 17.9028 8.92819 17.9373C8.90427 17.9718 8.88764 18.0143 8.87997 18.0605L8.58505 19.9112C8.5665 20.0329 8.60638 20.0638 8.70469 20.0039Z" fill="#ABFE79"/>
<path d="M20.0341 2.46281C21.7443 3.78836 23.0594 5.44343 23.9794 7.42801C23.575 7.5909 23.3496 7.76595 23.3033 7.95318C22.8581 9.73743 22.2516 11.4562 21.4837 13.1094C21.3074 13.4875 21.006 13.6804 20.5794 13.6879L18.885 13.7188C18.8462 13.7195 18.8085 13.7065 18.7789 13.6823C18.7493 13.658 18.7296 13.6241 18.7236 13.5868C18.642 13.0775 18.6828 12.5739 18.8461 12.0759C18.857 12.0425 18.8596 12.007 18.8539 11.9724C18.8481 11.9377 18.8341 11.905 18.813 11.8771C18.7919 11.8492 18.7644 11.8268 18.7328 11.8121C18.7012 11.7973 18.6666 11.7905 18.6318 11.7922C18.3128 11.8072 18.0151 11.7398 17.7387 11.59C17.6274 11.371 17.6738 11.1837 17.8778 11.0283L19.9506 12.0703C20.0341 12.1133 20.0508 12.0955 20.0007 12.0169L18.7598 10.0454C19.077 9.55302 19.2235 9.01474 19.1994 8.4306C20.0536 7.43082 20.0508 5.38633 20.0369 3.86138C20.0351 3.77698 20.0071 3.68852 19.9562 3.60582C19.7206 3.21826 19.7466 2.83726 20.0341 2.46281Z" fill="#0C6411"/>
<path d="M16.4756 4.9089C16.8169 5.39943 17.0413 5.94332 17.1489 6.54057C17.1633 6.62245 17.2084 6.70067 17.2769 6.76243C17.6404 7.09007 17.6478 7.45891 17.2991 7.86893L13.9131 2.95428C15.243 2.29431 15.8301 3.56089 15.7828 4.64492C15.7811 4.69246 15.7881 4.73865 15.8035 4.78033C15.8189 4.82201 15.8422 4.85821 15.8718 4.88644L16.1751 5.18132C16.1899 5.19583 16.2076 5.2072 16.2268 5.21446C16.2459 5.22172 16.266 5.22464 16.2851 5.22298C16.3043 5.22133 16.322 5.21514 16.3368 5.20494C16.3515 5.19475 16.3629 5.18086 16.3698 5.16447L16.4756 4.9089Z" fill="#29D452"/>
<path d="M4.1835 3.21546L5.98919 11.1856L5.69427 11.7894L4.23636 12.9296C3.86725 13.2179 3.57696 13.1215 3.36551 12.6404C2.77196 11.283 2.36575 9.78986 2.14688 8.161C2.35833 8.11607 5.0154 7.88859 4.31983 7.49822C3.66878 7.13126 3.24124 6.64167 3.0372 6.02944C3.0251 5.99128 3.00254 5.95622 2.97149 5.92734C2.94045 5.89845 2.90187 5.87661 2.85914 5.86375L2.08845 5.62223C2.61152 4.71045 3.30987 3.90819 4.1835 3.21546Z" fill="#095B0D"/>
<path d="M16.6954 4.49888L17.135 5.40037C17.1402 5.41154 17.1485 5.4209 17.1588 5.42751C17.1692 5.43412 17.1813 5.43775 17.194 5.43803C17.2067 5.43831 17.2195 5.43525 17.2311 5.42913C17.2427 5.42301 17.2527 5.41406 17.2602 5.40318C17.3937 5.21782 17.556 5.42471 17.7471 6.02383C17.825 6.26535 17.9548 6.47223 18.1366 6.64448C18.6263 7.11441 18.9499 7.63958 19.1076 8.21998L19.1994 8.4306C19.2235 9.01474 19.077 9.55302 18.7598 10.0454L17.2991 7.86893C17.6478 7.45891 17.6404 7.09007 17.2769 6.76243C17.2084 6.70067 17.1633 6.62245 17.1489 6.54057C17.0413 5.94332 16.8169 5.39943 16.4756 4.9089C16.1992 4.24987 16.2725 4.1132 16.6954 4.49888Z" fill="#10AA24"/>
<path d="M8.34856 7.6583L6.94629 9.77581L6.57069 9.42196C6.53669 9.3894 6.50989 9.35147 6.49212 9.31075C6.47435 9.27004 6.46604 9.2275 6.46774 9.18606C6.49371 8.45775 6.7571 7.83616 7.25791 7.3213C7.28364 7.29549 7.29972 7.26072 7.30373 7.22223C7.30775 7.18373 7.29948 7.14359 7.28017 7.10786C7.18371 6.92063 7.21154 6.74932 7.36363 6.59393C7.43597 6.52091 7.48698 6.44602 7.51666 6.36926L7.93122 5.27118C8.0017 5.054 8.09723 5.01843 8.21779 5.16447C8.29384 5.25621 8.34856 5.24404 8.38195 5.12796C8.39493 5.08115 8.42461 5.04745 8.47098 5.02685C8.48431 5.02138 8.49878 5.01983 8.51299 5.02235C8.52721 5.02488 8.54069 5.03139 8.55215 5.04126C8.5636 5.05113 8.57265 5.06403 8.57841 5.07872C8.58417 5.09341 8.58646 5.1094 8.58505 5.12515L8.50158 6.41419C8.49618 6.49372 8.4555 6.57585 8.38751 6.64448C8.10372 6.93468 8.09073 7.27262 8.34856 7.6583Z" fill="#10AA24"/>
<path d="M13.4624 17.3809C12.7575 17.525 12.0453 17.5466 11.3256 17.4455C11.2879 17.4399 11.2539 17.4198 11.2305 17.3895C11.2072 17.3591 11.1964 17.3208 11.2004 17.2826C11.6493 13.3022 12.0898 9.32835 12.522 5.36105C12.5275 5.30863 12.5535 5.25995 12.5999 5.21502C12.6741 5.142 12.7167 5.16166 12.7279 5.27399C13.1359 9.09712 13.5412 12.9212 13.9437 16.7462C14.0327 17.6056 14.2581 17.2208 13.4624 17.3809Z" fill="white"/>
<path d="M2.08845 5.62223L2.85914 5.86375C2.90187 5.87661 2.94045 5.89845 2.97149 5.92734C3.00254 5.95622 3.0251 5.99128 3.0372 6.02944C3.24124 6.64167 3.66878 7.13126 4.31983 7.49822C5.0154 7.88859 2.35833 8.11607 2.14688 8.161C2.27857 7.45516 1.98087 7.10037 1.25377 7.09663C1.40772 6.53121 1.68595 6.03974 2.08845 5.62223Z" fill="#0C6411"/>
<path d="M1.25377 7.09663C1.98087 7.10037 2.27857 7.45516 2.14688 8.161C2.36575 9.78986 2.77196 11.283 3.36551 12.6404C3.57696 13.1215 3.86725 13.2179 4.23636 12.9296L5.69427 11.7894L7.43319 11.0171C7.74851 11.2118 7.86815 11.5039 7.7921 11.8933C7.78537 11.9289 7.79075 11.9667 7.80757 12.0022C7.8244 12.0377 7.85192 12.0691 7.8867 12.0927C8.01469 12.1826 8.07497 12.3193 8.06755 12.5027C8.01932 13.6673 7.99057 14.434 7.9813 14.8028C7.97952 14.9031 7.95117 14.9939 7.90061 15.0612C7.55005 15.5358 6.59851 15.3364 6.70145 15.8138C5.88532 15.8644 5.27971 16.1471 4.88463 16.6619C4.4979 16.9793 3.72164 16.4991 3.12067 16.4654C1.78889 16.3886 0.977396 16.3586 0.686185 16.3755C-0.389627 13.1983 -0.200432 10.1053 1.25377 7.09663Z" fill="#1A7727"/>
<path d="M23.9794 7.42801C25.4651 11.15 25.3288 14.7897 23.5704 18.347C23.5722 17.6505 23.3042 17.2676 22.7663 17.1983C21.9566 17.0972 21.4364 16.9624 20.7881 16.9372L19.1299 16.6451C18.8349 16.1995 18.4139 15.9617 17.8667 15.9318C17.2435 14.6905 17.5913 12.9268 17.7387 11.59C18.0151 11.7398 18.3128 11.8072 18.6318 11.7922C18.6666 11.7905 18.7012 11.7973 18.7328 11.8121C18.7644 11.8268 18.7919 11.8492 18.813 11.8771C18.8341 11.905 18.8481 11.9377 18.8539 11.9724C18.8596 12.007 18.857 12.0425 18.8461 12.0759C18.6828 12.5739 18.642 13.0775 18.7236 13.5868C18.7296 13.6241 18.7493 13.658 18.7789 13.6823C18.8085 13.7065 18.8462 13.7195 18.885 13.7188L20.5794 13.6879C21.006 13.6804 21.3074 13.4875 21.4837 13.1094C22.2516 11.4562 22.8581 9.73743 23.3033 7.95318C23.3496 7.76595 23.575 7.5909 23.9794 7.42801Z" fill="#1A7727"/>
<path d="M9.30288 16.8585C9.31957 15.9683 10.3546 9.80109 10.8081 9.436C10.886 9.37422 10.9203 9.39481 10.911 9.49778C10.6847 11.9954 10.2878 14.4546 9.72022 16.8754C9.70818 16.9276 9.6891 16.9748 9.66447 17.0133C9.63984 17.0518 9.61035 17.0805 9.57832 17.0972C9.5134 17.1309 9.45312 17.1309 9.39748 17.0972C9.36809 17.0792 9.3437 17.0474 9.32701 17.0053C9.31032 16.9632 9.30197 16.9124 9.30288 16.8585Z" fill="#2ADF61"/>
<path d="M17.8778 11.0283C17.6738 11.1837 17.6274 11.371 17.7387 11.59C17.5913 12.9268 17.2435 14.6905 17.8667 15.9318C16.9708 15.9954 16.8948 16.1209 17.6386 16.3081C17.8649 16.3661 17.8723 16.4448 17.6608 16.544L16.8011 16.9484C16.7838 16.9565 16.7653 16.9614 16.7465 16.9628C16.7278 16.9642 16.7092 16.9621 16.6919 16.9566C16.6746 16.9511 16.6588 16.9424 16.6456 16.9308C16.6323 16.9193 16.6218 16.9052 16.6147 16.8894C16.4848 16.6105 16.3383 16.1574 16.1751 15.5302C15.6594 13.5606 15.1735 11.5891 14.7172 9.61574C14.6968 9.52774 14.7264 9.50247 14.8062 9.53991L17.8778 11.0283Z" fill="#29D452"/>
<path d="M6.70145 15.8138C6.59851 15.3364 7.55005 15.5358 7.90061 15.0612C7.95117 14.9939 7.97952 14.9031 7.9813 14.8028C7.99057 14.434 8.01932 13.6673 8.06755 12.5027C8.07497 12.3193 8.01469 12.1826 7.8867 12.0927C7.85192 12.0691 7.8244 12.0377 7.80757 12.0022C7.79075 11.9667 7.78537 11.9289 7.7921 11.8933C7.86815 11.5039 7.74851 11.2118 7.43319 11.0171L9.92332 9.71965C10.1051 9.62416 10.1747 9.67565 10.132 9.87411C9.82594 11.3026 9.51247 12.6544 9.19159 13.9294C9.00796 14.6596 8.82711 15.9009 8.45707 16.8613C8.44237 16.9005 8.4166 16.9344 8.38296 16.9588C8.34932 16.9833 8.3093 16.9973 8.26787 16.9989C7.78654 17.013 7.26069 17.1309 6.92125 16.7293C6.71166 16.4803 6.63839 16.1752 6.70145 15.8138Z" fill="#29D452"/>
<path d="M15.6492 17.1281C15.5462 17.1002 15.4529 17.0439 15.3797 16.9656C15.3065 16.8872 15.2563 16.7899 15.2347 16.6844C15.0789 15.9261 14.0995 10.2926 14.3471 10.1971C14.3569 10.1936 14.3675 10.1934 14.3784 10.1962C14.3893 10.1991 14.4002 10.2051 14.4103 10.2138C14.4205 10.2225 14.4298 10.2337 14.4376 10.2468C14.4454 10.2598 14.4515 10.2745 14.4556 10.2897C15.0483 12.4466 15.154 14.8028 15.869 16.8726C15.8822 16.9122 15.8821 16.9548 15.869 16.9932C15.8558 17.0315 15.8303 17.0633 15.7967 17.0832C15.7318 17.1225 15.6826 17.1375 15.6492 17.1281Z" fill="#2ADF61"/>
<path d="M4.88463 16.6619C5.60524 17.3949 6.72649 17.4904 7.60291 17.6056C8.04065 17.6617 8.20202 17.8976 8.08702 18.3133L7.68081 19.7792C7.65908 19.8586 7.61404 19.9308 7.55069 19.9878C7.48734 20.0449 7.40815 20.0844 7.3219 20.1022C5.82689 20.4149 4.48027 20.3624 3.28204 19.9449C3.01495 19.8494 2.8341 19.9281 2.6922 20.1556C1.75365 19.0416 1.08498 17.7815 0.686185 16.3755C0.977396 16.3586 1.78889 16.3886 3.12067 16.4654C3.72164 16.4991 4.4979 16.9793 4.88463 16.6619Z" fill="#70BE48"/>
<path d="M19.1299 16.6451L20.7881 16.9372C20.7306 16.9933 20.7065 17.0467 20.7158 17.0972C20.721 17.1241 20.7437 17.1514 20.7808 17.1752C20.8178 17.1989 20.8671 17.2178 20.9216 17.2292C21.3167 17.306 21.7294 17.5035 22.1597 17.8218C21.4364 18.0895 20.7009 18.3329 19.9534 18.552C19.3441 18.7317 18.8155 18.625 18.1839 18.6503C18.1434 18.6512 18.1026 18.6418 18.0649 18.6227C18.0272 18.6037 17.9936 18.5756 17.9669 18.5407C17.6924 18.1738 17.2991 18.0137 16.7872 18.0605C17.2064 17.6187 17.7907 17.3257 18.54 17.1815C18.8015 17.1309 18.9982 16.9521 19.1299 16.6451Z" fill="#5EB141"/>
<path d="M15.3933 17.8218C16.4088 17.2798 16.0026 18.7429 15.9831 19.3046C15.9814 19.3559 15.9705 19.4039 15.952 19.4417C15.9335 19.4795 15.9084 19.5052 15.8802 19.5152C15.8561 19.5246 15.8301 19.5274 15.8023 19.5237C15.7842 19.5217 15.7663 19.5115 15.7508 19.4944C15.7354 19.4773 15.7232 19.4542 15.716 19.4282L15.3237 18.0184C15.3125 17.9788 15.3133 17.9374 15.326 17.9016C15.3387 17.8657 15.3625 17.8374 15.3933 17.8218Z" fill="#58E57B"/>
<path d="M22.1597 17.8218C23.102 18.0746 23.2652 18.4668 22.6494 18.9985C22.0958 19.4759 20.9383 19.6922 20.2233 20.0516C20.1448 20.0895 20.0539 20.0946 19.9701 20.0657C19.4656 19.8972 18.9731 19.9281 18.4927 20.1584C17.9938 20.398 17.6478 20.2707 17.4549 19.7764L16.7872 18.0605C17.2991 18.0137 17.6924 18.1738 17.9669 18.5407C17.9936 18.5756 18.0272 18.6037 18.0649 18.6227C18.1026 18.6418 18.1434 18.6512 18.1839 18.6503C18.8155 18.625 19.3441 18.7317 19.9534 18.552C20.7009 18.3329 21.4364 18.0895 22.1597 17.8218Z" fill="#81CC42"/>
<path d="M14.4278 21.8911C14.2052 22.0858 14.093 22.3442 14.0912 22.6662C14.0913 22.7056 14.0794 22.7442 14.0571 22.7768C14.0347 22.8094 14.0029 22.8345 13.966 22.8488L12.9894 23.2139C12.9041 23.2457 12.816 23.2588 12.7251 23.2532L10.6328 23.1521L11.1253 18.0802C11.1293 18.0424 11.1472 18.0073 11.1757 17.9811C11.2042 17.9548 11.2416 17.9392 11.2811 17.9369L13.9103 17.8274C13.9496 17.826 13.988 17.8387 14.0182 17.863C14.0484 17.8873 14.0684 17.9216 14.0745 17.9594C14.1579 18.4799 14.1969 18.9966 14.1913 19.5096C14.183 20.3465 14.5558 21.0121 14.4278 21.8911Z" fill="#F3FFC8"/>
<path d="M8.70469 20.0039C8.60638 20.0638 8.5665 20.0329 8.58505 19.9112L8.87997 18.0605C8.88764 18.0143 8.90427 17.9718 8.92819 17.9373C8.95211 17.9028 8.98249 17.8775 9.0163 17.8639C9.23146 17.7778 9.34461 17.7366 9.35574 17.7404C9.70074 17.8864 9.81481 18.1382 9.69796 18.4958C9.45312 19.2485 9.12203 19.7512 8.70469 20.0039Z" fill="#58E57B"/>
<path d="M21.9817 20.633C20.7835 22.0802 19.3422 23.1577 17.658 23.8654C17.6469 23.7138 17.6024 23.5612 17.5245 23.4077C17.5068 23.3737 17.5015 23.3345 17.5097 23.2969C17.5178 23.2594 17.5388 23.226 17.569 23.2026C18.0123 22.8488 18.0958 22.3573 17.8194 21.7282C17.8124 21.7116 17.8088 21.6937 17.8087 21.6757C17.8086 21.6577 17.812 21.64 17.8188 21.6237C17.8256 21.6074 17.8356 21.5928 17.8481 21.5808C17.8607 21.5688 17.8755 21.5598 17.8917 21.5541C19.2124 21.0917 20.5757 20.7846 21.9817 20.633Z" fill="#95DD6B"/>
<path d="M6.73762 23.5846C5.57649 23.0079 4.53406 22.2263 3.61035 21.2396C4.701 21.234 5.7731 21.3931 6.82666 21.717C6.86765 21.7295 6.90439 21.7529 6.93286 21.7846C6.96132 21.8163 6.98041 21.8551 6.98803 21.8967C7.09375 22.4921 7.01029 23.0547 6.73762 23.5846Z" fill="#95DD6B"/>
<path d="M14.4278 21.8911L14.8062 24.7781L14.2331 25H10.7552L10.3434 24.8596L10.6328 23.1521L12.7251 23.2532C12.816 23.2588 12.9041 23.2457 12.9894 23.2139L13.966 22.8488C14.0029 22.8345 14.0347 22.8094 14.0571 22.7768C14.0794 22.7442 14.0913 22.7056 14.0912 22.6662C14.093 22.3442 14.2052 22.0858 14.4278 21.8911Z" fill="white"/>
</svg>
