<svg width="25" height="25" viewBox="0 0 25 25" fill="none" xmlns="http://www.w3.org/2000/svg">
<path d="M15.1482 0.288918L14.8114 1.31423C14.7988 1.35412 14.775 1.38856 14.7443 1.41121C14.7137 1.43386 14.6781 1.44319 14.6444 1.43749L13.1998 1.19937C12.8602 0.843594 12.1059 1.35345 11.4602 0.966855L11.1123 0.0788141C12.4687 -0.0743287 13.814 -0.00429389 15.1482 0.288918Z" fill="#C5472E"/>
<path d="M11.1123 0.0788141L11.4602 0.966855C10.6697 0.524235 9.95996 2.19667 9.55916 2.73453C9.26969 3.12299 9.04609 3.54694 8.88837 4.00637C8.51354 5.09517 8.02553 6.13636 7.42432 7.12992L6.46128 8.54182C6.46684 8.01142 6.67281 7.58561 7.07918 7.26439C7.13114 7.2233 7.18495 7.15233 7.24062 7.05148L7.84182 5.93092C7.89564 5.83194 7.92254 5.7479 7.92254 5.6788C7.93089 4.97845 8.43468 4.4826 8.5989 3.99236C8.89672 3.08471 9.55916 1.24419 9.02475 0.569058C9.68719 0.268375 10.383 0.10496 11.1123 0.0788141Z" fill="#DB5D34"/>
<path d="M15.1482 0.288918L15.9748 0.510229L16.1863 2.09301C16.1972 2.17794 16.2387 2.25656 16.3032 2.31433C16.422 2.42451 16.4359 2.55151 16.345 2.69531C16.3215 2.73392 16.3064 2.77584 16.3006 2.81801C16.2948 2.86019 16.2986 2.90154 16.3116 2.93904C16.3932 3.18182 16.4201 3.44235 16.3923 3.72062L16.4869 4.18846C16.4962 4.23888 16.4851 4.24262 16.4535 4.19966L15.883 3.44889L15.4543 2.10982C15.4401 2.06553 15.4162 2.02656 15.3856 1.99769C15.3549 1.96883 15.3188 1.95133 15.2818 1.94734C15.1463 1.9324 15.0238 1.95388 14.9143 2.01177C14.8847 2.02741 14.8557 2.05447 14.8293 2.09117C14.8029 2.12787 14.7797 2.17337 14.7613 2.22468C14.4968 2.95865 13.4503 1.43469 13.1998 1.19937L14.6444 1.43749C14.6781 1.44319 14.7137 1.43386 14.7443 1.41121C14.775 1.38856 14.7988 1.35412 14.8114 1.31423L15.1482 0.288918Z" fill="#DB5D34"/>
<path d="M9.02475 0.569058C9.55916 1.24419 8.89672 3.08471 8.5989 3.99236C8.43468 4.4826 7.93089 4.97845 7.92254 5.6788C7.92254 5.7479 7.89564 5.83194 7.84182 5.93092L7.24062 7.05148C7.18495 7.15233 7.13114 7.2233 7.07918 7.26439C6.67281 7.58561 6.46684 8.01142 6.46128 8.54182L6.19129 9.07409C6.17712 9.10317 6.15168 9.13245 6.11665 9.15997C6.08162 9.1875 6.03781 9.21265 5.98811 9.23376C5.75616 9.33088 5.65132 9.52044 5.67358 9.80245L5.34793 8.68189L4.2819 3.07911C5.65317 1.83529 7.23412 0.998605 9.02475 0.569058Z" fill="#BA3517"/>
<path d="M15.9748 0.510229C17.5669 0.950981 19.0681 1.71856 20.4783 2.81297C19.9606 5.42761 19.6201 7.45395 19.4568 8.892C19.4178 9.22629 19.3464 9.45974 19.2425 9.59234L16.3923 3.72062C16.4201 3.44235 16.3932 3.18182 16.3116 2.93904C16.2986 2.90154 16.2948 2.86019 16.3006 2.81801C16.3064 2.77584 16.3215 2.73392 16.345 2.69531C16.4359 2.55151 16.422 2.42451 16.3032 2.31433C16.2387 2.25656 16.1972 2.17794 16.1863 2.09301L15.9748 0.510229Z" fill="#B62E14"/>
<path d="M11.4602 0.966855C12.1059 1.35345 12.8602 0.843594 13.1998 1.19937C13.4503 1.43469 14.4968 2.95865 14.7613 2.22468C14.7797 2.17337 14.8029 2.12787 14.8293 2.09117C14.8557 2.05447 14.8847 2.02741 14.9143 2.01177C15.0238 1.95388 15.1463 1.9324 15.2818 1.94734C15.3188 1.95133 15.3549 1.96883 15.3856 1.99769C15.4162 2.02656 15.4401 2.06553 15.4543 2.10982L15.883 3.44889C16.1891 4.21367 16.3895 4.80756 16.782 5.74883C17.0139 6.30351 17.0956 6.88526 17.0269 7.4941L12.8268 1.41508C12.8067 1.38562 12.7797 1.36166 12.7481 1.3453C12.7165 1.32894 12.6814 1.32068 12.6457 1.32123C12.6099 1.32178 12.5748 1.33114 12.5433 1.34847C12.5118 1.36581 12.4849 1.3906 12.465 1.42068L8.40963 7.4913C8.3985 7.43247 8.00883 6.34553 7.96986 6.86939C7.96738 6.90119 7.95397 6.93104 7.93205 6.95362C7.91013 6.9762 7.88111 6.99004 7.85017 6.99265C7.69802 7.00759 7.55607 7.05335 7.42432 7.12992C8.02553 6.13636 8.51354 5.09517 8.88837 4.00637C9.04609 3.54694 9.26969 3.12299 9.55916 2.73453C9.95996 2.19667 10.6697 0.524235 11.4602 0.966855Z" fill="#FA802C"/>
<path d="M17.0269 7.4941C17.6856 8.67255 18.4566 9.79871 19.3399 10.8726L20.0664 12.0688L19.184 11.6822L18.3212 11.248C17.4157 10.7829 16.5259 10.3889 15.6519 10.0658C15.4655 9.99574 15.2428 9.65117 14.9645 9.60355C14.4412 9.5111 14.7974 9.9061 14.8364 10.063C15.2521 11.7345 15.6278 13.4153 15.9637 15.1055C15.9943 15.2512 16.0583 15.3044 16.1335 15.4248C16.1781 15.4951 16.194 15.5871 16.178 15.6826C16.1335 15.9646 16.2077 16.2027 16.4007 16.3969L16.8293 17.8564L16.8989 18.3467C16.5593 19.6718 15.8663 17.4895 15.8329 17.3662C15.8217 16.6995 15.5378 16.1812 15.4766 15.5873C15.4321 15.1727 14.6945 10.2114 14.3382 10.4468C14.3175 10.46 14.3013 10.4816 14.2914 10.5089C14.2816 10.5362 14.2785 10.5681 14.2825 10.6008C14.6221 13.293 15.0619 15.0411 15.1732 17.1785C15.1756 17.2271 15.1891 17.2729 15.2119 17.3099C15.2348 17.3469 15.2659 17.3734 15.3012 17.3858L15.7048 17.5175C15.8468 17.9013 15.3263 17.6716 15.201 17.9237C15.186 17.9536 15.1827 17.9924 15.1915 18.0355C15.2004 18.0787 15.2211 18.1244 15.2511 18.1674L15.4961 18.5064C15.5197 18.5399 15.5359 18.5802 15.5436 18.6246C15.5513 18.6689 15.5502 18.7165 15.5406 18.7641C14.9645 21.5403 17.9816 19.4056 18.0122 21.3582V23.7394C16.9546 24.2884 15.8375 24.6582 14.6611 24.8487C14.7594 24.2978 14.7121 23.73 14.5191 23.1455C14.636 22.1258 14.2519 21.2181 14.2491 20.2488C14.2454 19.4626 14.1703 18.6763 14.0237 17.8901C14.0205 17.8723 14.0137 17.8554 14.0035 17.8402C13.9934 17.8251 13.9802 17.8121 13.9647 17.802C13.9492 17.7918 13.9317 17.7847 13.9131 17.7811C13.8946 17.7775 13.8754 17.7774 13.8567 17.7808C12.992 17.9489 12.1282 17.9825 11.2654 17.8817C11.2492 17.8796 11.2327 17.8812 11.2172 17.8863C11.2016 17.8915 11.1874 17.9002 11.1754 17.9117C11.1635 17.9232 11.1541 17.9372 11.148 17.9529C11.1419 17.9685 11.1392 17.9853 11.1401 18.0021C11.155 18.258 11.0761 18.47 10.9035 18.638L9.81523 18.4279C9.77775 18.4206 9.74406 18.3983 9.72012 18.365C9.69617 18.3317 9.68352 18.2895 9.68441 18.2458C9.69554 17.5791 10.2188 16.607 9.91821 16.0355L10.9592 9.66238C10.9675 9.61309 10.9648 9.56444 10.9515 9.52222C10.9382 9.48 10.9147 9.446 10.884 9.42426C10.4832 9.13291 9.50349 15.5593 9.43112 16.1056C9.073 16.6845 8.87816 17.4577 8.84662 18.4251C8.83177 18.8416 8.64065 18.991 8.27325 18.8734C8.23369 18.8604 8.19921 18.835 8.17472 18.8008C8.15023 18.7666 8.13698 18.7253 8.13686 18.6829C8.11181 17.3438 8.9329 16.3605 8.92455 14.9094L9.65101 11.9147L10.1743 9.85287C10.2058 9.72961 10.1641 9.69693 10.049 9.75482L8.95517 10.3039L7.84182 10.8474C7.11815 11.2863 6.38427 11.6075 5.64018 11.811L6.11336 10.993C6.98177 9.89489 7.74719 8.72765 8.40963 7.4913L12.465 1.42068C12.4849 1.3906 12.5118 1.36581 12.5433 1.34847C12.5748 1.33114 12.6099 1.32178 12.6457 1.32123C12.6814 1.32068 12.7165 1.32894 12.7481 1.3453C12.7797 1.36166 12.8067 1.38562 12.8268 1.41508L17.0269 7.4941ZM12.529 5.40986C12.0865 9.33461 11.5576 13.2538 11.257 17.1953C11.2544 17.2251 11.2582 17.255 11.2683 17.2834C11.2784 17.3118 11.2945 17.3379 11.3156 17.3602C11.3367 17.3825 11.3624 17.4005 11.3911 17.4131C11.4198 17.4257 11.4509 17.4326 11.4825 17.4334L13.6813 17.4755C13.7267 17.4763 13.7718 17.4678 13.8136 17.4506C13.8554 17.4335 13.8928 17.4079 13.9234 17.3758C13.954 17.3437 13.9771 17.3057 13.991 17.2644C14.0049 17.2231 14.0094 17.1795 14.0042 17.1365C13.5718 13.4181 13.2035 9.82766 12.8992 6.36514C12.8695 6.04578 12.8547 5.71615 12.8547 5.37625C12.8545 5.32604 12.8442 5.27852 12.825 5.2393C12.8058 5.20008 12.7784 5.1708 12.7461 5.15494C12.6274 5.09704 12.555 5.18202 12.529 5.40986Z" fill="#FFEE7C"/>
<path d="M20.4783 2.81297C21.9423 4.09601 23.0761 5.6209 23.8796 7.38765L21.1546 14.2651C21.1388 14.306 21.1114 14.3407 21.0767 14.364C21.0421 14.3873 21.002 14.3978 20.9626 14.3939L18.7637 14.1502C18.722 14.1461 18.6824 14.1286 18.6501 14.1C18.6177 14.0715 18.5943 14.0333 18.5828 13.9905C18.4733 13.5927 18.5819 13.2332 18.9085 12.912C18.9647 12.8555 19.0485 12.8143 19.1478 12.7943C19.5783 12.7028 19.8845 12.461 20.0664 12.0688L19.3399 10.8726C19.5756 10.458 19.5431 10.0312 19.2425 9.59234C19.3464 9.45974 19.4178 9.22629 19.4568 8.892C19.6201 7.45395 19.9606 5.42761 20.4783 2.81297Z" fill="#7A0812"/>
<path d="M4.2819 3.07911L5.34793 8.68189C5.29969 9.04607 5.0965 9.31127 4.73838 9.47748C4.7019 9.49473 4.6716 9.52258 4.65166 9.55721C4.63171 9.59183 4.62311 9.63151 4.62704 9.67078C4.76621 11.0547 4.42571 12.2798 3.60555 13.3462C2.99135 12.08 2.56735 10.8053 2.33355 9.52231L2.4421 8.5082C2.4471 8.46221 2.46151 8.41921 2.48395 8.38338C2.50638 8.34754 2.53607 8.3201 2.57014 8.3037C3.04145 8.08146 3.51462 7.95633 3.98965 7.92832C4.3719 7.9059 4.41272 7.77517 4.11212 7.53612C3.77997 7.27279 3.50535 6.96277 3.28824 6.60606C2.95981 6.06259 2.64529 5.80766 2.21387 5.38745L4.2819 3.07911Z" fill="#710310"/>
<path d="M15.883 3.44889L16.4535 4.19966C16.4851 4.24262 16.4962 4.23888 16.4869 4.18846L16.3923 3.72062L19.2425 9.59234C19.5431 10.0312 19.5756 10.458 19.3399 10.8726C18.4566 9.79871 17.6856 8.67255 17.0269 7.4941C17.0956 6.88526 17.0139 6.30351 16.782 5.74883C16.3895 4.80756 16.1891 4.21367 15.883 3.44889Z" fill="#FB5C12"/>
<path d="M11.257 17.1953C11.5576 13.2538 12.0865 9.33461 12.529 5.40986C12.555 5.18202 12.6274 5.09704 12.7461 5.15494C12.7784 5.1708 12.8058 5.20008 12.825 5.2393C12.8442 5.27852 12.8545 5.32604 12.8547 5.37625C12.8547 5.71615 12.8695 6.04578 12.8992 6.36514C13.2035 9.82766 13.5718 13.4181 14.0042 17.1365C14.0094 17.1795 14.0049 17.2231 13.991 17.2644C13.9771 17.3057 13.954 17.3437 13.9234 17.3758C13.8928 17.4079 13.8554 17.4335 13.8136 17.4506C13.7718 17.4678 13.7267 17.4763 13.6813 17.4755L11.4825 17.4334C11.4509 17.4326 11.4198 17.4257 11.3911 17.4131C11.3624 17.4005 11.3367 17.3825 11.3156 17.3602C11.2945 17.3379 11.2784 17.3118 11.2683 17.2834C11.2582 17.255 11.2544 17.2251 11.257 17.1953Z" fill="white"/>
<path d="M2.21387 5.38745C2.64529 5.80766 2.95981 6.06259 3.28824 6.60606C3.50535 6.96277 3.77997 7.27279 4.11212 7.53612C4.41272 7.77517 4.3719 7.9059 3.98965 7.92832C3.51462 7.95633 3.04145 8.08146 2.57014 8.3037C2.53607 8.3201 2.50638 8.34754 2.48395 8.38338C2.46151 8.41921 2.4471 8.46221 2.4421 8.5082L2.33355 9.52231C1.96986 8.92468 1.74626 8.27009 1.66276 7.55853C1.65775 7.51369 1.64128 7.47185 1.61548 7.4384C1.58969 7.40494 1.55574 7.38141 1.51802 7.37084C1.38628 7.32975 1.24804 7.32321 1.1033 7.35123L2.21387 5.38745Z" fill="#7A0812"/>
<path d="M8.40963 7.4913C7.74719 8.72765 6.98177 9.89489 6.11336 10.993L5.67358 9.80245C5.65132 9.52044 5.75616 9.33088 5.98811 9.23376C6.03781 9.21265 6.08162 9.1875 6.11665 9.15997C6.15168 9.13245 6.17712 9.10317 6.19129 9.07409L6.46128 8.54182L7.42432 7.12992C7.55607 7.05335 7.69802 7.00759 7.85017 6.99265C7.88111 6.99004 7.91013 6.9762 7.93205 6.95362C7.95397 6.93104 7.96738 6.90119 7.96986 6.86939C8.00883 6.34553 8.3985 7.43247 8.40963 7.4913Z" fill="#FB5C12"/>
<path d="M1.1033 7.35123C1.24804 7.32321 1.38628 7.32975 1.51802 7.37084C1.55574 7.38141 1.58969 7.40494 1.61548 7.4384C1.64128 7.47185 1.65775 7.51369 1.66276 7.55853C1.74626 8.27009 1.96986 8.92468 2.33355 9.52231C2.56735 10.8053 2.99135 12.08 3.60555 13.3462L4.14274 14.915C3.06279 14.2847 1.40669 13.7888 0.129126 14.0746C-0.208588 11.7289 0.116137 9.48776 1.1033 7.35123Z" fill="#AB2917"/>
<path d="M23.8796 7.38765C25.0319 9.93878 25.2954 12.5646 24.67 15.2652C23.3748 15.1064 22.1233 15.253 20.9153 15.705C20.836 15.7341 20.7653 15.7943 20.7149 15.8759C20.3568 16.4473 19.8233 16.6444 19.1144 16.467L18.0595 15.9655L17.7339 14.915C17.8378 15.0046 17.9204 15.0382 17.9816 15.0158C18.008 15.0068 18.0295 14.978 18.0422 14.9344C18.055 14.8908 18.0581 14.8353 18.0512 14.7777C17.8972 13.532 18.2748 12.5002 19.184 11.6822L20.0664 12.0688C19.8845 12.461 19.5783 12.7028 19.1478 12.7943C19.0485 12.8143 18.9647 12.8555 18.9085 12.912C18.5819 13.2332 18.4733 13.5927 18.5828 13.9905C18.5943 14.0333 18.6177 14.0715 18.6501 14.1C18.6824 14.1286 18.722 14.1461 18.7637 14.1502L20.9626 14.3939C21.002 14.3978 21.0421 14.3873 21.0767 14.364C21.1114 14.3407 21.1388 14.306 21.1546 14.2651L23.8796 7.38765Z" fill="#A2251A"/>
<path d="M5.34793 8.68189L5.67358 9.80245L6.11336 10.993L5.64018 11.811C6.28221 12.6048 6.66817 13.5423 6.79806 14.6236C5.92965 15.3436 5.04176 15.7834 4.14274 14.915L3.60555 13.3462C4.42571 12.2798 4.76621 11.0547 4.62704 9.67078C4.62311 9.63151 4.63171 9.59183 4.65166 9.55721C4.6716 9.52258 4.7019 9.49473 4.73838 9.47748C5.0965 9.31127 5.29969 9.04607 5.34793 8.68189Z" fill="#851118"/>
<path d="M9.91821 16.0355C9.75863 16.34 9.59627 16.3633 9.43112 16.1056C9.50349 15.5593 10.4832 9.13291 10.884 9.42426C10.9147 9.446 10.9382 9.48 10.9515 9.52222C10.9648 9.56444 10.9675 9.61309 10.9592 9.66238L9.91821 16.0355Z" fill="#FFAC2C"/>
<path d="M18.3212 11.248C16.7291 12.2546 16.5333 13.4769 17.7339 14.915L18.0595 15.9655C17.8202 15.8553 17.6356 15.8871 17.5057 16.0608C17.484 16.0894 17.4741 16.1269 17.4777 16.1674C17.4812 16.208 17.4979 16.2493 17.5251 16.2849C17.8072 16.6565 17.6652 16.8078 17.0993 16.7387C17.0585 16.7331 16.9759 16.6985 16.8516 16.635L16.4007 16.3969C16.2077 16.2027 16.1335 15.9646 16.178 15.6826C16.194 15.5871 16.1781 15.4951 16.1335 15.4248C16.0583 15.3044 15.9943 15.2512 15.9637 15.1055C15.6278 13.4153 15.2521 11.7345 14.8364 10.063C14.7974 9.9061 14.4412 9.5111 14.9645 9.60355C15.2428 9.65117 15.4655 9.99574 15.6519 10.0658C16.5259 10.3889 17.4157 10.7829 18.3212 11.248Z" fill="#FA802C"/>
<path d="M9.65101 11.9147C8.82157 12.1052 9.16392 10.8334 8.95517 10.3039L10.049 9.75482C10.1641 9.69693 10.2058 9.72961 10.1743 9.85287L9.65101 11.9147Z" fill="#FFAC2C"/>
<path d="M8.95517 10.3039C9.16392 10.8334 8.82157 12.1052 9.65101 11.9147L8.92455 14.9094C8.53117 15.4491 8.28809 16.0552 8.19531 16.7275C8.19286 16.7443 8.18681 16.7604 8.1776 16.7746C8.16839 16.7888 8.15622 16.8009 8.14194 16.8099C8.12766 16.819 8.1116 16.8248 8.09487 16.827C8.07814 16.8292 8.06113 16.8278 8.04501 16.8227C7.81399 16.7555 6.09944 16.8872 6.7591 16.2092C6.7972 16.1709 6.82735 16.1294 6.84716 16.088C6.86697 16.0467 6.87589 16.0067 6.87321 15.9711C6.8695 15.8889 6.84445 15.8208 6.79806 15.7666C7.54122 15.7526 8.16748 14.7217 8.3484 14.0942C8.6824 12.9213 8.51354 11.8391 7.84182 10.8474L8.95517 10.3039Z" fill="#FA802C"/>
<path d="M15.8329 17.3662L15.7048 17.5175L15.3012 17.3858C15.2659 17.3734 15.2348 17.3469 15.2119 17.3099C15.1891 17.2729 15.1756 17.2271 15.1732 17.1785C15.0619 15.0411 14.6221 13.293 14.2825 10.6008C14.2785 10.5681 14.2816 10.5362 14.2914 10.5089C14.3013 10.4816 14.3175 10.46 14.3382 10.4468C14.6945 10.2114 15.4321 15.1727 15.4766 15.5873C15.5378 16.1812 15.8217 16.6995 15.8329 17.3662Z" fill="#FFBD3B"/>
<path d="M7.84182 10.8474C8.51354 11.8391 8.6824 12.9213 8.3484 14.0942C8.16748 14.7217 7.54122 15.7526 6.79806 15.7666L6.72848 15.7442C6.97156 15.3875 6.99475 15.014 6.79806 14.6236C6.66817 13.5423 6.28221 12.6048 5.64018 11.811C6.38427 11.6075 7.11815 11.2863 7.84182 10.8474Z" fill="#CC411D"/>
<path d="M18.3212 11.248L19.184 11.6822C18.2748 12.5002 17.8972 13.532 18.0512 14.7777C18.0581 14.8353 18.055 14.8908 18.0422 14.9344C18.0295 14.978 18.008 15.0068 17.9816 15.0158C17.9204 15.0382 17.8378 15.0046 17.7339 14.915C16.5333 13.4769 16.7291 12.2546 18.3212 11.248Z" fill="#BA3517"/>
<path d="M4.14274 14.915C5.04176 15.7834 5.92965 15.3436 6.79806 14.6236C6.99475 15.014 6.97156 15.3875 6.72848 15.7442C5.91017 15.8208 5.31082 16.1915 4.93043 16.8564C3.56472 16.6416 2.14985 16.5314 0.685799 16.5258C0.387051 15.7358 0.201494 14.9187 0.129126 14.0746C1.40669 13.7888 3.06279 14.2847 4.14274 14.915Z" fill="#C5472E"/>
<path d="M8.92455 14.9094C8.9329 16.3605 8.11181 17.3438 8.13686 18.6829C8.13698 18.7253 8.15023 18.7666 8.17472 18.8008C8.19921 18.835 8.23369 18.8604 8.27325 18.8734C8.64065 18.991 8.83177 18.8416 8.84662 18.4251C8.87816 17.4577 9.073 16.6845 9.43112 16.1056C9.59627 16.3633 9.75863 16.34 9.91821 16.0355C10.2188 16.607 9.69554 17.5791 9.68441 18.2458C9.68352 18.2895 9.69617 18.3317 9.72012 18.365C9.74406 18.3983 9.77775 18.4206 9.81523 18.4279L10.9035 18.638C10.9258 20.0929 10.8135 21.5365 10.5667 22.969L10.3469 24.8487L8.80487 24.5098C8.84012 24.4201 8.8225 24.3323 8.75198 24.2464C8.74123 24.2331 8.73311 24.2179 8.72811 24.2016C8.72311 24.1854 8.72133 24.1685 8.7229 24.152C8.72446 24.1354 8.72933 24.1196 8.7372 24.1055C8.74507 24.0914 8.75579 24.0793 8.76869 24.0699C9.53411 23.5181 9.05816 22.8765 8.2983 22.8821C7.83997 22.8878 7.36587 22.9587 6.876 23.0951C6.78136 22.4302 6.78693 21.7551 6.8927 21.0696C6.90068 21.0208 6.91611 20.9752 6.9381 20.9358C6.96009 20.8963 6.98819 20.8637 7.02073 20.8399L7.43267 20.543C7.49019 20.5019 7.4837 20.4739 7.41319 20.4589L6.99568 20.3637C7.34082 19.7399 7.56349 19.0825 7.66369 18.3915C7.67279 18.3187 7.71284 18.2361 7.77781 18.1562C8.00604 17.8677 7.61637 17.6912 7.37979 17.6688C6.50952 17.5941 5.69307 17.3233 4.93043 16.8564C5.31082 16.1915 5.91017 15.8208 6.72848 15.7442L6.79806 15.7666C6.84445 15.8208 6.8695 15.8889 6.87321 15.9711C6.87589 16.0067 6.86697 16.0467 6.84716 16.088C6.82735 16.1294 6.7972 16.1709 6.7591 16.2092C6.09944 16.8872 7.81399 16.7555 8.04501 16.8227C8.06113 16.8278 8.07814 16.8292 8.09487 16.827C8.1116 16.8248 8.12766 16.819 8.14194 16.8099C8.15622 16.8009 8.16839 16.7888 8.1776 16.7746C8.18681 16.7604 8.19286 16.7443 8.19531 16.7275C8.28809 16.0552 8.53117 15.4491 8.92455 14.9094Z" fill="#FEDF66"/>
<path d="M24.67 15.2652C24.5847 16.0421 24.336 16.7807 23.9241 17.4811L20.854 17.0048C20.7167 16.9133 20.5748 16.8788 20.4282 16.9012C20.4145 16.903 20.4018 16.9087 20.3913 16.9179C20.3807 16.9271 20.3726 16.9394 20.3676 16.9538C20.3627 16.9682 20.3611 16.9842 20.3629 17.0004C20.3647 17.0167 20.3699 17.0326 20.3781 17.0468C20.4968 17.2579 20.4096 17.5474 20.1165 17.9153C20.0361 18.0165 19.9201 18.0827 19.7923 18.1004C19.6644 18.1181 19.5344 18.086 19.429 18.0105C19.1952 17.8424 18.9103 17.7416 18.5745 17.708C18.5333 17.704 18.495 17.687 18.4668 17.6602C18.4386 17.6333 18.4224 17.5985 18.4214 17.5623L18.4186 17.2373C18.851 17.1496 19.0829 16.8928 19.1144 16.467C19.8233 16.6444 20.3568 16.4473 20.7149 15.8759C20.7653 15.7943 20.836 15.7341 20.9153 15.705C22.1233 15.253 23.3748 15.1064 24.67 15.2652Z" fill="#DB5D34"/>
<path d="M18.0595 15.9655L19.1144 16.467C19.0829 16.8928 18.851 17.1496 18.4186 17.2373C17.8007 17.2093 17.2709 17.4157 16.8293 17.8564L16.4007 16.3969L16.8516 16.635C16.9759 16.6985 17.0585 16.7331 17.0993 16.7387C17.6652 16.8078 17.8072 16.6565 17.5251 16.2849C17.4979 16.2493 17.4812 16.208 17.4777 16.1674C17.4741 16.1269 17.484 16.0894 17.5057 16.0608C17.6356 15.8871 17.8202 15.8553 18.0595 15.9655Z" fill="#F7C670"/>
<path d="M0.685799 16.5258C2.14985 16.5314 3.56472 16.6416 4.93043 16.8564C5.69307 17.3233 6.50952 17.5941 7.37979 17.6688C7.61637 17.6912 8.00604 17.8677 7.77781 18.1562C7.71284 18.2361 7.67279 18.3187 7.66369 18.3915C7.56349 19.0825 7.34082 19.7399 6.99568 20.3637C5.46112 20.3637 4.13717 20.1872 3.02382 19.8342C2.79188 19.7614 2.63137 19.8258 2.5423 20.0275C1.71657 18.9705 1.09774 17.8032 0.685799 16.5258Z" fill="#EE8B42"/>
<path d="M20.854 17.0048C20.6908 17.0907 20.6935 17.1561 20.8624 17.2009C21.5731 17.3858 22.2513 17.6762 22.897 18.0722C22.9307 18.0927 22.956 18.1245 22.9678 18.1613C22.9796 18.198 22.9772 18.2372 22.9611 18.2711C22.6957 18.8183 22.2893 19.2357 21.7419 19.5233C21.2001 19.8034 20.8132 19.9547 20.5813 19.9771L17.99 20.2264C17.944 20.2307 17.8993 20.2255 17.8598 20.2113C17.8204 20.1971 17.7876 20.1743 17.7645 20.1452C17.3526 19.6073 17.064 19.0078 16.8989 18.3467L16.8293 17.8564C17.2709 17.4157 17.8007 17.2093 18.4186 17.2373L18.4214 17.5623C18.4224 17.5985 18.4386 17.6333 18.4668 17.6602C18.495 17.687 18.5333 17.704 18.5745 17.708C18.9103 17.7416 19.1952 17.8424 19.429 18.0105C19.5344 18.086 19.6644 18.1181 19.7923 18.1004C19.9201 18.0827 20.0361 18.0165 20.1165 17.9153C20.4096 17.5474 20.4968 17.2579 20.3781 17.0468C20.3699 17.0326 20.3647 17.0167 20.3629 17.0004C20.3611 16.9842 20.3627 16.9682 20.3676 16.9538C20.3726 16.9394 20.3807 16.9271 20.3913 16.9179C20.4018 16.9087 20.4145 16.903 20.4282 16.9012C20.5748 16.8788 20.7167 16.9133 20.854 17.0048Z" fill="#EE8B42"/>
<path d="M20.854 17.0048L23.9241 17.4811C23.412 18.8407 22.6243 20.0397 21.561 21.0781L21.227 20.7643C21.1961 20.735 21.1594 20.7135 21.1201 20.7018C21.0808 20.6901 21.0401 20.6884 21.0016 20.6971L18.0122 21.3582C17.9816 19.4056 14.9645 21.5403 15.5406 18.7641C15.5502 18.7165 15.5513 18.6689 15.5436 18.6246C15.5359 18.5802 15.5197 18.5399 15.4961 18.5064L15.2511 18.1674C15.2211 18.1244 15.2004 18.0787 15.1915 18.0355C15.1827 17.9924 15.186 17.9536 15.201 17.9237C15.3263 17.6716 15.8468 17.9013 15.7048 17.5175L15.8329 17.3662C15.8663 17.4895 16.5593 19.6718 16.8989 18.3467C17.064 19.0078 17.3526 19.6073 17.7645 20.1452C17.7876 20.1743 17.8204 20.1971 17.8598 20.2113C17.8993 20.2255 17.944 20.2307 17.99 20.2264L20.5813 19.9771C20.8132 19.9547 21.2001 19.8034 21.7419 19.5233C22.2893 19.2357 22.6957 18.8183 22.9611 18.2711C22.9772 18.2372 22.9796 18.198 22.9678 18.1613C22.956 18.1245 22.9307 18.0927 22.897 18.0722C22.2513 17.6762 21.5731 17.3858 20.8624 17.2009C20.6935 17.1561 20.6908 17.0907 20.854 17.0048Z" fill="#F7C670"/>
<path d="M14.5191 23.1455C13.5598 23.0652 12.6088 23.096 11.6662 23.2379C11.6252 23.2441 11.5825 23.2405 11.5412 23.2274C11.4999 23.2144 11.4608 23.1921 11.4268 23.1623C11.1819 22.9419 10.8952 22.8775 10.5667 22.969C10.8135 21.5365 10.9258 20.0929 10.9035 18.638C11.0761 18.47 11.155 18.258 11.1401 18.0021C11.1392 17.9853 11.1419 17.9685 11.148 17.9529C11.1541 17.9372 11.1635 17.9232 11.1754 17.9117C11.1874 17.9002 11.2016 17.8915 11.2172 17.8863C11.2327 17.8812 11.2492 17.8796 11.2654 17.8817C12.1282 17.9825 12.992 17.9489 13.8567 17.7808C13.8754 17.7774 13.8946 17.7775 13.9131 17.7811C13.9317 17.7847 13.9492 17.7918 13.9647 17.802C13.9802 17.8121 13.9934 17.8251 14.0035 17.8402C14.0137 17.8554 14.0205 17.8723 14.0237 17.8901C14.1703 18.6763 14.2454 19.4626 14.2491 20.2488C14.2519 21.2181 14.636 22.1258 14.5191 23.1455Z" fill="#FFE8C6"/>
<path d="M6.99568 20.3637L7.41319 20.4589C7.4837 20.4739 7.49019 20.5019 7.43267 20.543L7.02073 20.8399C6.98819 20.8637 6.96009 20.8963 6.9381 20.9358C6.91611 20.9752 6.90068 21.0208 6.8927 21.0696C6.78693 21.7551 6.78136 22.4302 6.876 23.0951L6.57818 23.4592C4.95084 22.6599 3.60555 21.516 2.5423 20.0275C2.63137 19.8258 2.79188 19.7614 3.02382 19.8342C4.13717 20.1872 5.46112 20.3637 6.99568 20.3637Z" fill="#F7C670"/>
<path d="M21.561 21.0781C20.572 22.2266 19.3891 23.1137 18.0122 23.7394V21.3582L21.0016 20.6971C21.0401 20.6884 21.0808 20.6901 21.1201 20.7018C21.1594 20.7135 21.1961 20.735 21.227 20.7643L21.561 21.0781Z" fill="#F7BC61"/>
<path d="M8.80487 24.5098C8.01996 24.2483 7.27773 23.8981 6.57818 23.4592L6.876 23.0951C7.36587 22.9587 7.83997 22.8878 8.2983 22.8821C9.05816 22.8765 9.53411 23.5181 8.76869 24.0699C8.75579 24.0793 8.74507 24.0914 8.7372 24.1055C8.72933 24.1196 8.72446 24.1354 8.7229 24.152C8.72133 24.1685 8.72311 24.1854 8.72811 24.2016C8.73311 24.2179 8.74123 24.2331 8.75198 24.2464C8.8225 24.3323 8.84012 24.4201 8.80487 24.5098Z" fill="#FFFF92"/>
<path d="M14.5191 23.1455C14.7121 23.73 14.7594 24.2978 14.6611 24.8487L13.4614 25H10.6781L10.3469 24.8487L10.5667 22.969C10.8952 22.8775 11.1819 22.9419 11.4268 23.1623C11.4608 23.1921 11.4999 23.2144 11.5412 23.2274C11.5825 23.2405 11.6252 23.2441 11.6662 23.2379C12.6088 23.096 13.5598 23.0652 14.5191 23.1455Z" fill="white"/>
</svg>
