<svg width="30" height="22" viewBox="0 0 30 22" fill="none" xmlns="http://www.w3.org/2000/svg">
<path d="M29.4248 11.6046C28.9533 13.648 29.2777 15.4556 27.6786 16.9802C27.6392 17.0174 27.5901 17.0457 27.5342 17.0633C27.4784 17.0809 27.4171 17.0874 27.3542 17.0824C27.0374 17.0562 26.7809 17.1636 26.5848 17.4046C26.4939 17.5171 26.3926 17.5967 26.2944 17.6326C22.3116 19.0786 18.354 19.0197 14.4216 17.4557C14.3642 17.4337 14.3037 17.425 14.2448 17.4305C14.1859 17.4359 14.1302 17.4553 14.0821 17.4872C13.5466 17.8408 13.2977 18.3634 12.8451 18.6857C9.56005 21.0355 5.51318 22.2537 2.28097 19.1651C-0.120252 16.7733 -0.625594 14.0318 0.76485 10.9405C1.49653 9.30975 2.76 7.5611 4.3101 6.53548C4.83058 6.18968 5.12853 5.74171 5.7018 5.44306C7.22928 4.65715 9.35266 3.85159 11.0649 4.24455C11.1143 4.25558 11.1659 4.24673 11.2093 4.21975C11.2527 4.19278 11.2846 4.14969 11.2988 4.09915C11.6583 2.88885 12.3661 1.99946 13.4222 1.43098C17.3483 -0.687051 22.8925 -0.329461 26.8941 1.6864C26.9944 1.7374 27.0794 1.82869 27.1355 1.94575C27.314 2.31513 27.5579 2.61247 27.8672 2.83776C27.9445 2.89537 28.0054 3.0024 28.0369 3.13641L28.3876 4.64536C28.4254 4.80516 28.4342 4.92698 28.4141 5.01081C28.1274 6.14645 28.282 6.74375 28.9458 7.75364C29.5644 8.7046 29.4927 10.5829 29.4248 11.6046ZM13.6258 2.4841C12.6376 3.14688 12.2404 4.05723 12.434 5.21514L11.9776 5.52558L10.9404 5.42734C7.64033 4.88113 4.15542 7.44713 2.37525 10.1271C1.26391 11.898 0.918181 13.7305 1.33808 15.6245C1.84347 17.123 2.71847 18.2102 3.96308 18.8861C6.26372 20.7094 9.3413 19.6995 11.5213 18.1827C12.7696 17.5422 13.2562 16.4301 14.2141 15.8446C15.3003 16.6515 16.5035 17.1636 17.8235 17.3811C20.9275 17.8172 23.6468 17.6286 26.4038 16.3004C27.2964 16.1956 27.7628 15.6769 27.803 14.7443C28.0142 14.1758 28.0771 13.5864 27.9916 12.976L28.0859 12.4848C28.5762 11.7408 28.6931 10.9091 28.4366 9.98956C28.5624 9.30319 28.3021 8.71769 27.6559 8.23304C27.3567 6.91271 27.1832 5.54653 27.1355 4.13451C27.0977 3.09449 26.6024 2.47755 25.6495 2.28369C21.6189 0.656853 17.611 0.723655 13.6258 2.4841Z" fill="black"/>
<path d="M25.6495 2.28369L26.2152 2.97136C25.9336 3.58437 25.3679 3.83325 24.518 3.71798C21.8855 2.16449 19.1775 1.9798 16.3941 3.16391C15.1369 3.69571 15.1105 4.27598 16.3149 4.90471C15.9226 4.9833 14.4593 4.58641 14.4442 5.01866L14.052 5.42734L13.7691 5.10118C14.0432 4.29431 13.9954 3.42195 13.6258 2.4841C17.611 0.723655 21.6189 0.656853 25.6495 2.28369Z" fill="#FCF4A3"/>
<path d="M25.6495 2.28369C26.6024 2.47755 27.0977 3.09449 27.1355 4.13451C27.1832 5.54653 27.3567 6.91271 27.6559 8.23304C26.7583 11.9622 21.2405 12.3709 18.3892 11.8797L18.5778 11.5182C19.2215 11.7749 19.7583 11.6766 20.1883 11.2234C20.1985 11.2125 20.2109 11.2041 20.2246 11.1988C20.2383 11.1936 20.2528 11.1916 20.2671 11.1932C20.2814 11.1947 20.295 11.1996 20.3068 11.2076C20.3187 11.2156 20.3284 11.2264 20.3354 11.2392C20.8332 12.0722 25.0573 10.6065 25.6834 10.3039C25.7932 10.2506 25.8824 10.159 25.9361 10.0446L26.6489 8.55134C26.6612 8.52564 26.6689 8.49787 26.6716 8.46965C26.6743 8.44143 26.6719 8.41333 26.6645 8.38699C26.6571 8.36065 26.6449 8.3366 26.6287 8.31624C26.6124 8.29588 26.5924 8.27962 26.5697 8.26841C26.3887 8.17934 26.2077 8.18196 26.0266 8.27627C23.1879 9.29272 20.265 9.68567 17.2578 9.45514C17.1948 9.45005 17.133 9.46449 17.0858 9.49535C17.0385 9.52621 17.0096 9.57102 17.0051 9.62018C16.99 9.76164 17.0742 9.87036 17.2578 9.94633C17.1119 10.19 17.1371 10.3458 17.3332 10.414C17.3938 10.4333 17.4469 10.4674 17.4829 10.51C17.5189 10.5526 17.5354 10.6008 17.5293 10.6458L17.4464 11.2902C17.3885 11.3086 17.3345 11.306 17.2842 11.2824C17.2521 11.266 17.2255 11.2324 17.2079 11.186C17.1904 11.1396 17.1828 11.0827 17.1861 11.023C17.2138 10.4965 16.9875 10.1742 16.5072 10.0564C16.4472 10.0417 16.3935 10.0116 16.354 9.97048C16.3146 9.9294 16.2916 9.87957 16.2885 9.82844L16.2017 8.56313C16.1983 8.50417 16.1826 8.44687 16.1559 8.39527C16.1292 8.34367 16.092 8.29902 16.0471 8.26448C15.7278 8.02347 15.6285 7.66719 15.7492 7.19564C18.0322 7.55978 20.319 7.61348 22.6096 7.35675C22.7177 7.34365 22.8283 7.29388 22.9415 7.20743C23.4356 6.83412 24.3671 7.05025 24.567 6.67694C24.5929 6.62803 24.6314 6.58812 24.6777 6.56224C24.724 6.53637 24.7761 6.52568 24.8273 6.53154C25.3025 6.58656 25.6683 6.39401 25.9248 5.9539C25.9885 5.84931 26.0854 5.76914 26.2001 5.72598C26.5748 5.58452 26.7948 5.316 26.8601 4.92042C27.0688 4.11879 26.8538 3.46911 26.2152 2.97136L25.6495 2.28369Z" fill="#CD7B02"/>
<path d="M24.518 3.71798C24.2515 4.17381 23.8228 4.28515 23.2319 4.05199C23.1862 4.03415 23.1447 3.99971 23.1116 3.95212C23.0785 3.90453 23.0549 3.84547 23.0433 3.78085C22.9956 3.51102 22.8535 3.308 22.6171 3.17177C22.4059 3.04602 22.1796 2.97136 21.9383 2.94779C21.4027 2.89539 21.0344 2.88098 20.8332 2.90456C20.2562 2.96743 21.9911 3.47828 22.2588 3.59223C22.2841 3.60354 22.3071 3.61981 22.3262 3.6398C22.3453 3.65979 22.3599 3.68298 22.369 3.7076C22.3781 3.73223 22.3814 3.75764 22.3786 3.7819C22.3759 3.80617 22.3672 3.82866 22.3531 3.84766C22.2551 3.97864 22.0967 4.01401 21.8779 3.95375C21.0054 3.5477 20.0952 3.41016 19.1473 3.54115C18.8154 3.58438 17.7217 3.50578 18.3063 4.27205C18.5552 4.60213 18.8909 4.73181 19.3133 4.66107L21.8628 4.23275C22.108 4.37422 23.5223 4.72395 23.5827 4.80647C23.5962 4.82367 23.6039 4.8444 23.6049 4.86663C23.6059 4.88886 23.6002 4.91182 23.5884 4.93324C23.5766 4.95466 23.5591 4.9738 23.5376 4.98878C23.5161 5.00376 23.4913 5.01406 23.4657 5.01866C22.5493 5.19549 21.0821 5.69062 19.9054 5.53737C18.6155 5.37232 17.567 5.71813 16.3149 4.90471C15.1105 4.27598 15.1369 3.69571 16.3941 3.16391C19.1775 1.9798 21.8855 2.16449 24.518 3.71798ZM17.5557 4.75538C17.6689 4.64929 16.0433 3.72191 17.7368 3.54508C17.8028 3.53769 17.8646 3.51867 17.9175 3.48943C17.9703 3.46018 18.013 3.42146 18.0423 3.37611C18.178 3.15867 18.0511 3.10759 17.6613 3.22285C16.2483 3.63677 16.1263 4.15416 17.2955 4.77503C17.34 4.79827 17.3884 4.80881 17.4348 4.80532C17.4811 4.80182 17.5232 4.78444 17.5557 4.75538Z" fill="#A16834"/>
<path d="M13.6258 2.4841C13.9954 3.42195 14.0432 4.29431 13.7691 5.10118C13.3643 5.04355 13.0186 5.15227 12.7319 5.42734L12.434 5.21514C12.2404 4.05723 12.6376 3.14688 13.6258 2.4841Z" fill="#FFDE88"/>
<path d="M24.518 3.71798C25.3679 3.83325 25.9336 3.58437 26.2152 2.97136C26.8538 3.46911 27.0688 4.11879 26.8601 4.92042C26.6439 5.18763 26.3975 5.21514 26.1209 5.00295C25.9323 3.80836 25.6972 3.71536 25.4156 4.72395C25.4002 4.78052 25.3719 4.83343 25.3328 4.87892C25.2937 4.92442 25.2447 4.96139 25.1893 4.98723L22.9 6.00891C22.7893 6.06012 22.667 6.0752 22.5493 6.05214C21.9181 5.92377 21.0985 5.94866 20.0902 6.1268C18.8381 6.34947 17.4853 6.20277 16.032 5.68669C15.5191 5.50593 15.1721 5.00688 14.4442 5.01866C14.4593 4.58641 15.9226 4.9833 16.3149 4.90471C17.567 5.71813 18.6155 5.37232 19.9054 5.53737C21.0821 5.69062 22.5493 5.19549 23.4657 5.01866C23.4913 5.01406 23.5161 5.00376 23.5376 4.98878C23.5591 4.9738 23.5766 4.95466 23.5884 4.93324C23.6002 4.91182 23.6059 4.88886 23.6049 4.86663C23.6039 4.8444 23.5962 4.82367 23.5827 4.80647C23.5223 4.72395 22.108 4.37422 21.8628 4.23275L21.8779 3.95375C22.0967 4.01401 22.2551 3.97864 22.3531 3.84766C22.3672 3.82866 22.3759 3.80617 22.3786 3.7819C22.3814 3.75764 22.3781 3.73223 22.369 3.7076C22.3599 3.68298 22.3453 3.65979 22.3262 3.6398C22.3071 3.61981 22.2841 3.60354 22.2588 3.59223C21.9911 3.47828 20.2562 2.96743 20.8332 2.90456C21.0344 2.88098 21.4027 2.89539 21.9383 2.94779C22.1796 2.97136 22.4059 3.04602 22.6171 3.17177C22.8535 3.308 22.9956 3.51102 23.0433 3.78085C23.0549 3.84547 23.0785 3.90453 23.1116 3.95212C23.1447 3.99971 23.1862 4.03415 23.2319 4.05199C23.8228 4.28515 24.2515 4.17381 24.518 3.71798Z" fill="#F1D040"/>
<path d="M17.7368 3.54508C16.0433 3.72191 17.6689 4.64929 17.5557 4.75538C17.5232 4.78444 17.4811 4.80182 17.4348 4.80532C17.3884 4.80881 17.34 4.79827 17.2955 4.77503C16.1263 4.15416 16.2483 3.63677 17.6613 3.22285C18.0511 3.10759 18.178 3.15867 18.0423 3.37611C18.013 3.42146 17.9703 3.46018 17.9175 3.48943C17.8646 3.51867 17.8028 3.53769 17.7368 3.54508Z" fill="#FFDE88"/>
<path d="M21.8779 3.95375L21.8628 4.23275L19.3133 4.66107C18.8909 4.73181 18.5552 4.60213 18.3063 4.27205C17.7217 3.50578 18.8154 3.58438 19.1473 3.54115C20.0952 3.41016 21.0054 3.5477 21.8779 3.95375Z" fill="#FCF4A3"/>
<path d="M26.1209 5.00295C25.4873 5.33696 25.0272 5.73777 24.337 5.97748C23.7587 6.17657 23.2068 6.432 22.6813 6.74374C22.5751 6.8055 22.4541 6.8367 22.3305 6.83412L16.4884 6.75553C15.978 6.75029 15.5053 6.63895 15.0703 6.42152C14.5196 6.15169 14.1802 5.82029 14.052 5.42734L14.4442 5.01866C15.1721 5.00688 15.5191 5.50593 16.032 5.68669C17.4853 6.20277 18.8381 6.34947 20.0902 6.1268C21.0985 5.94866 21.9181 5.92377 22.5493 6.05214C22.667 6.0752 22.7893 6.06012 22.9 6.00891L25.1893 4.98723C25.2447 4.96139 25.2937 4.92442 25.3328 4.87892C25.3719 4.83343 25.4002 4.78052 25.4156 4.72395C25.6972 3.71536 25.9323 3.80836 26.1209 5.00295Z" fill="#FEEC6B"/>
<path d="M26.8601 4.92042C26.7948 5.316 26.5748 5.58452 26.2001 5.72598C26.0854 5.76914 25.9885 5.84931 25.9248 5.9539C25.6683 6.39401 25.3025 6.58656 24.8273 6.53154C24.7761 6.52568 24.724 6.53637 24.6777 6.56224C24.6314 6.58812 24.5929 6.62803 24.567 6.67694C24.3671 7.05025 23.4356 6.83412 22.9415 7.20743C22.8283 7.29388 22.7177 7.34365 22.6096 7.35675C20.319 7.61348 18.0322 7.55978 15.7492 7.19564C14.6026 6.86556 13.5969 6.27612 12.7319 5.42734C13.0186 5.15227 13.3643 5.04355 13.7691 5.10118L14.052 5.42734C14.1802 5.82029 14.5196 6.15169 15.0703 6.42152C15.5053 6.63895 15.978 6.75029 16.4884 6.75553L22.3305 6.83412C22.4541 6.8367 22.5751 6.8055 22.6813 6.74374C23.2068 6.432 23.7587 6.17657 24.337 5.97748C25.0272 5.73777 25.4873 5.33696 26.1209 5.00295C26.3975 5.21514 26.6439 5.18763 26.8601 4.92042Z" fill="#F1C132"/>
<path d="M12.434 5.21514L12.7319 5.42734C13.5969 6.27612 14.6026 6.86556 15.7492 7.19564C15.6285 7.66719 15.7278 8.02347 16.0471 8.26448C16.092 8.29902 16.1292 8.34367 16.1559 8.39527C16.1826 8.44687 16.1983 8.50417 16.2017 8.56313L16.2885 9.82844C16.2916 9.87957 16.3146 9.9294 16.354 9.97048C16.3935 10.0116 16.4472 10.0417 16.5072 10.0564C16.9875 10.1742 17.2138 10.4965 17.1861 11.023C17.1828 11.0827 17.1904 11.1396 17.2079 11.186C17.2255 11.2324 17.2521 11.266 17.2842 11.2824C17.3345 11.306 17.3885 11.3086 17.4464 11.2902L18.5778 11.5182L18.3892 11.8797C17.3734 11.7618 17.1899 11.9308 17.8386 12.3866C17.6425 12.811 17.6412 13.2511 17.8348 13.7069C17.8583 13.7606 17.8947 13.8082 17.9412 13.8457C17.9878 13.8833 18.043 13.9098 18.1026 13.923C20.8759 14.5361 23.6204 14.388 26.3359 13.479C26.4113 13.4554 26.4616 13.3926 26.4867 13.2904C26.5006 13.235 26.529 13.1862 26.5669 13.1524C26.6048 13.1186 26.6499 13.1021 26.6942 13.1057C27.3177 13.1476 27.2612 13.2969 26.5245 13.5537C26.4785 13.5705 26.4366 13.6029 26.4029 13.6476C26.3691 13.6924 26.3448 13.748 26.3321 13.8091C26.2944 13.9846 26.1926 14.1051 26.0266 14.1706C23.374 14.7469 20.7025 14.8675 18.0121 14.5321C17.2125 14.4575 15.8548 13.4397 15.1985 13.9584C15.0854 13.7646 15.0803 13.572 15.1834 13.3808C16.1364 11.6256 16.0471 9.95157 14.9156 8.35879C14.7924 8.10206 14.5988 8.00906 14.3348 8.07979C13.7465 7.03977 12.9607 6.18836 11.9776 5.52558L12.434 5.21514Z" fill="#924E08"/>
<path d="M10.9404 5.42734L10.6576 7.26244C7.70822 7.02143 5.44529 8.17803 3.86879 10.7322C3.205 10.6654 2.87687 9.82452 2.37525 10.1271C4.15542 7.44713 7.64033 4.88113 10.9404 5.42734Z" fill="#FEE4AB"/>
<path d="M10.9404 5.42734L11.9776 5.52558C12.9607 6.18836 13.7465 7.03977 14.3348 8.07979C13.9577 9.40798 14.0029 10.8266 13.3618 12.0211C12.8036 13.0625 12.2492 14.3239 11.4307 15.1137C8.43864 17.998 5.07442 18.1683 1.33808 15.6245C0.918181 13.7305 1.26391 11.898 2.37525 10.1271C2.87687 9.82452 3.205 10.6654 3.86879 10.7322C3.24523 11.8744 3.11448 13.0808 3.47655 14.3514C2.89824 14.7417 2.84167 15.1622 3.30683 15.6128C5.3246 17.5657 7.57245 16.7798 9.81274 15.4949C11.3138 14.6304 12.1624 13.2904 13.0902 11.8482C13.148 11.7618 13.1845 11.6426 13.1996 11.4907L13.3505 10.1428C13.3673 9.98613 13.3579 9.85354 13.3241 9.7695C13.1003 9.23246 12.8136 9.13553 12.4641 9.47871L11.74 9.62018C11.6911 9.62951 11.6442 9.66029 11.6052 9.70858C11.5663 9.75688 11.537 9.8205 11.5213 9.89132L11.2082 11.306L10.9404 11.192C11.1642 10.1205 10.8763 9.99218 10.0768 10.8069L8.18721 11.5024C8.08904 11.5408 7.9876 11.6245 7.8968 11.7421C7.47187 12.2897 6.91494 12.6957 6.226 12.9603C5.20769 10.9955 7.43667 9.41977 9.06598 9.74592C11.1139 10.1585 10.7028 8.5199 9.21684 8.63386C6.90488 8.80676 2.61663 12.3434 6.226 14.2688C6.36178 14.4863 6.33035 14.6723 6.13171 14.8268C1.38711 13.644 6.90865 5.98926 10.8688 8.66136C11.2874 8.94429 11.8305 8.99931 11.9399 8.39023C11.9516 8.33055 11.9489 8.26756 11.9318 8.2062C11.9148 8.14483 11.884 8.08677 11.8418 8.03657C11.525 7.64623 11.1303 7.38819 10.6576 7.26244L10.9404 5.42734Z" fill="#FCF08F"/>
<path d="M10.6576 7.26244C11.1303 7.38819 11.525 7.64623 11.8418 8.03657C11.884 8.08677 11.9148 8.14483 11.9318 8.2062C11.9489 8.26756 11.9516 8.33055 11.9399 8.39023C11.8305 8.99931 11.2874 8.94429 10.8688 8.66136C6.90865 5.98926 1.38711 13.644 6.13171 14.8268C8.66117 14.9107 10.3533 13.737 11.2082 11.306L11.5213 9.89132C11.537 9.8205 11.5663 9.75688 11.6052 9.70858C11.6442 9.66029 11.6911 9.62951 11.74 9.62018L12.4641 9.47871C12.0593 12.5988 10.425 14.6199 7.56113 15.542C5.90165 16.0764 4.54012 15.6796 3.47655 14.3514C3.11448 13.0808 3.24523 11.8744 3.86879 10.7322C5.44529 8.17803 7.70822 7.02143 10.6576 7.26244Z" fill="#8D5026"/>
<path d="M14.3348 8.07979C14.5988 8.00906 14.7924 8.10206 14.9156 8.35879C14.6793 9.12112 14.6177 9.91097 14.7308 10.7283C14.7482 10.8544 14.7326 10.9846 14.6856 11.1056L13.6295 13.7619C13.6065 13.8209 13.5724 13.8726 13.5303 13.9124C13.4882 13.9522 13.4393 13.9788 13.3882 13.9899L13.2034 14.0291C13.1444 14.0415 13.0895 14.0663 13.0425 14.1017C12.9955 14.137 12.9577 14.1821 12.9318 14.2335C12.5295 15.0534 11.9914 15.7529 11.3176 16.3319C9.79389 17.664 6.76533 18.6582 4.80036 18.4578C4.76359 18.4541 4.71584 18.4624 4.66046 18.4821C4.60508 18.5018 4.54342 18.5324 4.47978 18.5717L3.96308 18.8861C2.71847 18.2102 1.84347 17.123 1.33808 15.6245C5.07442 18.1683 8.43864 17.998 11.4307 15.1137C12.2492 14.3239 12.8036 13.0625 13.3618 12.0211C14.0029 10.8266 13.9577 9.40798 14.3348 8.07979Z" fill="#F1C132"/>
<path d="M18.5778 11.5182L17.4464 11.2902L17.5293 10.6458C17.5354 10.6008 17.5189 10.5526 17.4829 10.51C17.4469 10.4674 17.3938 10.4333 17.3332 10.414C17.1371 10.3458 17.1119 10.19 17.2578 9.94633C18.1479 9.9149 26.2077 10.3393 26.0266 8.27627C26.2077 8.18196 26.3887 8.17934 26.5697 8.26841C26.5924 8.27962 26.6124 8.29588 26.6287 8.31624C26.6449 8.3366 26.6571 8.36065 26.6645 8.38699C26.6719 8.41333 26.6743 8.44143 26.6716 8.46965C26.6689 8.49787 26.6612 8.52564 26.6489 8.55134L25.9361 10.0446C25.8824 10.159 25.7932 10.2506 25.6834 10.3039C25.0573 10.6065 20.8332 12.0722 20.3354 11.2392C20.3284 11.2264 20.3187 11.2156 20.3068 11.2076C20.295 11.1996 20.2814 11.1947 20.2671 11.1932C20.2528 11.1916 20.2383 11.1936 20.2246 11.1988C20.2109 11.2041 20.1985 11.2125 20.1883 11.2234C19.7583 11.6766 19.2215 11.7749 18.5778 11.5182Z" fill="#D18200"/>
<path d="M26.0266 8.27627C26.2077 10.3393 18.1479 9.9149 17.2578 9.94633C17.0742 9.87036 16.99 9.76164 17.0051 9.62018C17.0096 9.57102 17.0385 9.52621 17.0858 9.49535C17.133 9.46449 17.1948 9.45005 17.2578 9.45514C20.265 9.68567 23.1879 9.29272 26.0266 8.27627Z" fill="#F1C132"/>
<path d="M27.6559 8.23304C28.3021 8.71769 28.5624 9.30319 28.4366 9.98956C28.1324 10.5842 27.7376 11.061 27.2524 11.4199C26.3246 11.0558 25.8657 11.3073 25.8758 12.1744C25.388 12.232 24.4564 12.3931 23.081 12.6577C21.4266 12.9721 19.6791 12.8817 17.8386 12.3866C17.1899 11.9308 17.3734 11.7618 18.3892 11.8797C21.2405 12.3709 26.7583 11.9622 27.6559 8.23304Z" fill="#F1D040"/>
<path d="M14.9156 8.35879C16.0471 9.95157 16.1364 11.6256 15.1834 13.3808C15.0803 13.572 15.0854 13.7646 15.1985 13.9584L15.1683 14.4496C14.8842 14.6016 14.5775 14.6723 14.2481 14.6618C14.1879 14.6609 14.1301 14.6779 14.0852 14.7096C14.0402 14.7413 14.011 14.7857 14.0029 14.8347C13.9086 15.432 14.8251 15.4949 14.2141 15.8446C13.2562 16.4301 12.7696 17.5422 11.5213 18.1827C11.5615 17.8028 11.4383 17.5749 11.1516 17.4989C11.0891 17.4822 11.0331 17.4535 10.9898 17.4161C10.9466 17.3786 10.9177 17.3339 10.9065 17.2867C10.816 16.899 10.953 16.5807 11.3176 16.3319C11.9914 15.7529 12.5295 15.0534 12.9318 14.2335C12.9577 14.1821 12.9955 14.137 13.0425 14.1017C13.0895 14.0663 13.1444 14.0415 13.2034 14.0291L13.3882 13.9899C13.4393 13.9788 13.4882 13.9522 13.5303 13.9124C13.5724 13.8726 13.6065 13.8209 13.6295 13.7619L14.6856 11.1056C14.7326 10.9846 14.7482 10.8544 14.7308 10.7283C14.6177 9.91097 14.6793 9.12112 14.9156 8.35879Z" fill="#CD7B02"/>
<path d="M6.226 12.9603C7.67051 14.0331 9.56382 12.1272 10.0768 10.8069C10.8763 9.99218 11.1642 10.1205 10.9404 11.192C9.95606 12.8542 8.26641 14.5361 6.226 14.2688C2.61663 12.3434 6.90488 8.80676 9.21684 8.63386C10.7028 8.5199 11.1139 10.1585 9.06598 9.74592C7.43667 9.41977 5.20769 10.9955 6.226 12.9603Z" fill="#9A5521"/>
<path d="M3.47655 14.3514C4.54012 15.6796 5.90165 16.0764 7.56113 15.542C10.425 14.6199 12.0593 12.5988 12.4641 9.47871C12.8136 9.13553 13.1003 9.23246 13.3241 9.7695C13.3579 9.85354 13.3673 9.98613 13.3505 10.1428L13.1996 11.4907C13.1845 11.6426 13.148 11.7618 13.0902 11.8482C12.1624 13.2904 11.3138 14.6304 9.81274 15.4949C7.57245 16.7798 5.3246 17.5657 3.30683 15.6128C2.84167 15.1622 2.89824 14.7417 3.47655 14.3514Z" fill="#F1D040"/>
<path d="M28.4366 9.98956C28.6931 10.9091 28.5762 11.7408 28.0859 12.4848C27.3617 12.5949 27.3303 12.7586 27.9916 12.976C28.0771 13.5864 28.0142 14.1758 27.803 14.7443L26.4038 16.3004C23.6468 17.6286 20.9275 17.8172 17.8235 17.3811C17.5645 16.8781 17.4552 16.3358 17.4954 15.7542C17.5007 15.6854 17.4904 15.6188 17.466 15.5638C17.4417 15.5088 17.4044 15.4681 17.3596 15.4477L15.1683 14.4496L15.1985 13.9584C15.8548 13.4397 17.2125 14.4575 18.0121 14.5321C17.5444 14.5976 17.4338 14.6972 17.6802 14.8308C17.7345 14.8602 17.7817 14.8998 17.8182 14.9467C17.8547 14.9935 17.8797 15.0465 17.8914 15.1019L17.9404 15.3534C17.9526 15.4085 17.9812 15.4584 18.0223 15.4963C18.0635 15.5343 18.1152 15.5585 18.1705 15.5656C19.0191 15.656 26.7696 15.7542 26.0266 14.1706C26.1926 14.1051 26.2944 13.9846 26.3321 13.8091C26.3448 13.748 26.3691 13.6924 26.4029 13.6476C26.4366 13.6029 26.4785 13.5705 26.5245 13.5537C27.2612 13.2969 27.3177 13.1476 26.6942 13.1057C26.6499 13.1021 26.6048 13.1186 26.5669 13.1524C26.529 13.1862 26.5006 13.235 26.4867 13.2904C26.4616 13.3926 26.4113 13.4554 26.3359 13.479C23.6204 14.388 20.8759 14.5361 18.1026 13.923C18.043 13.9098 17.9878 13.8833 17.9412 13.8457C17.8947 13.8082 17.8583 13.7606 17.8348 13.7069C17.6412 13.2511 17.6425 12.811 17.8386 12.3866C19.6791 12.8817 21.4266 12.9721 23.081 12.6577C24.4564 12.3931 25.388 12.232 25.8758 12.1744C26.444 12.0408 26.9029 11.7893 27.2524 11.4199C27.7376 11.061 28.1324 10.5842 28.4366 9.98956Z" fill="#D18200"/>
<path d="M10.0768 10.8069C9.56382 12.1272 7.67051 14.0331 6.226 12.9603C6.91494 12.6957 7.47187 12.2897 7.8968 11.7421C7.9876 11.6245 8.08904 11.5408 8.18721 11.5024L10.0768 10.8069Z" fill="#F1D040"/>
<path d="M10.9404 11.192L11.2082 11.306C10.3533 13.737 8.66117 14.9107 6.13171 14.8268C6.33035 14.6723 6.36178 14.4863 6.226 14.2688C8.26641 14.5361 9.95606 12.8542 10.9404 11.192Z" fill="#F1D040"/>
<path d="M25.8758 12.1744C26.444 12.0408 26.9029 11.7893 27.2524 11.4199C26.3246 11.0558 25.8657 11.3073 25.8758 12.1744Z" fill="#D68C02"/>
<path d="M27.9916 12.976L28.0859 12.4848C27.3617 12.5949 27.3303 12.7586 27.9916 12.976Z" fill="#924E08"/>
<path d="M26.0266 14.1706C26.7696 15.7542 19.0191 15.656 18.1705 15.5656C18.1152 15.5585 18.0635 15.5343 18.0223 15.4963C17.9812 15.4584 17.9526 15.4085 17.9404 15.3534L17.8914 15.1019C17.8797 15.0465 17.8547 14.9935 17.8182 14.9467C17.7817 14.8998 17.7345 14.8602 17.6802 14.8308C17.4338 14.6972 17.5444 14.5976 18.0121 14.5321C20.7025 14.8675 23.374 14.7469 26.0266 14.1706Z" fill="#F1D040"/>
<path d="M15.1683 14.4496L17.3596 15.4477C17.4044 15.4681 17.4417 15.5088 17.466 15.5638C17.4904 15.6188 17.5007 15.6854 17.4954 15.7542C17.4552 16.3358 17.5645 16.8781 17.8235 17.3811C16.5035 17.1636 15.3003 16.6515 14.2141 15.8446C14.8251 15.4949 13.9086 15.432 14.0029 14.8347C14.011 14.7857 14.0402 14.7413 14.0852 14.7096C14.1301 14.6779 14.1879 14.6609 14.2481 14.6618C14.5775 14.6723 14.8842 14.6016 15.1683 14.4496Z" fill="#9E5701"/>
<path d="M26.4038 16.3004C27.2964 16.1956 27.7628 15.6769 27.803 14.7443L26.4038 16.3004Z" fill="#924E08"/>
<path d="M11.3176 16.3319C10.953 16.5807 10.816 16.899 10.9065 17.2867C10.9177 17.3339 10.9466 17.3786 10.9898 17.4161C11.0331 17.4535 11.0891 17.4822 11.1516 17.4989C11.4383 17.5749 11.5615 17.8028 11.5213 18.1827C9.3413 19.6995 6.26372 20.7094 3.96308 18.8861L4.47978 18.5717C4.54342 18.5324 4.60508 18.5018 4.66046 18.4821C4.71584 18.4624 4.76359 18.4541 4.80036 18.4578C6.76533 18.6582 9.79389 17.664 11.3176 16.3319Z" fill="#D68C02"/>
</svg>
